<?xml version="1.0"?>
<svg version="1.1" id="topsvg"
xmlns="http://www.w3.org/2000/svg" xmlns:xlink="http://www.w3.org/1999/xlink"
xmlns:cml="http://www.xml-cml.org/schema" x="0" y="0" width="200px" height="200px" viewBox="0 0 100 100">
<title> - Open Babel Depiction</title>
<rect x="0" y="0" width="100" height="100" fill="white"/>
<g transform="translate(0,0)">
<svg width="100" height="100" x="0" y="0" viewBox="0 0 363.923 320"
font-family="sans-serif" stroke="rgb(0,0,0)" stroke-width="2"  stroke-linecap="round">
<line x1="273.5" y1="123.4" x2="260.0" y2="100.0" stroke="rgb(0,0,0)"  stroke-width="2.0"/>
<line x1="260.0" y1="100.0" x2="220.0" y2="100.0" stroke="rgb(0,0,0)"  stroke-width="2.0"/>
<line x1="220.0" y1="100.0" x2="220.0" y2="60.0" stroke="rgb(0,0,0)"  stroke-width="2.0"/>
<line x1="220.0" y1="60.0" x2="243.4" y2="46.5" stroke="rgb(0,0,0)"  stroke-width="2.0"/>
<line x1="265.9" y1="46.5" x2="289.3" y2="60.0" stroke="rgb(0,0,0)"  stroke-width="2.0"/>
<line x1="287.8" y1="57.4" x2="311.2" y2="43.9" stroke="rgb(0,0,0)"  stroke-width="2.0"/>
<line x1="290.8" y1="62.6" x2="314.2" y2="49.1" stroke="rgb(0,0,0)"  stroke-width="2.0"/>
<line x1="289.3" y1="60.0" x2="289.3" y2="100.0" stroke="rgb(0,0,0)"  stroke-width="2.0"/>
<line x1="289.3" y1="100.0" x2="323.9" y2="120.0" stroke="rgb(0,0,0)"  stroke-width="2.0"/>
<line x1="323.9" y1="120.0" x2="323.9" y2="147.0" stroke="rgb(0,0,0)"  stroke-width="2.0"/>
<line x1="220.0" y1="100.0" x2="180.0" y2="100.0" stroke="rgb(0,0,0)"  stroke-width="2.0"/>
<line x1="180.0" y1="100.0" x2="166.5" y2="123.4" stroke="rgb(0,0,0)"  stroke-width="2.0"/>
<line x1="147.0" y1="134.6" x2="120.0" y2="134.6" stroke="rgb(0,0,0)"  stroke-width="2.0"/>
<line x1="117.4" y1="136.1" x2="103.9" y2="112.8" stroke="rgb(0,0,0)"  stroke-width="2.0"/>
<line x1="122.6" y1="133.1" x2="109.1" y2="109.8" stroke="rgb(0,0,0)"  stroke-width="2.0"/>
<line x1="120.0" y1="134.6" x2="100.0" y2="169.3" stroke="rgb(0,0,0)"  stroke-width="2.0"/>
<line x1="100.0" y1="169.3" x2="60.0" y2="169.3" stroke="rgb(0,0,0)"  stroke-width="2.0"/>
<line x1="60.0" y1="169.3" x2="46.5" y2="192.7" stroke="rgb(0,0,0)"  stroke-width="2.0"/>
<line x1="220.0" y1="100.0" x2="220.0" y2="140.0" stroke="rgb(0,0,0)"  stroke-width="2.0"/>
<line x1="220.0" y1="140.0" x2="196.6" y2="153.5" stroke="rgb(0,0,0)"  stroke-width="2.0"/>
<line x1="185.4" y1="173.0" x2="185.4" y2="200.0" stroke="rgb(0,0,0)"  stroke-width="2.0"/>
<line x1="186.9" y1="202.6" x2="163.5" y2="216.1" stroke="rgb(0,0,0)"  stroke-width="2.0"/>
<line x1="183.9" y1="197.4" x2="160.5" y2="210.9" stroke="rgb(0,0,0)"  stroke-width="2.0"/>
<line x1="185.4" y1="200.0" x2="220.0" y2="220.0" stroke="rgb(0,0,0)"  stroke-width="2.0"/>
<line x1="220.0" y1="220.0" x2="220.0" y2="260.0" stroke="rgb(0,0,0)"  stroke-width="2.0"/>
<line x1="220.0" y1="260.0" x2="196.6" y2="273.5" stroke="rgb(0,0,0)"  stroke-width="2.0"/>
<text x="167.358984" y="288.000000" fill="rgb(178,178,0)"  stroke="rgb(178,178,0)" stroke-width="1" font-size="16" >HS</text>
<text x="144.717968" y="228.000000" fill="rgb(255,12,12)"  stroke="rgb(255,12,12)" stroke-width="1" font-size="16" >O</text>
<text x="179.358984" y="168.000000" fill="rgb(255,12,12)"  stroke="rgb(255,12,12)" stroke-width="1" font-size="16" >O</text>
<text x="22.000000" y="211.923048" fill="rgb(178,178,0)"  stroke="rgb(178,178,0)" stroke-width="1" font-size="16" >HS</text>
<text x="94.000000" y="108.000000" fill="rgb(255,12,12)"  stroke="rgb(255,12,12)" stroke-width="1" font-size="16" >O</text>
<text x="276.000000" y="142.641016" fill="rgb(102,102,102)"  stroke="rgb(102,102,102)" stroke-width="1" font-size="16" >CH</text>
<text x="300.000000" y="146.321016" fill="rgb(102,102,102)"  stroke="rgb(102,102,102)" stroke-width="1" font-size="13" >3</text>
<text x="154.000000" y="142.641016" fill="rgb(255,12,12)"  stroke="rgb(255,12,12)" stroke-width="1" font-size="16" >O</text>
<text x="317.923048" y="168.000000" fill="rgb(178,178,0)"  stroke="rgb(178,178,0)" stroke-width="1" font-size="16" >SH</text>
<text x="317.923048" y="48.000000" fill="rgb(255,12,12)"  stroke="rgb(255,12,12)" stroke-width="1" font-size="16" >O</text>
<text x="248.641016" y="48.000000" fill="rgb(255,12,12)"  stroke="rgb(255,12,12)" stroke-width="1" font-size="16" >O</text>
</svg>
</g>
<text font-size="18.000000" fill ="black" font-family="sans-serif"
x="10.000000" y="20.000000" ></text>
</svg>
