<?xml version="1.0"?>
<svg version="1.1" id="topsvg"
xmlns="http://www.w3.org/2000/svg" xmlns:xlink="http://www.w3.org/1999/xlink"
xmlns:cml="http://www.xml-cml.org/schema" x="0" y="0" width="200px" height="200px" viewBox="0 0 100 100">
<title> - Open Babel Depiction</title>
<rect x="0" y="0" width="100" height="100" fill="white"/>
<g transform="translate(0,0)">
<svg width="100" height="100" x="0" y="0" viewBox="0 0 461.051 320"
font-family="sans-serif" stroke="rgb(0,0,0)" stroke-width="2"  stroke-linecap="round">
<line x1="397.7" y1="273.5" x2="421.1" y2="260.0" stroke="rgb(0,0,0)"  stroke-width="2.0"/>
<line x1="421.1" y1="260.0" x2="421.1" y2="233.0" stroke="rgb(0,0,0)"  stroke-width="2.0"/>
<line x1="409.8" y1="213.5" x2="386.4" y2="200.0" stroke="rgb(0,0,0)"  stroke-width="2.0"/>
<line x1="383.4" y1="200.0" x2="383.4" y2="173.0" stroke="rgb(0,0,0)"  stroke-width="2.0"/>
<line x1="389.4" y1="200.0" x2="389.4" y2="173.0" stroke="rgb(0,0,0)"  stroke-width="2.0"/>
<line x1="386.4" y1="200.0" x2="363.0" y2="213.5" stroke="rgb(0,0,0)"  stroke-width="2.0"/>
<line x1="271.2" y1="266.5" x2="247.8" y2="280.0" stroke="rgb(0,0,0)"  stroke-width="2.0"/>
<line x1="247.8" y1="280.0" x2="213.2" y2="260.0" stroke="rgb(0,0,0)"  stroke-width="2.0"/>
<line x1="213.2" y1="260.0" x2="213.2" y2="220.0" stroke="rgb(0,0,0)"  stroke-width="2.0"/>
<line x1="213.2" y1="220.0" x2="178.6" y2="200.0" stroke="rgb(0,0,0)"  stroke-width="2.0"/>
<line x1="178.6" y1="200.0" x2="178.6" y2="160.0" stroke="rgb(0,0,0)"  stroke-width="2.0"/>
<line x1="178.6" y1="80.0" x2="178.6" y2="53.0" stroke="rgb(0,0,0)"  stroke-width="2.0"/>
<line x1="178.6" y1="200.0" x2="143.9" y2="220.0" stroke="rgb(0,0,0)"  stroke-width="2.0"/>
<line x1="74.6" y1="260.0" x2="51.3" y2="273.5" stroke="rgb(0,0,0)"  stroke-width="2.0"/>
<line x1="143.9" y1="100.0" x2="178.6" y2="80.0" stroke="rgb(0,0,0)"  stroke-width="2.0"/>
<line x1="152.7" y1="103.2" x2="177.0" y2="89.2" stroke="rgb(0,0,0)"  stroke-width="2.0"/>
<line x1="178.6" y1="80.0" x2="213.2" y2="100.0" stroke="rgb(0,0,0)"  stroke-width="2.0"/>
<line x1="213.2" y1="100.0" x2="213.2" y2="140.0" stroke="rgb(0,0,0)"  stroke-width="2.0"/>
<line x1="206.0" y1="106.0" x2="206.0" y2="134.0" stroke="rgb(0,0,0)"  stroke-width="2.0"/>
<line x1="213.2" y1="140.0" x2="178.6" y2="160.0" stroke="rgb(0,0,0)"  stroke-width="2.0"/>
<line x1="178.6" y1="160.0" x2="143.9" y2="140.0" stroke="rgb(0,0,0)"  stroke-width="2.0"/>
<line x1="177.0" y1="150.8" x2="152.7" y2="136.8" stroke="rgb(0,0,0)"  stroke-width="2.0"/>
<line x1="143.9" y1="140.0" x2="143.9" y2="100.0" stroke="rgb(0,0,0)"  stroke-width="2.0"/>
<line x1="109.3" y1="280.0" x2="74.6" y2="260.0" stroke="rgb(0,0,0)"  stroke-width="2.0"/>
<line x1="107.7" y1="270.8" x2="83.4" y2="256.8" stroke="rgb(0,0,0)"  stroke-width="2.0"/>
<line x1="74.6" y1="260.0" x2="74.6" y2="220.0" stroke="rgb(0,0,0)"  stroke-width="2.0"/>
<line x1="74.6" y1="220.0" x2="109.3" y2="200.0" stroke="rgb(0,0,0)"  stroke-width="2.0"/>
<line x1="83.4" y1="223.2" x2="107.7" y2="209.2" stroke="rgb(0,0,0)"  stroke-width="2.0"/>
<line x1="109.3" y1="200.0" x2="143.9" y2="220.0" stroke="rgb(0,0,0)"  stroke-width="2.0"/>
<line x1="143.9" y1="220.0" x2="143.9" y2="260.0" stroke="rgb(0,0,0)"  stroke-width="2.0"/>
<line x1="136.7" y1="226.0" x2="136.7" y2="254.0" stroke="rgb(0,0,0)"  stroke-width="2.0"/>
<line x1="143.9" y1="260.0" x2="109.3" y2="280.0" stroke="rgb(0,0,0)"  stroke-width="2.0"/>
<line x1="317.1" y1="280.0" x2="293.7" y2="266.5" stroke="rgb(0,0,0)"  stroke-width="2.0"/>
<line x1="282.5" y1="247.0" x2="282.5" y2="220.0" stroke="rgb(0,0,0)"  stroke-width="2.0"/>
<line x1="282.5" y1="220.0" x2="317.1" y2="200.0" stroke="rgb(0,0,0)"  stroke-width="2.0"/>
<line x1="317.1" y1="200.0" x2="340.5" y2="213.5" stroke="rgb(0,0,0)"  stroke-width="2.0"/>
<line x1="351.8" y1="233.0" x2="351.8" y2="260.0" stroke="rgb(0,0,0)"  stroke-width="2.0"/>
<line x1="351.8" y1="260.0" x2="317.1" y2="280.0" stroke="rgb(0,0,0)"  stroke-width="2.0"/>
<text x="34.000000" y="288.000000" fill="rgb(127,178,255)"  stroke="rgb(127,178,255)" stroke-width="1" font-size="16" >F</text>
<text x="172.564065" y="48.000000" fill="rgb(127,178,255)"  stroke="rgb(127,178,255)" stroke-width="1" font-size="16" >F</text>
<text x="360.410162" y="288.000000" fill="rgb(102,102,102)"  stroke="rgb(102,102,102)" stroke-width="1" font-size="16" >H</text>
<text x="372.410162" y="291.680000" fill="rgb(102,102,102)"  stroke="rgb(102,102,102)" stroke-width="1" font-size="13" >3</text>
<text x="378.910162" y="288.000000" fill="rgb(102,102,102)"  stroke="rgb(102,102,102)" stroke-width="1" font-size="16" >C</text>
<text x="276.487113" y="268.000000" fill="rgb(12,12,255)"  stroke="rgb(12,12,255)" stroke-width="1" font-size="16" >N</text>
<text x="345.769145" y="228.000000" fill="rgb(12,12,255)"  stroke="rgb(12,12,255)" stroke-width="1" font-size="16" >N</text>
<text x="380.410162" y="168.000000" fill="rgb(255,12,12)"  stroke="rgb(255,12,12)" stroke-width="1" font-size="16" >O</text>
<text x="415.051178" y="228.000000" fill="rgb(12,12,255)"  stroke="rgb(12,12,255)" stroke-width="1" font-size="16" >NH</text>
</svg>
</g>
<text font-size="18.000000" fill ="black" font-family="sans-serif"
x="10.000000" y="20.000000" ></text>
</svg>
