<?xml version="1.0"?>
<svg version="1.1" id="topsvg"
xmlns="http://www.w3.org/2000/svg" xmlns:xlink="http://www.w3.org/1999/xlink"
xmlns:cml="http://www.xml-cml.org/schema" x="0" y="0" width="200px" height="200px" viewBox="0 0 100 100">
<title> - Open Babel Depiction</title>
<rect x="0" y="0" width="100" height="100" fill="white"/>
<g transform="translate(0,0)">
<svg width="100" height="100" x="0" y="0" viewBox="0 0 370.654 221.986"
font-family="sans-serif" stroke="rgb(0,0,0)" stroke-width="2"  stroke-linecap="round">
<line x1="278.3" y1="51.9" x2="272.6" y2="64.7" stroke="rgb(0,0,0)"  stroke-width="2.0"/>
<line x1="225.2" y1="82.5" x2="209.3" y2="60.6" stroke="rgb(0,0,0)"  stroke-width="2.0"/>
<line x1="230.0" y1="79.0" x2="214.1" y2="57.1" stroke="rgb(0,0,0)"  stroke-width="2.0"/>
<line x1="162.8" y1="122.0" x2="140.9" y2="106.1" stroke="rgb(0,0,0)"  stroke-width="2.0"/>
<line x1="140.9" y1="106.1" x2="104.4" y2="122.4" stroke="rgb(0,0,0)"  stroke-width="2.0"/>
<line x1="282.2" y1="156.0" x2="290.5" y2="167.3" stroke="rgb(0,0,0)"  stroke-width="2.0"/>
<line x1="290.6" y1="105.9" x2="317.4" y2="103.1" stroke="rgb(0,0,0)"  stroke-width="2.0"/>
<line x1="291.2" y1="111.9" x2="318.0" y2="109.1" stroke="rgb(0,0,0)"  stroke-width="2.0"/>
<line x1="173.3" y1="169.6" x2="198.8" y2="177.9" stroke="rgb(0,0,0)"  stroke-width="2.0"/>
<line x1="181.2" y1="164.6" x2="199.1" y2="170.4" stroke="rgb(0,0,0)"  stroke-width="2.0"/>
<line x1="219.0" y1="171.5" x2="234.8" y2="149.6" stroke="rgb(0,0,0)"  stroke-width="2.0"/>
<line x1="234.8" y1="149.6" x2="211.3" y2="117.3" stroke="rgb(0,0,0)"  stroke-width="2.0"/>
<line x1="225.5" y1="149.0" x2="209.0" y2="126.4" stroke="rgb(0,0,0)"  stroke-width="2.0"/>
<line x1="211.3" y1="117.3" x2="185.6" y2="125.6" stroke="rgb(0,0,0)"  stroke-width="2.0"/>
<line x1="173.3" y1="142.6" x2="173.3" y2="169.6" stroke="rgb(0,0,0)"  stroke-width="2.0"/>
<line x1="234.8" y1="149.6" x2="261.7" y2="146.8" stroke="rgb(0,0,0)"  stroke-width="2.0"/>
<line x1="279.9" y1="133.6" x2="290.9" y2="108.9" stroke="rgb(0,0,0)"  stroke-width="2.0"/>
<line x1="290.9" y1="108.9" x2="275.0" y2="87.1" stroke="rgb(0,0,0)"  stroke-width="2.0"/>
<line x1="254.4" y1="77.9" x2="227.6" y2="80.7" stroke="rgb(0,0,0)"  stroke-width="2.0"/>
<line x1="227.6" y1="80.7" x2="211.3" y2="117.3" stroke="rgb(0,0,0)"  stroke-width="2.0"/>
<line x1="56.3" y1="165.7" x2="40.0" y2="129.1" stroke="rgb(0,0,0)"  stroke-width="2.0"/>
<line x1="40.0" y1="129.1" x2="60.1" y2="111.1" stroke="rgb(0,0,0)"  stroke-width="2.0"/>
<line x1="81.0" y1="108.9" x2="104.4" y2="122.4" stroke="rgb(0,0,0)"  stroke-width="2.0"/>
<line x1="104.4" y1="122.4" x2="98.8" y2="148.8" stroke="rgb(0,0,0)"  stroke-width="2.0"/>
<line x1="83.1" y1="162.9" x2="56.3" y2="165.7" stroke="rgb(0,0,0)"  stroke-width="2.0"/>
<text x="324.654195" y="112.721360" fill="rgb(255,12,12)"  stroke="rgb(255,12,12)" stroke-width="1" font-size="16" >O</text>
<text x="294.115264" y="185.804996" fill="rgb(102,102,102)"  stroke="rgb(102,102,102)" stroke-width="1" font-size="16" >CH</text>
<text x="318.115264" y="189.484996" fill="rgb(102,102,102)"  stroke="rgb(102,102,102)" stroke-width="1" font-size="13" >3</text>
<text x="268.603854" y="153.444316" fill="rgb(12,12,255)"  stroke="rgb(12,12,255)" stroke-width="1" font-size="16" >N</text>
<text x="63.725793" y="110.383511" fill="rgb(255,12,12)"  stroke="rgb(255,12,12)" stroke-width="1" font-size="16" >O</text>
<text x="90.050342" y="169.509415" fill="rgb(255,12,12)"  stroke="rgb(255,12,12)" stroke-width="1" font-size="16" >O</text>
<text x="279.631375" y="48.000000" fill="rgb(102,102,102)"  stroke="rgb(102,102,102)" stroke-width="1" font-size="16" >CH</text>
<text x="303.631375" y="51.680000" fill="rgb(102,102,102)"  stroke="rgb(102,102,102)" stroke-width="1" font-size="13" >3</text>
<text x="167.269307" y="137.625455" fill="rgb(12,12,255)"  stroke="rgb(12,12,255)" stroke-width="1" font-size="16" >N</text>
<text x="205.311568" y="189.986135" fill="rgb(12,12,255)"  stroke="rgb(12,12,255)" stroke-width="1" font-size="16" >N</text>
<text x="198.069624" y="56.362277" fill="rgb(255,12,12)"  stroke="rgb(255,12,12)" stroke-width="1" font-size="16" >O</text>
<text x="261.361909" y="84.541818" fill="rgb(12,12,255)"  stroke="rgb(12,12,255)" stroke-width="1" font-size="16" >N</text>
</svg>
</g>
<text font-size="18.000000" fill ="black" font-family="sans-serif"
x="10.000000" y="20.000000" ></text>
</svg>
