<?xml version="1.0"?>
<svg version="1.1" id="topsvg"
xmlns="http://www.w3.org/2000/svg" xmlns:xlink="http://www.w3.org/1999/xlink"
xmlns:cml="http://www.xml-cml.org/schema" x="0" y="0" width="200px" height="200px" viewBox="0 0 100 100">
<title> - Open Babel Depiction</title>
<rect x="0" y="0" width="100" height="100" fill="white"/>
<g transform="translate(0,0)">
<svg width="100" height="100" x="0" y="0" viewBox="0 0 842.102 340"
font-family="sans-serif" stroke="rgb(0,0,0)" stroke-width="2"  stroke-linecap="round">
<line x1="802.1" y1="87.0" x2="802.1" y2="60.0" stroke="rgb(0,0,0)"  stroke-width="2.0"/>
<line x1="802.1" y1="60.0" x2="778.7" y2="46.5" stroke="rgb(0,0,0)"  stroke-width="2.0"/>
<line x1="756.2" y1="46.5" x2="732.8" y2="60.0" stroke="rgb(0,0,0)"  stroke-width="2.0"/>
<line x1="663.5" y1="100.0" x2="640.2" y2="113.5" stroke="rgb(0,0,0)"  stroke-width="2.0"/>
<line x1="616.1" y1="116.1" x2="607.0" y2="103.9" stroke="rgb(0,0,0)"  stroke-width="2.0"/>
<line x1="619.1" y1="110.9" x2="604.0" y2="109.1" stroke="rgb(0,0,0)"  stroke-width="2.0"/>
<line x1="583.0" y1="106.5" x2="559.6" y2="120.0" stroke="rgb(0,0,0)"  stroke-width="2.0"/>
<line x1="490.3" y1="160.0" x2="455.7" y2="180.0" stroke="rgb(0,0,0)"  stroke-width="2.0"/>
<line x1="454.2" y1="182.6" x2="422.6" y2="157.4" stroke="rgb(0,0,0)"  stroke-width="2.0"/>
<line x1="457.2" y1="177.4" x2="419.6" y2="162.6" stroke="rgb(0,0,0)"  stroke-width="2.0"/>
<line x1="421.1" y1="160.0" x2="386.4" y2="180.0" stroke="rgb(0,0,0)"  stroke-width="2.0"/>
<line x1="317.1" y1="220.0" x2="293.7" y2="233.5" stroke="rgb(0,0,0)"  stroke-width="2.0"/>
<line x1="269.7" y1="236.1" x2="260.6" y2="223.9" stroke="rgb(0,0,0)"  stroke-width="2.0"/>
<line x1="272.7" y1="230.9" x2="257.6" y2="229.1" stroke="rgb(0,0,0)"  stroke-width="2.0"/>
<line x1="236.6" y1="226.5" x2="213.2" y2="240.0" stroke="rgb(0,0,0)"  stroke-width="2.0"/>
<line x1="143.9" y1="280.0" x2="120.5" y2="293.5" stroke="rgb(0,0,0)"  stroke-width="2.0"/>
<line x1="98.0" y1="293.5" x2="74.6" y2="280.0" stroke="rgb(0,0,0)"  stroke-width="2.0"/>
<line x1="74.6" y1="280.0" x2="51.3" y2="293.5" stroke="rgb(0,0,0)"  stroke-width="2.0"/>
<line x1="351.8" y1="160.0" x2="351.8" y2="133.0" stroke="rgb(0,0,0)"  stroke-width="2.0"/>
<line x1="364.8" y1="117.0" x2="378.8" y2="117.0" stroke="rgb(0,0,0)"  stroke-width="2.0"/>
<line x1="364.8" y1="123.0" x2="378.8" y2="123.0" stroke="rgb(0,0,0)"  stroke-width="2.0"/>
<line x1="348.8" y1="107.0" x2="348.8" y2="93.0" stroke="rgb(0,0,0)"  stroke-width="2.0"/>
<line x1="354.8" y1="107.0" x2="354.8" y2="93.0" stroke="rgb(0,0,0)"  stroke-width="2.0"/>
<line x1="338.8" y1="120.0" x2="324.8" y2="120.0" stroke="rgb(0,0,0)"  stroke-width="2.0"/>
<line x1="490.3" y1="120.0" x2="467.0" y2="106.5" stroke="rgb(0,0,0)"  stroke-width="2.0"/>
<line x1="459.6" y1="87.2" x2="466.6" y2="75.1" stroke="rgb(0,0,0)"  stroke-width="2.0"/>
<line x1="464.8" y1="90.2" x2="471.8" y2="78.1" stroke="rgb(0,0,0)"  stroke-width="2.0"/>
<line x1="442.9" y1="96.1" x2="430.8" y2="89.1" stroke="rgb(0,0,0)"  stroke-width="2.0"/>
<line x1="445.9" y1="90.9" x2="433.8" y2="83.9" stroke="rgb(0,0,0)"  stroke-width="2.0"/>
<line x1="449.2" y1="111.3" x2="442.2" y2="123.4" stroke="rgb(0,0,0)"  stroke-width="2.0"/>
<line x1="698.2" y1="120.0" x2="663.5" y2="100.0" stroke="rgb(0,0,0)"  stroke-width="2.0"/>
<line x1="696.6" y1="110.8" x2="672.3" y2="96.8" stroke="rgb(0,0,0)"  stroke-width="2.0"/>
<line x1="663.5" y1="100.0" x2="663.5" y2="60.0" stroke="rgb(0,0,0)"  stroke-width="2.0"/>
<line x1="663.5" y1="60.0" x2="698.2" y2="40.0" stroke="rgb(0,0,0)"  stroke-width="2.0"/>
<line x1="672.3" y1="63.2" x2="696.6" y2="49.2" stroke="rgb(0,0,0)"  stroke-width="2.0"/>
<line x1="698.2" y1="40.0" x2="732.8" y2="60.0" stroke="rgb(0,0,0)"  stroke-width="2.0"/>
<line x1="732.8" y1="60.0" x2="732.8" y2="100.0" stroke="rgb(0,0,0)"  stroke-width="2.0"/>
<line x1="725.6" y1="66.0" x2="725.6" y2="94.0" stroke="rgb(0,0,0)"  stroke-width="2.0"/>
<line x1="732.8" y1="100.0" x2="698.2" y2="120.0" stroke="rgb(0,0,0)"  stroke-width="2.0"/>
<line x1="525.0" y1="180.0" x2="490.3" y2="160.0" stroke="rgb(0,0,0)"  stroke-width="2.0"/>
<line x1="523.4" y1="170.8" x2="499.1" y2="156.8" stroke="rgb(0,0,0)"  stroke-width="2.0"/>
<line x1="490.3" y1="160.0" x2="490.3" y2="120.0" stroke="rgb(0,0,0)"  stroke-width="2.0"/>
<line x1="490.3" y1="120.0" x2="525.0" y2="100.0" stroke="rgb(0,0,0)"  stroke-width="2.0"/>
<line x1="499.1" y1="123.2" x2="523.4" y2="109.2" stroke="rgb(0,0,0)"  stroke-width="2.0"/>
<line x1="525.0" y1="100.0" x2="559.6" y2="120.0" stroke="rgb(0,0,0)"  stroke-width="2.0"/>
<line x1="559.6" y1="120.0" x2="559.6" y2="160.0" stroke="rgb(0,0,0)"  stroke-width="2.0"/>
<line x1="552.4" y1="126.0" x2="552.4" y2="154.0" stroke="rgb(0,0,0)"  stroke-width="2.0"/>
<line x1="559.6" y1="160.0" x2="525.0" y2="180.0" stroke="rgb(0,0,0)"  stroke-width="2.0"/>
<line x1="351.8" y1="240.0" x2="317.1" y2="220.0" stroke="rgb(0,0,0)"  stroke-width="2.0"/>
<line x1="350.2" y1="230.8" x2="325.9" y2="216.8" stroke="rgb(0,0,0)"  stroke-width="2.0"/>
<line x1="317.1" y1="220.0" x2="317.1" y2="180.0" stroke="rgb(0,0,0)"  stroke-width="2.0"/>
<line x1="317.1" y1="180.0" x2="351.8" y2="160.0" stroke="rgb(0,0,0)"  stroke-width="2.0"/>
<line x1="325.9" y1="183.2" x2="350.2" y2="169.2" stroke="rgb(0,0,0)"  stroke-width="2.0"/>
<line x1="351.8" y1="160.0" x2="386.4" y2="180.0" stroke="rgb(0,0,0)"  stroke-width="2.0"/>
<line x1="386.4" y1="180.0" x2="386.4" y2="220.0" stroke="rgb(0,0,0)"  stroke-width="2.0"/>
<line x1="379.2" y1="186.0" x2="379.2" y2="214.0" stroke="rgb(0,0,0)"  stroke-width="2.0"/>
<line x1="386.4" y1="220.0" x2="351.8" y2="240.0" stroke="rgb(0,0,0)"  stroke-width="2.0"/>
<line x1="178.6" y1="300.0" x2="143.9" y2="280.0" stroke="rgb(0,0,0)"  stroke-width="2.0"/>
<line x1="177.0" y1="290.8" x2="152.7" y2="276.8" stroke="rgb(0,0,0)"  stroke-width="2.0"/>
<line x1="143.9" y1="280.0" x2="143.9" y2="240.0" stroke="rgb(0,0,0)"  stroke-width="2.0"/>
<line x1="143.9" y1="240.0" x2="178.6" y2="220.0" stroke="rgb(0,0,0)"  stroke-width="2.0"/>
<line x1="152.7" y1="243.2" x2="177.0" y2="229.2" stroke="rgb(0,0,0)"  stroke-width="2.0"/>
<line x1="178.6" y1="220.0" x2="213.2" y2="240.0" stroke="rgb(0,0,0)"  stroke-width="2.0"/>
<line x1="213.2" y1="240.0" x2="213.2" y2="280.0" stroke="rgb(0,0,0)"  stroke-width="2.0"/>
<line x1="206.0" y1="246.0" x2="206.0" y2="274.0" stroke="rgb(0,0,0)"  stroke-width="2.0"/>
<line x1="213.2" y1="280.0" x2="178.6" y2="300.0" stroke="rgb(0,0,0)"  stroke-width="2.0"/>
<text x="385.769145" y="128.000000" fill="rgb(255,12,12)"  stroke="rgb(255,12,12)" stroke-width="1" font-size="16" >O</text>
<text x="103.282032" y="308.000000" fill="rgb(255,12,12)"  stroke="rgb(255,12,12)" stroke-width="1" font-size="16" >O</text>
<text x="14.000000" y="308.000000" fill="rgb(102,102,102)"  stroke="rgb(102,102,102)" stroke-width="1" font-size="16" >H</text>
<text x="26.000000" y="311.680000" fill="rgb(102,102,102)"  stroke="rgb(102,102,102)" stroke-width="1" font-size="13" >3</text>
<text x="32.500000" y="308.000000" fill="rgb(102,102,102)"  stroke="rgb(102,102,102)" stroke-width="1" font-size="16" >C</text>
<text x="345.769145" y="128.000000" fill="rgb(178,178,0)"  stroke="rgb(178,178,0)" stroke-width="1" font-size="16" >S</text>
<text x="345.769145" y="88.000000" fill="rgb(255,12,12)"  stroke="rgb(255,12,12)" stroke-width="1" font-size="16" >O</text>
<text x="316.569145" y="105.888000" fill="rgb(255,12,12)"  stroke="rgb(255,12,12)" stroke-width="1" font-size="16" >_</text>
<text x="305.769145" y="128.000000" fill="rgb(255,12,12)"  stroke="rgb(255,12,12)" stroke-width="1" font-size="16" >O</text>
<text x="449.692194" y="108.000000" fill="rgb(178,178,0)"  stroke="rgb(178,178,0)" stroke-width="1" font-size="16" >S</text>
<text x="469.692194" y="73.358984" fill="rgb(255,12,12)"  stroke="rgb(255,12,12)" stroke-width="1" font-size="16" >O</text>
<text x="415.051178" y="88.000000" fill="rgb(255,12,12)"  stroke="rgb(255,12,12)" stroke-width="1" font-size="16" >O</text>
<text x="440.492194" y="120.529016" fill="rgb(255,12,12)"  stroke="rgb(255,12,12)" stroke-width="1" font-size="16" >_</text>
<text x="429.692194" y="142.641016" fill="rgb(255,12,12)"  stroke="rgb(255,12,12)" stroke-width="1" font-size="16" >O</text>
<text x="761.461339" y="48.000000" fill="rgb(255,12,12)"  stroke="rgb(255,12,12)" stroke-width="1" font-size="16" >O</text>
<text x="622.897275" y="128.000000" fill="rgb(12,12,255)"  stroke="rgb(12,12,255)" stroke-width="1" font-size="16" >N</text>
<text x="588.256258" y="108.000000" fill="rgb(12,12,255)"  stroke="rgb(12,12,255)" stroke-width="1" font-size="16" >N</text>
<text x="798.102355" y="108.000000" fill="rgb(102,102,102)"  stroke="rgb(102,102,102)" stroke-width="1" font-size="16" >CH</text>
<text x="822.102355" y="111.680000" fill="rgb(102,102,102)"  stroke="rgb(102,102,102)" stroke-width="1" font-size="13" >3</text>
<text x="276.487113" y="248.000000" fill="rgb(12,12,255)"  stroke="rgb(12,12,255)" stroke-width="1" font-size="16" >N</text>
<text x="241.846097" y="228.000000" fill="rgb(12,12,255)"  stroke="rgb(12,12,255)" stroke-width="1" font-size="16" >N</text>
</svg>
</g>
<text font-size="18.000000" fill ="black" font-family="sans-serif"
x="10.000000" y="20.000000" ></text>
</svg>
