<?xml version="1.0"?>
<svg version="1.1" id="topsvg"
xmlns="http://www.w3.org/2000/svg" xmlns:xlink="http://www.w3.org/1999/xlink"
xmlns:cml="http://www.xml-cml.org/schema" x="0" y="0" width="200px" height="200px" viewBox="0 0 100 100">
<title> - Open Babel Depiction</title>
<rect x="0" y="0" width="100" height="100" fill="white"/>
<g transform="translate(0,0)">
<svg width="100" height="100" x="0" y="0" viewBox="0 0 362.487 269.282"
font-family="sans-serif" stroke="rgb(0,0,0)" stroke-width="2"  stroke-linecap="round">
<line x1="282.5" y1="87.6" x2="282.5" y2="114.6" stroke="rgb(0,0,0)"  stroke-width="2.0"/>
<line x1="282.5" y1="114.6" x2="296.0" y2="138.0" stroke="rgb(0,0,0)"  stroke-width="2.0"/>
<line x1="282.5" y1="114.6" x2="309.5" y2="114.6" stroke="rgb(0,0,0)"  stroke-width="2.0"/>
<line x1="282.5" y1="114.6" x2="259.1" y2="128.1" stroke="rgb(0,0,0)"  stroke-width="2.0"/>
<line x1="236.6" y1="128.1" x2="224.5" y2="121.1" stroke="rgb(0,0,0)"  stroke-width="2.0"/>
<line x1="213.2" y1="101.6" x2="213.2" y2="74.6" stroke="rgb(0,0,0)"  stroke-width="2.0"/>
<line x1="213.2" y1="74.6" x2="226.7" y2="51.3" stroke="rgb(0,0,0)"  stroke-width="2.0"/>
<line x1="213.2" y1="74.6" x2="240.2" y2="74.6" stroke="rgb(0,0,0)"  stroke-width="2.0"/>
<line x1="213.2" y1="74.6" x2="178.6" y2="54.6" stroke="rgb(0,0,0)"  stroke-width="2.0"/>
<line x1="178.6" y1="54.6" x2="143.9" y2="74.6" stroke="rgb(0,0,0)"  stroke-width="2.0"/>
<line x1="143.9" y1="74.6" x2="143.9" y2="114.6" stroke="rgb(0,0,0)"  stroke-width="2.0"/>
<line x1="143.9" y1="114.6" x2="157.4" y2="138.0" stroke="rgb(0,0,0)"  stroke-width="2.0"/>
<line x1="143.9" y1="114.6" x2="170.9" y2="114.6" stroke="rgb(0,0,0)"  stroke-width="2.0"/>
<line x1="143.9" y1="114.6" x2="120.5" y2="128.1" stroke="rgb(0,0,0)"  stroke-width="2.0"/>
<line x1="109.3" y1="147.6" x2="109.3" y2="161.6" stroke="rgb(0,0,0)"  stroke-width="2.0"/>
<line x1="98.0" y1="181.1" x2="74.6" y2="194.6" stroke="rgb(0,0,0)"  stroke-width="2.0"/>
<line x1="74.6" y1="194.6" x2="61.1" y2="218.0" stroke="rgb(0,0,0)"  stroke-width="2.0"/>
<line x1="74.6" y1="194.6" x2="88.1" y2="218.0" stroke="rgb(0,0,0)"  stroke-width="2.0"/>
<line x1="74.6" y1="194.6" x2="51.3" y2="181.1" stroke="rgb(0,0,0)"  stroke-width="2.0"/>
<text x="14.000000" y="182.641016" fill="rgb(102,102,102)"  stroke="rgb(102,102,102)" stroke-width="1" font-size="16" >H</text>
<text x="26.000000" y="186.321016" fill="rgb(102,102,102)"  stroke="rgb(102,102,102)" stroke-width="1" font-size="13" >3</text>
<text x="32.500000" y="182.641016" fill="rgb(102,102,102)"  stroke="rgb(102,102,102)" stroke-width="1" font-size="16" >C</text>
<text x="90.641016" y="237.282032" fill="rgb(102,102,102)"  stroke="rgb(102,102,102)" stroke-width="1" font-size="16" >CH</text>
<text x="114.641016" y="240.962032" fill="rgb(102,102,102)"  stroke="rgb(102,102,102)" stroke-width="1" font-size="13" >3</text>
<text x="28.641016" y="237.282032" fill="rgb(102,102,102)"  stroke="rgb(102,102,102)" stroke-width="1" font-size="16" >H</text>
<text x="40.641016" y="240.962032" fill="rgb(102,102,102)"  stroke="rgb(102,102,102)" stroke-width="1" font-size="13" >3</text>
<text x="47.141016" y="237.282032" fill="rgb(102,102,102)"  stroke="rgb(102,102,102)" stroke-width="1" font-size="16" >C</text>
<text x="103.282032" y="182.641016" fill="rgb(255,12,12)"  stroke="rgb(255,12,12)" stroke-width="1" font-size="16" >O</text>
<text x="103.282032" y="142.641016" fill="rgb(255,12,12)"  stroke="rgb(255,12,12)" stroke-width="1" font-size="16" >O</text>
<text x="179.923048" y="122.641016" fill="rgb(102,102,102)"  stroke="rgb(102,102,102)" stroke-width="1" font-size="16" >CH</text>
<text x="203.923048" y="126.321016" fill="rgb(102,102,102)"  stroke="rgb(102,102,102)" stroke-width="1" font-size="13" >3</text>
<text x="159.923048" y="157.282032" fill="rgb(102,102,102)"  stroke="rgb(102,102,102)" stroke-width="1" font-size="16" >CH</text>
<text x="183.923048" y="160.962032" fill="rgb(102,102,102)"  stroke="rgb(102,102,102)" stroke-width="1" font-size="13" >3</text>
<text x="278.487113" y="82.641016" fill="rgb(102,102,102)"  stroke="rgb(102,102,102)" stroke-width="1" font-size="16" >CH</text>
<text x="302.487113" y="86.321016" fill="rgb(102,102,102)"  stroke="rgb(102,102,102)" stroke-width="1" font-size="13" >3</text>
<text x="249.205081" y="82.641016" fill="rgb(102,102,102)"  stroke="rgb(102,102,102)" stroke-width="1" font-size="16" >CH</text>
<text x="273.205081" y="86.321016" fill="rgb(102,102,102)"  stroke="rgb(102,102,102)" stroke-width="1" font-size="13" >3</text>
<text x="229.205081" y="48.000000" fill="rgb(102,102,102)"  stroke="rgb(102,102,102)" stroke-width="1" font-size="16" >CH</text>
<text x="253.205081" y="51.680000" fill="rgb(102,102,102)"  stroke="rgb(102,102,102)" stroke-width="1" font-size="13" >3</text>
<text x="207.205081" y="122.641016" fill="rgb(255,12,12)"  stroke="rgb(255,12,12)" stroke-width="1" font-size="16" >O</text>
<text x="241.846097" y="142.641016" fill="rgb(255,12,12)"  stroke="rgb(255,12,12)" stroke-width="1" font-size="16" >O</text>
<text x="318.487113" y="122.641016" fill="rgb(102,102,102)"  stroke="rgb(102,102,102)" stroke-width="1" font-size="16" >CH</text>
<text x="342.487113" y="126.321016" fill="rgb(102,102,102)"  stroke="rgb(102,102,102)" stroke-width="1" font-size="13" >3</text>
<text x="298.487113" y="157.282032" fill="rgb(102,102,102)"  stroke="rgb(102,102,102)" stroke-width="1" font-size="16" >CH</text>
<text x="322.487113" y="160.962032" fill="rgb(102,102,102)"  stroke="rgb(102,102,102)" stroke-width="1" font-size="13" >3</text>
</svg>
</g>
<text font-size="18.000000" fill ="black" font-family="sans-serif"
x="10.000000" y="20.000000" ></text>
</svg>
