<?xml version="1.0"?>
<svg version="1.1" id="topsvg"
xmlns="http://www.w3.org/2000/svg" xmlns:xlink="http://www.w3.org/1999/xlink"
xmlns:cml="http://www.xml-cml.org/schema" x="0" y="0" width="200px" height="200px" viewBox="0 0 100 100">
<title> - Open Babel Depiction</title>
<rect x="0" y="0" width="100" height="100" fill="white"/>
<g transform="translate(0,0)">
<svg width="100" height="100" x="0" y="0" viewBox="0 0 760 357.128"
font-family="sans-serif" stroke="rgb(0,0,0)" stroke-width="2"  stroke-linecap="round">
<line x1="53.0" y1="140.9" x2="80.0" y2="140.9" stroke="rgb(0,0,0)"  stroke-width="2.0"/>
<line x1="53.0" y1="146.9" x2="80.0" y2="146.9" stroke="rgb(0,0,0)"  stroke-width="2.0"/>
<line x1="80.0" y1="143.9" x2="93.5" y2="167.3" stroke="rgb(0,0,0)"  stroke-width="2.0"/>
<line x1="113.0" y1="178.6" x2="140.0" y2="178.6" stroke="rgb(0,0,0)"  stroke-width="2.0"/>
<line x1="260.0" y1="178.6" x2="273.5" y2="155.2" stroke="rgb(0,0,0)"  stroke-width="2.0"/>
<line x1="280.0" y1="213.2" x2="307.0" y2="213.2" stroke="rgb(0,0,0)"  stroke-width="2.0"/>
<line x1="323.9" y1="200.4" x2="336.1" y2="191.3" stroke="rgb(0,0,0)"  stroke-width="2.0"/>
<line x1="329.1" y1="203.4" x2="330.9" y2="188.3" stroke="rgb(0,0,0)"  stroke-width="2.0"/>
<line x1="353.0" y1="178.6" x2="380.0" y2="178.6" stroke="rgb(0,0,0)"  stroke-width="2.0"/>
<line x1="460.0" y1="178.6" x2="487.0" y2="178.6" stroke="rgb(0,0,0)"  stroke-width="2.0"/>
<line x1="503.9" y1="165.8" x2="516.1" y2="156.7" stroke="rgb(0,0,0)"  stroke-width="2.0"/>
<line x1="509.1" y1="168.8" x2="510.9" y2="153.7" stroke="rgb(0,0,0)"  stroke-width="2.0"/>
<line x1="533.0" y1="143.9" x2="560.0" y2="143.9" stroke="rgb(0,0,0)"  stroke-width="2.0"/>
<line x1="640.0" y1="143.9" x2="667.0" y2="143.9" stroke="rgb(0,0,0)"  stroke-width="2.0"/>
<line x1="683.0" y1="156.9" x2="683.0" y2="170.9" stroke="rgb(0,0,0)"  stroke-width="2.0"/>
<line x1="677.0" y1="156.9" x2="677.0" y2="170.9" stroke="rgb(0,0,0)"  stroke-width="2.0"/>
<line x1="693.0" y1="140.9" x2="707.0" y2="140.9" stroke="rgb(0,0,0)"  stroke-width="2.0"/>
<line x1="693.0" y1="146.9" x2="707.0" y2="146.9" stroke="rgb(0,0,0)"  stroke-width="2.0"/>
<line x1="680.0" y1="130.9" x2="680.0" y2="116.9" stroke="rgb(0,0,0)"  stroke-width="2.0"/>
<line x1="260.0" y1="247.8" x2="273.5" y2="271.2" stroke="rgb(0,0,0)"  stroke-width="2.0"/>
<line x1="270.2" y1="291.6" x2="258.1" y2="298.6" stroke="rgb(0,0,0)"  stroke-width="2.0"/>
<line x1="267.2" y1="286.4" x2="255.1" y2="293.4" stroke="rgb(0,0,0)"  stroke-width="2.0"/>
<line x1="289.1" y1="292.2" x2="296.1" y2="304.4" stroke="rgb(0,0,0)"  stroke-width="2.0"/>
<line x1="283.9" y1="295.2" x2="290.9" y2="307.4" stroke="rgb(0,0,0)"  stroke-width="2.0"/>
<line x1="291.3" y1="276.0" x2="303.4" y2="269.0" stroke="rgb(0,0,0)"  stroke-width="2.0"/>
<line x1="80.0" y1="143.9" x2="100.0" y2="109.3" stroke="rgb(0,0,0)"  stroke-width="2.0"/>
<line x1="200.0" y1="143.9" x2="220.0" y2="178.6" stroke="rgb(0,0,0)"  stroke-width="2.0"/>
<line x1="196.8" y1="152.7" x2="210.8" y2="177.0" stroke="rgb(0,0,0)"  stroke-width="2.0"/>
<line x1="220.0" y1="178.6" x2="200.0" y2="213.2" stroke="rgb(0,0,0)"  stroke-width="2.0"/>
<line x1="200.0" y1="213.2" x2="160.0" y2="213.2" stroke="rgb(0,0,0)"  stroke-width="2.0"/>
<line x1="194.0" y1="206.0" x2="166.0" y2="206.0" stroke="rgb(0,0,0)"  stroke-width="2.0"/>
<line x1="160.0" y1="213.2" x2="140.0" y2="178.6" stroke="rgb(0,0,0)"  stroke-width="2.0"/>
<line x1="140.0" y1="178.6" x2="160.0" y2="143.9" stroke="rgb(0,0,0)"  stroke-width="2.0"/>
<line x1="149.2" y1="177.0" x2="163.2" y2="152.7" stroke="rgb(0,0,0)"  stroke-width="2.0"/>
<line x1="160.0" y1="143.9" x2="200.0" y2="143.9" stroke="rgb(0,0,0)"  stroke-width="2.0"/>
<line x1="260.0" y1="247.8" x2="220.0" y2="247.8" stroke="rgb(0,0,0)"  stroke-width="2.0"/>
<line x1="254.0" y1="240.6" x2="226.0" y2="240.6" stroke="rgb(0,0,0)"  stroke-width="2.0"/>
<line x1="220.0" y1="247.8" x2="200.0" y2="213.2" stroke="rgb(0,0,0)"  stroke-width="2.0"/>
<line x1="220.0" y1="178.6" x2="260.0" y2="178.6" stroke="rgb(0,0,0)"  stroke-width="2.0"/>
<line x1="260.0" y1="178.6" x2="280.0" y2="213.2" stroke="rgb(0,0,0)"  stroke-width="2.0"/>
<line x1="256.8" y1="187.4" x2="270.8" y2="211.6" stroke="rgb(0,0,0)"  stroke-width="2.0"/>
<line x1="280.0" y1="213.2" x2="260.0" y2="247.8" stroke="rgb(0,0,0)"  stroke-width="2.0"/>
<line x1="440.0" y1="143.9" x2="460.0" y2="178.6" stroke="rgb(0,0,0)"  stroke-width="2.0"/>
<line x1="436.8" y1="152.7" x2="450.8" y2="177.0" stroke="rgb(0,0,0)"  stroke-width="2.0"/>
<line x1="460.0" y1="178.6" x2="440.0" y2="213.2" stroke="rgb(0,0,0)"  stroke-width="2.0"/>
<line x1="440.0" y1="213.2" x2="400.0" y2="213.2" stroke="rgb(0,0,0)"  stroke-width="2.0"/>
<line x1="434.0" y1="206.0" x2="406.0" y2="206.0" stroke="rgb(0,0,0)"  stroke-width="2.0"/>
<line x1="400.0" y1="213.2" x2="380.0" y2="178.6" stroke="rgb(0,0,0)"  stroke-width="2.0"/>
<line x1="380.0" y1="178.6" x2="400.0" y2="143.9" stroke="rgb(0,0,0)"  stroke-width="2.0"/>
<line x1="389.2" y1="177.0" x2="403.2" y2="152.7" stroke="rgb(0,0,0)"  stroke-width="2.0"/>
<line x1="400.0" y1="143.9" x2="440.0" y2="143.9" stroke="rgb(0,0,0)"  stroke-width="2.0"/>
<line x1="620.0" y1="109.3" x2="640.0" y2="143.9" stroke="rgb(0,0,0)"  stroke-width="2.0"/>
<line x1="616.8" y1="118.1" x2="630.8" y2="142.3" stroke="rgb(0,0,0)"  stroke-width="2.0"/>
<line x1="640.0" y1="143.9" x2="620.0" y2="178.6" stroke="rgb(0,0,0)"  stroke-width="2.0"/>
<line x1="620.0" y1="178.6" x2="580.0" y2="178.6" stroke="rgb(0,0,0)"  stroke-width="2.0"/>
<line x1="614.0" y1="171.4" x2="586.0" y2="171.4" stroke="rgb(0,0,0)"  stroke-width="2.0"/>
<line x1="580.0" y1="178.6" x2="560.0" y2="143.9" stroke="rgb(0,0,0)"  stroke-width="2.0"/>
<line x1="560.0" y1="143.9" x2="580.0" y2="109.3" stroke="rgb(0,0,0)"  stroke-width="2.0"/>
<line x1="569.2" y1="142.3" x2="583.2" y2="118.1" stroke="rgb(0,0,0)"  stroke-width="2.0"/>
<line x1="580.0" y1="109.3" x2="620.0" y2="109.3" stroke="rgb(0,0,0)"  stroke-width="2.0"/>
<line x1="100.0" y1="40.0" x2="140.0" y2="40.0" stroke="rgb(0,0,0)"  stroke-width="2.0"/>
<line x1="106.0" y1="47.2" x2="134.0" y2="47.2" stroke="rgb(0,0,0)"  stroke-width="2.0"/>
<line x1="140.0" y1="40.0" x2="160.0" y2="74.6" stroke="rgb(0,0,0)"  stroke-width="2.0"/>
<line x1="160.0" y1="74.6" x2="140.0" y2="109.3" stroke="rgb(0,0,0)"  stroke-width="2.0"/>
<line x1="150.8" y1="76.2" x2="136.8" y2="100.5" stroke="rgb(0,0,0)"  stroke-width="2.0"/>
<line x1="140.0" y1="109.3" x2="100.0" y2="109.3" stroke="rgb(0,0,0)"  stroke-width="2.0"/>
<line x1="100.0" y1="109.3" x2="80.0" y2="74.6" stroke="rgb(0,0,0)"  stroke-width="2.0"/>
<line x1="103.2" y1="100.5" x2="89.2" y2="76.2" stroke="rgb(0,0,0)"  stroke-width="2.0"/>
<line x1="80.0" y1="74.6" x2="100.0" y2="40.0" stroke="rgb(0,0,0)"  stroke-width="2.0"/>
<text x="294.000000" y="325.128129" fill="rgb(255,12,12)"  stroke="rgb(255,12,12)" stroke-width="1" font-size="16" >O</text>
<text x="674.000000" y="191.923048" fill="rgb(255,12,12)"  stroke="rgb(255,12,12)" stroke-width="1" font-size="16" >O</text>
<text x="714.000000" y="151.923048" fill="rgb(255,12,12)"  stroke="rgb(255,12,12)" stroke-width="1" font-size="16" >O</text>
<text x="684.800000" y="89.811048" fill="rgb(255,12,12)"  stroke="rgb(255,12,12)" stroke-width="1" font-size="16" >_</text>
<text x="674.000000" y="111.923048" fill="rgb(255,12,12)"  stroke="rgb(255,12,12)" stroke-width="1" font-size="16" >O</text>
<text x="274.000000" y="290.487113" fill="rgb(178,178,0)"  stroke="rgb(178,178,0)" stroke-width="1" font-size="16" >S</text>
<text x="239.358984" y="310.487113" fill="rgb(255,12,12)"  stroke="rgb(255,12,12)" stroke-width="1" font-size="16" >O</text>
<text x="674.000000" y="151.923048" fill="rgb(178,178,0)"  stroke="rgb(178,178,0)" stroke-width="1" font-size="16" >S</text>
<text x="319.441016" y="248.375113" fill="rgb(255,12,12)"  stroke="rgb(255,12,12)" stroke-width="1" font-size="16" >_</text>
<text x="308.641016" y="270.487113" fill="rgb(255,12,12)"  stroke="rgb(255,12,12)" stroke-width="1" font-size="16" >O</text>
<text x="334.000000" y="186.564065" fill="rgb(12,12,255)"  stroke="rgb(12,12,255)" stroke-width="1" font-size="16" >N</text>
<text x="94.000000" y="186.564065" fill="rgb(12,12,255)"  stroke="rgb(12,12,255)" stroke-width="1" font-size="16" >N</text>
<text x="94.000000" y="202.564065" fill="rgb(12,12,255)"  stroke="rgb(12,12,255)" stroke-width="1" font-size="16" >H</text>
<text x="274.000000" y="151.923048" fill="rgb(255,12,12)"  stroke="rgb(255,12,12)" stroke-width="1" font-size="16" >OH</text>
<text x="314.000000" y="221.205081" fill="rgb(12,12,255)"  stroke="rgb(12,12,255)" stroke-width="1" font-size="16" >N</text>
<text x="34.000000" y="151.923048" fill="rgb(255,12,12)"  stroke="rgb(255,12,12)" stroke-width="1" font-size="16" >O</text>
<text x="494.000000" y="186.564065" fill="rgb(12,12,255)"  stroke="rgb(12,12,255)" stroke-width="1" font-size="16" >N</text>
<text x="514.000000" y="151.923048" fill="rgb(12,12,255)"  stroke="rgb(12,12,255)" stroke-width="1" font-size="16" >N</text>
</svg>
</g>
<text font-size="18.000000" fill ="black" font-family="sans-serif"
x="10.000000" y="20.000000" ></text>
</svg>
