<?xml version="1.0"?>
<svg version="1.1" id="topsvg"
xmlns="http://www.w3.org/2000/svg" xmlns:xlink="http://www.w3.org/1999/xlink"
xmlns:cml="http://www.xml-cml.org/schema" x="0" y="0" width="200px" height="200px" viewBox="0 0 100 100">
<title> - Open Babel Depiction</title>
<rect x="0" y="0" width="100" height="100" fill="white"/>
<g transform="translate(0,0)">
<svg width="100" height="100" x="0" y="0" viewBox="0 0 470.836 288.967"
font-family="sans-serif" stroke="rgb(0,0,0)" stroke-width="2"  stroke-linecap="round">
<line x1="152.8" y1="169.4" x2="144.5" y2="143.7" stroke="rgb(0,0,0)"  stroke-width="2.0"/>
<line x1="158.5" y1="167.5" x2="150.2" y2="141.8" stroke="rgb(0,0,0)"  stroke-width="2.0"/>
<line x1="144.5" y1="77.1" x2="152.8" y2="51.4" stroke="rgb(0,0,0)"  stroke-width="2.0"/>
<line x1="150.2" y1="79.0" x2="158.5" y2="53.3" stroke="rgb(0,0,0)"  stroke-width="2.0"/>
<line x1="170.8" y1="110.4" x2="210.8" y2="110.4" stroke="rgb(0,0,0)"  stroke-width="2.0"/>
<line x1="350.8" y1="145.0" x2="377.8" y2="145.0" stroke="rgb(0,0,0)"  stroke-width="2.0"/>
<line x1="393.8" y1="158.0" x2="393.8" y2="172.0" stroke="rgb(0,0,0)"  stroke-width="2.0"/>
<line x1="387.8" y1="158.0" x2="387.8" y2="172.0" stroke="rgb(0,0,0)"  stroke-width="2.0"/>
<line x1="403.8" y1="142.0" x2="417.8" y2="142.0" stroke="rgb(0,0,0)"  stroke-width="2.0"/>
<line x1="403.8" y1="148.0" x2="417.8" y2="148.0" stroke="rgb(0,0,0)"  stroke-width="2.0"/>
<line x1="390.8" y1="132.0" x2="390.8" y2="118.0" stroke="rgb(0,0,0)"  stroke-width="2.0"/>
<line x1="290.8" y1="179.7" x2="277.3" y2="203.1" stroke="rgb(0,0,0)"  stroke-width="2.0"/>
<line x1="258.1" y1="210.4" x2="246.0" y2="203.4" stroke="rgb(0,0,0)"  stroke-width="2.0"/>
<line x1="261.1" y1="205.2" x2="249.0" y2="198.2" stroke="rgb(0,0,0)"  stroke-width="2.0"/>
<line x1="266.9" y1="227.1" x2="259.9" y2="239.2" stroke="rgb(0,0,0)"  stroke-width="2.0"/>
<line x1="261.7" y1="224.1" x2="254.7" y2="236.2" stroke="rgb(0,0,0)"  stroke-width="2.0"/>
<line x1="282.1" y1="220.8" x2="294.2" y2="227.8" stroke="rgb(0,0,0)"  stroke-width="2.0"/>
<line x1="74.6" y1="150.4" x2="40.0" y2="130.4" stroke="rgb(0,0,0)"  stroke-width="2.0"/>
<line x1="40.0" y1="130.4" x2="40.0" y2="90.4" stroke="rgb(0,0,0)"  stroke-width="2.0"/>
<line x1="47.2" y1="124.4" x2="47.2" y2="96.4" stroke="rgb(0,0,0)"  stroke-width="2.0"/>
<line x1="40.0" y1="90.4" x2="74.6" y2="70.4" stroke="rgb(0,0,0)"  stroke-width="2.0"/>
<line x1="74.6" y1="70.4" x2="109.3" y2="90.4" stroke="rgb(0,0,0)"  stroke-width="2.0"/>
<line x1="76.2" y1="79.6" x2="100.5" y2="93.6" stroke="rgb(0,0,0)"  stroke-width="2.0"/>
<line x1="109.3" y1="90.4" x2="109.3" y2="130.4" stroke="rgb(0,0,0)"  stroke-width="2.0"/>
<line x1="109.3" y1="130.4" x2="74.6" y2="150.4" stroke="rgb(0,0,0)"  stroke-width="2.0"/>
<line x1="100.5" y1="127.2" x2="76.2" y2="141.2" stroke="rgb(0,0,0)"  stroke-width="2.0"/>
<line x1="270.8" y1="75.8" x2="290.8" y2="110.4" stroke="rgb(0,0,0)"  stroke-width="2.0"/>
<line x1="267.6" y1="84.6" x2="281.6" y2="108.8" stroke="rgb(0,0,0)"  stroke-width="2.0"/>
<line x1="290.8" y1="110.4" x2="270.8" y2="145.0" stroke="rgb(0,0,0)"  stroke-width="2.0"/>
<line x1="270.8" y1="145.0" x2="244.0" y2="145.0" stroke="rgb(0,0,0)"  stroke-width="2.0"/>
<line x1="264.8" y1="137.8" x2="246.0" y2="137.8" stroke="rgb(0,0,0)"  stroke-width="2.0"/>
<line x1="224.3" y1="133.8" x2="210.8" y2="110.4" stroke="rgb(0,0,0)"  stroke-width="2.0"/>
<line x1="210.8" y1="110.4" x2="230.8" y2="75.8" stroke="rgb(0,0,0)"  stroke-width="2.0"/>
<line x1="220.1" y1="108.8" x2="234.1" y2="84.6" stroke="rgb(0,0,0)"  stroke-width="2.0"/>
<line x1="230.8" y1="75.8" x2="270.8" y2="75.8" stroke="rgb(0,0,0)"  stroke-width="2.0"/>
<line x1="330.8" y1="179.7" x2="290.8" y2="179.7" stroke="rgb(0,0,0)"  stroke-width="2.0"/>
<line x1="324.8" y1="172.5" x2="296.8" y2="172.5" stroke="rgb(0,0,0)"  stroke-width="2.0"/>
<line x1="290.8" y1="179.7" x2="270.8" y2="145.0" stroke="rgb(0,0,0)"  stroke-width="2.0"/>
<line x1="290.8" y1="110.4" x2="330.8" y2="110.4" stroke="rgb(0,0,0)"  stroke-width="2.0"/>
<line x1="330.8" y1="110.4" x2="350.8" y2="145.0" stroke="rgb(0,0,0)"  stroke-width="2.0"/>
<line x1="327.6" y1="119.2" x2="341.6" y2="143.4" stroke="rgb(0,0,0)"  stroke-width="2.0"/>
<line x1="350.8" y1="145.0" x2="330.8" y2="179.7" stroke="rgb(0,0,0)"  stroke-width="2.0"/>
<line x1="109.3" y1="90.4" x2="147.3" y2="78.0" stroke="rgb(0,0,0)"  stroke-width="2.0"/>
<line x1="147.3" y1="78.0" x2="170.8" y2="110.4" stroke="rgb(0,0,0)"  stroke-width="2.0"/>
<line x1="170.8" y1="110.4" x2="147.3" y2="142.8" stroke="rgb(0,0,0)"  stroke-width="2.0"/>
<line x1="147.3" y1="142.8" x2="109.3" y2="130.4" stroke="rgb(0,0,0)"  stroke-width="2.0"/>
<text x="224.835703" y="153.043957" fill="rgb(12,12,255)"  stroke="rgb(12,12,255)" stroke-width="1" font-size="16" >N</text>
<text x="310.276719" y="220.213989" fill="rgb(255,12,12)"  stroke="rgb(255,12,12)" stroke-width="1" font-size="16" >_</text>
<text x="299.476719" y="242.325989" fill="rgb(255,12,12)"  stroke="rgb(255,12,12)" stroke-width="1" font-size="16" >O</text>
<text x="244.835703" y="256.967005" fill="rgb(255,12,12)"  stroke="rgb(255,12,12)" stroke-width="1" font-size="16" >O</text>
<text x="230.194687" y="202.325989" fill="rgb(255,12,12)"  stroke="rgb(255,12,12)" stroke-width="1" font-size="16" >O</text>
<text x="264.835703" y="222.325989" fill="rgb(178,178,0)"  stroke="rgb(178,178,0)" stroke-width="1" font-size="16" >S</text>
<text x="395.635703" y="90.931957" fill="rgb(255,12,12)"  stroke="rgb(255,12,12)" stroke-width="1" font-size="16" >_</text>
<text x="384.835703" y="113.043957" fill="rgb(255,12,12)"  stroke="rgb(255,12,12)" stroke-width="1" font-size="16" >O</text>
<text x="424.835703" y="153.043957" fill="rgb(255,12,12)"  stroke="rgb(255,12,12)" stroke-width="1" font-size="16" >O</text>
<text x="384.835703" y="193.043957" fill="rgb(255,12,12)"  stroke="rgb(255,12,12)" stroke-width="1" font-size="16" >O</text>
<text x="384.835703" y="153.043957" fill="rgb(178,178,0)"  stroke="rgb(178,178,0)" stroke-width="1" font-size="16" >S</text>
<text x="153.684973" y="188.805881" fill="rgb(255,12,12)"  stroke="rgb(255,12,12)" stroke-width="1" font-size="16" >O</text>
<text x="153.684973" y="48.000000" fill="rgb(255,12,12)"  stroke="rgb(255,12,12)" stroke-width="1" font-size="16" >O</text>
</svg>
</g>
<text font-size="18.000000" fill ="black" font-family="sans-serif"
x="10.000000" y="20.000000" ></text>
</svg>
