<?xml version="1.0"?>
<svg version="1.1" id="topsvg"
xmlns="http://www.w3.org/2000/svg" xmlns:xlink="http://www.w3.org/1999/xlink"
xmlns:cml="http://www.xml-cml.org/schema" x="0" y="0" width="200px" height="200px" viewBox="0 0 100 100">
<title> - Open Babel Depiction</title>
<rect x="0" y="0" width="100" height="100" fill="white"/>
<g transform="translate(0,0)">
<svg width="100" height="100" x="0" y="0" viewBox="0 0 223.923 214.641"
font-family="sans-serif" stroke="rgb(0,0,0)" stroke-width="2"  stroke-linecap="round">
<line x1="109.3" y1="161.6" x2="109.3" y2="134.6" stroke="rgb(0,0,0)"  stroke-width="2.0"/>
<line x1="74.6" y1="74.6" x2="51.3" y2="61.1" stroke="rgb(0,0,0)"  stroke-width="2.0"/>
<line x1="143.9" y1="74.6" x2="170.9" y2="74.6" stroke="rgb(0,0,0)"  stroke-width="2.0"/>
<line x1="143.9" y1="74.6" x2="157.4" y2="51.3" stroke="rgb(0,0,0)"  stroke-width="2.0"/>
<line x1="74.6" y1="74.6" x2="109.3" y2="54.6" stroke="rgb(0,0,0)"  stroke-width="2.0"/>
<line x1="109.3" y1="54.6" x2="143.9" y2="74.6" stroke="rgb(0,0,0)"  stroke-width="2.0"/>
<line x1="143.9" y1="74.6" x2="143.9" y2="114.6" stroke="rgb(0,0,0)"  stroke-width="2.0"/>
<line x1="143.9" y1="114.6" x2="109.3" y2="134.6" stroke="rgb(0,0,0)"  stroke-width="2.0"/>
<line x1="109.3" y1="134.6" x2="74.6" y2="114.6" stroke="rgb(0,0,0)"  stroke-width="2.0"/>
<line x1="107.7" y1="125.4" x2="83.4" y2="111.4" stroke="rgb(0,0,0)"  stroke-width="2.0"/>
<line x1="74.6" y1="114.6" x2="74.6" y2="74.6" stroke="rgb(0,0,0)"  stroke-width="2.0"/>
<text x="105.282032" y="182.641016" fill="rgb(102,102,102)"  stroke="rgb(102,102,102)" stroke-width="1" font-size="16" >CH</text>
<text x="129.282032" y="186.321016" fill="rgb(102,102,102)"  stroke="rgb(102,102,102)" stroke-width="1" font-size="13" >3</text>
<text x="22.000000" y="62.641016" fill="rgb(255,12,12)"  stroke="rgb(255,12,12)" stroke-width="1" font-size="16" >HO</text>
<text x="179.923048" y="82.641016" fill="rgb(102,102,102)"  stroke="rgb(102,102,102)" stroke-width="1" font-size="16" >CH</text>
<text x="203.923048" y="86.321016" fill="rgb(102,102,102)"  stroke="rgb(102,102,102)" stroke-width="1" font-size="13" >3</text>
<text x="159.923048" y="48.000000" fill="rgb(102,102,102)"  stroke="rgb(102,102,102)" stroke-width="1" font-size="16" >CH</text>
<text x="183.923048" y="51.680000" fill="rgb(102,102,102)"  stroke="rgb(102,102,102)" stroke-width="1" font-size="13" >3</text>
</svg>
</g>
<text font-size="18.000000" fill ="black" font-family="sans-serif"
x="10.000000" y="20.000000" ></text>
</svg>
