<?xml version="1.0"?>
<svg version="1.1" id="topsvg"
xmlns="http://www.w3.org/2000/svg" xmlns:xlink="http://www.w3.org/1999/xlink"
xmlns:cml="http://www.xml-cml.org/schema" x="0" y="0" width="200px" height="200px" viewBox="0 0 100 100">
<title> - Open Babel Depiction</title>
<rect x="0" y="0" width="100" height="100" fill="white"/>
<g transform="translate(0,0)">
<svg width="100" height="100" x="0" y="0" viewBox="0 0 287.011 248.82"
font-family="sans-serif" stroke="rgb(0,0,0)" stroke-width="2"  stroke-linecap="round">
<line x1="230.4" y1="41.4" x2="203.5" y2="44.2" stroke="rgb(0,0,0)"  stroke-width="2.0"/>
<line x1="203.5" y1="44.2" x2="192.5" y2="68.8" stroke="rgb(0,0,0)"  stroke-width="2.0"/>
<line x1="207.5" y1="112.4" x2="234.4" y2="115.2" stroke="rgb(0,0,0)"  stroke-width="2.0"/>
<line x1="206.9" y1="118.3" x2="233.8" y2="121.2" stroke="rgb(0,0,0)"  stroke-width="2.0"/>
<line x1="143.9" y1="128.8" x2="109.3" y2="148.8" stroke="rgb(0,0,0)"  stroke-width="2.0"/>
<line x1="146.1" y1="91.3" x2="126.0" y2="73.2" stroke="rgb(0,0,0)"  stroke-width="2.0"/>
<line x1="150.1" y1="86.8" x2="130.0" y2="68.7" stroke="rgb(0,0,0)"  stroke-width="2.0"/>
<line x1="74.6" y1="208.8" x2="40.0" y2="188.8" stroke="rgb(0,0,0)"  stroke-width="2.0"/>
<line x1="73.0" y1="199.6" x2="48.8" y2="185.6" stroke="rgb(0,0,0)"  stroke-width="2.0"/>
<line x1="40.0" y1="188.8" x2="40.0" y2="148.8" stroke="rgb(0,0,0)"  stroke-width="2.0"/>
<line x1="40.0" y1="148.8" x2="74.6" y2="128.8" stroke="rgb(0,0,0)"  stroke-width="2.0"/>
<line x1="48.8" y1="152.1" x2="73.0" y2="138.1" stroke="rgb(0,0,0)"  stroke-width="2.0"/>
<line x1="74.6" y1="128.8" x2="109.3" y2="148.8" stroke="rgb(0,0,0)"  stroke-width="2.0"/>
<line x1="109.3" y1="148.8" x2="109.3" y2="188.8" stroke="rgb(0,0,0)"  stroke-width="2.0"/>
<line x1="102.1" y1="154.8" x2="102.1" y2="182.8" stroke="rgb(0,0,0)"  stroke-width="2.0"/>
<line x1="109.3" y1="188.8" x2="74.6" y2="208.8" stroke="rgb(0,0,0)"  stroke-width="2.0"/>
<line x1="168.6" y1="139.8" x2="143.9" y2="128.8" stroke="rgb(0,0,0)"  stroke-width="2.0"/>
<line x1="143.9" y1="128.8" x2="148.1" y2="89.0" stroke="rgb(0,0,0)"  stroke-width="2.0"/>
<line x1="148.1" y1="89.0" x2="174.5" y2="83.4" stroke="rgb(0,0,0)"  stroke-width="2.0"/>
<line x1="193.7" y1="92.0" x2="207.2" y2="115.4" stroke="rgb(0,0,0)"  stroke-width="2.0"/>
<line x1="207.2" y1="115.4" x2="189.2" y2="135.4" stroke="rgb(0,0,0)"  stroke-width="2.0"/>
<text x="239.280433" y="48.000000" fill="rgb(102,102,102)"  stroke="rgb(102,102,102)" stroke-width="1" font-size="16" >CH</text>
<text x="263.280433" y="51.680000" fill="rgb(102,102,102)"  stroke="rgb(102,102,102)" stroke-width="1" font-size="13" >3</text>
<text x="181.230091" y="88.722957" fill="rgb(12,12,255)"  stroke="rgb(12,12,255)" stroke-width="1" font-size="16" >N</text>
<text x="241.010967" y="127.545112" fill="rgb(255,12,12)"  stroke="rgb(255,12,12)" stroke-width="1" font-size="16" >O</text>
<text x="174.464867" y="153.089766" fill="rgb(12,12,255)"  stroke="rgb(12,12,255)" stroke-width="1" font-size="16" >N</text>
<text x="174.464867" y="169.089766" fill="rgb(12,12,255)"  stroke="rgb(12,12,255)" stroke-width="1" font-size="16" >H</text>
<text x="112.378394" y="70.274200" fill="rgb(255,12,12)"  stroke="rgb(255,12,12)" stroke-width="1" font-size="16" >O</text>
</svg>
</g>
<text font-size="18.000000" fill ="black" font-family="sans-serif"
x="10.000000" y="20.000000" ></text>
</svg>
