<?xml version="1.0"?>
<svg version="1.1" id="topsvg"
xmlns="http://www.w3.org/2000/svg" xmlns:xlink="http://www.w3.org/1999/xlink"
xmlns:cml="http://www.xml-cml.org/schema" x="0" y="0" width="200px" height="200px" viewBox="0 0 100 100">
<title> - Open Babel Depiction</title>
<rect x="0" y="0" width="100" height="100" fill="white"/>
<g transform="translate(0,0)">
<svg width="100" height="100" x="0" y="0" viewBox="0 0 331.559 168.875"
font-family="sans-serif" stroke="rgb(0,0,0)" stroke-width="2"  stroke-linecap="round">
<line x1="283.5" y1="91.2" x2="266.6" y2="70.1" stroke="rgb(0,0,0)"  stroke-width="2.0"/>
<line x1="266.6" y1="70.1" x2="239.9" y2="74.1" stroke="rgb(0,0,0)"  stroke-width="2.0"/>
<line x1="79.6" y1="98.3" x2="52.9" y2="102.3" stroke="rgb(0,0,0)"  stroke-width="2.0"/>
<line x1="79.6" y1="98.3" x2="92.0" y2="74.3" stroke="rgb(0,0,0)"  stroke-width="2.0"/>
<line x1="110.8" y1="64.9" x2="137.4" y2="69.3" stroke="rgb(0,0,0)"  stroke-width="2.0"/>
<line x1="137.4" y1="69.3" x2="143.4" y2="108.9" stroke="rgb(0,0,0)"  stroke-width="2.0"/>
<line x1="131.2" y1="76.3" x2="135.4" y2="104.0" stroke="rgb(0,0,0)"  stroke-width="2.0"/>
<line x1="143.4" y1="108.9" x2="119.3" y2="121.0" stroke="rgb(0,0,0)"  stroke-width="2.0"/>
<line x1="98.4" y1="117.4" x2="79.6" y2="98.3" stroke="rgb(0,0,0)"  stroke-width="2.0"/>
<line x1="102.1" y1="110.9" x2="88.9" y2="97.5" stroke="rgb(0,0,0)"  stroke-width="2.0"/>
<line x1="178.0" y1="128.9" x2="143.4" y2="108.9" stroke="rgb(0,0,0)"  stroke-width="2.0"/>
<line x1="137.4" y1="69.3" x2="164.6" y2="40.0" stroke="rgb(0,0,0)"  stroke-width="2.0"/>
<line x1="164.6" y1="40.0" x2="204.5" y2="43.0" stroke="rgb(0,0,0)"  stroke-width="2.0"/>
<line x1="204.5" y1="43.0" x2="219.7" y2="65.3" stroke="rgb(0,0,0)"  stroke-width="2.0"/>
<line x1="223.2" y1="88.5" x2="215.3" y2="114.3" stroke="rgb(0,0,0)"  stroke-width="2.0"/>
<line x1="215.3" y1="114.3" x2="178.0" y2="128.9" stroke="rgb(0,0,0)"  stroke-width="2.0"/>
<text x="287.559244" y="109.350323" fill="rgb(102,102,102)"  stroke="rgb(102,102,102)" stroke-width="1" font-size="16" >CH</text>
<text x="311.559244" y="113.030323" fill="rgb(102,102,102)"  stroke="rgb(102,102,102)" stroke-width="1" font-size="13" >3</text>
<text x="221.066419" y="84.038755" fill="rgb(12,12,255)"  stroke="rgb(12,12,255)" stroke-width="1" font-size="16" >N</text>
<text x="101.625149" y="134.767834" fill="rgb(12,12,255)"  stroke="rgb(12,12,255)" stroke-width="1" font-size="16" >N</text>
<text x="14.000000" y="112.234481" fill="rgb(12,12,255)"  stroke="rgb(12,12,255)" stroke-width="1" font-size="16" >H</text>
<text x="26.000000" y="115.914481" fill="rgb(12,12,255)"  stroke="rgb(12,12,255)" stroke-width="1" font-size="13" >2</text>
<text x="32.500000" y="112.234481" fill="rgb(12,12,255)"  stroke="rgb(12,12,255)" stroke-width="1" font-size="16" >N</text>
<text x="91.978931" y="70.769358" fill="rgb(255,12,12)"  stroke="rgb(255,12,12)" stroke-width="1" font-size="16" >O</text>
</svg>
</g>
<text font-size="18.000000" fill ="black" font-family="sans-serif"
x="10.000000" y="20.000000" ></text>
</svg>
