<?xml version="1.0"?>
<svg version="1.1" id="topsvg"
xmlns="http://www.w3.org/2000/svg" xmlns:xlink="http://www.w3.org/1999/xlink"
xmlns:cml="http://www.xml-cml.org/schema" x="0" y="0" width="200px" height="200px" viewBox="0 0 100 100">
<title> - Open Babel Depiction</title>
<rect x="0" y="0" width="100" height="100" fill="white"/>
<g transform="translate(0,0)">
<svg width="100" height="100" x="0" y="0" viewBox="0 0 394.759 160"
font-family="sans-serif" stroke="rgb(0,0,0)" stroke-width="2"  stroke-linecap="round">
<line x1="51.3" y1="113.5" x2="74.6" y2="100.0" stroke="rgb(0,0,0)"  stroke-width="2.0"/>
<line x1="74.6" y1="100.0" x2="98.0" y2="113.5" stroke="rgb(0,0,0)"  stroke-width="2.0"/>
<line x1="120.5" y1="113.5" x2="143.9" y2="100.0" stroke="rgb(0,0,0)"  stroke-width="2.0"/>
<line x1="274.8" y1="80.0" x2="301.8" y2="80.0" stroke="rgb(0,0,0)"  stroke-width="2.0"/>
<line x1="314.8" y1="93.0" x2="314.8" y2="107.0" stroke="rgb(0,0,0)"  stroke-width="2.0"/>
<line x1="327.8" y1="77.0" x2="341.8" y2="77.0" stroke="rgb(0,0,0)"  stroke-width="2.0"/>
<line x1="327.8" y1="83.0" x2="341.8" y2="83.0" stroke="rgb(0,0,0)"  stroke-width="2.0"/>
<line x1="311.8" y1="67.0" x2="311.8" y2="53.0" stroke="rgb(0,0,0)"  stroke-width="2.0"/>
<line x1="317.8" y1="67.0" x2="317.8" y2="53.0" stroke="rgb(0,0,0)"  stroke-width="2.0"/>
<line x1="274.8" y1="80.0" x2="258.9" y2="101.8" stroke="rgb(0,0,0)"  stroke-width="2.0"/>
<line x1="238.9" y1="108.3" x2="213.2" y2="100.0" stroke="rgb(0,0,0)"  stroke-width="2.0"/>
<line x1="213.2" y1="100.0" x2="213.2" y2="60.0" stroke="rgb(0,0,0)"  stroke-width="2.0"/>
<line x1="213.2" y1="60.0" x2="238.9" y2="51.7" stroke="rgb(0,0,0)"  stroke-width="2.0"/>
<line x1="259.0" y1="58.3" x2="274.8" y2="80.0" stroke="rgb(0,0,0)"  stroke-width="2.0"/>
<line x1="254.4" y1="64.2" x2="265.4" y2="79.4" stroke="rgb(0,0,0)"  stroke-width="2.0"/>
<line x1="178.6" y1="40.0" x2="213.2" y2="60.0" stroke="rgb(0,0,0)"  stroke-width="2.0"/>
<line x1="180.2" y1="49.2" x2="204.4" y2="63.2" stroke="rgb(0,0,0)"  stroke-width="2.0"/>
<line x1="213.2" y1="100.0" x2="178.6" y2="120.0" stroke="rgb(0,0,0)"  stroke-width="2.0"/>
<line x1="204.4" y1="96.8" x2="180.2" y2="110.8" stroke="rgb(0,0,0)"  stroke-width="2.0"/>
<line x1="178.6" y1="120.0" x2="143.9" y2="100.0" stroke="rgb(0,0,0)"  stroke-width="2.0"/>
<line x1="143.9" y1="100.0" x2="143.9" y2="60.0" stroke="rgb(0,0,0)"  stroke-width="2.0"/>
<line x1="151.1" y1="94.0" x2="151.1" y2="66.0" stroke="rgb(0,0,0)"  stroke-width="2.0"/>
<line x1="143.9" y1="60.0" x2="178.6" y2="40.0" stroke="rgb(0,0,0)"  stroke-width="2.0"/>
<text x="14.000000" y="128.000000" fill="rgb(102,102,102)"  stroke="rgb(102,102,102)" stroke-width="1" font-size="16" >H</text>
<text x="26.000000" y="131.680000" fill="rgb(102,102,102)"  stroke="rgb(102,102,102)" stroke-width="1" font-size="13" >3</text>
<text x="32.500000" y="128.000000" fill="rgb(102,102,102)"  stroke="rgb(102,102,102)" stroke-width="1" font-size="16" >C</text>
<text x="103.282032" y="128.000000" fill="rgb(255,12,12)"  stroke="rgb(255,12,12)" stroke-width="1" font-size="16" >O</text>
<text x="245.247341" y="55.639320" fill="rgb(12,12,255)"  stroke="rgb(12,12,255)" stroke-width="1" font-size="16" >N</text>
<text x="308.758752" y="88.000000" fill="rgb(178,178,0)"  stroke="rgb(178,178,0)" stroke-width="1" font-size="16" >S</text>
<text x="310.758752" y="128.000000" fill="rgb(12,12,255)"  stroke="rgb(12,12,255)" stroke-width="1" font-size="16" >NH</text>
<text x="334.758752" y="131.680000" fill="rgb(12,12,255)"  stroke="rgb(12,12,255)" stroke-width="1" font-size="13" >2</text>
<text x="348.758752" y="88.000000" fill="rgb(255,12,12)"  stroke="rgb(255,12,12)" stroke-width="1" font-size="16" >O</text>
<text x="308.758752" y="48.000000" fill="rgb(255,12,12)"  stroke="rgb(255,12,12)" stroke-width="1" font-size="16" >O</text>
<text x="245.247341" y="120.360680" fill="rgb(178,178,0)"  stroke="rgb(178,178,0)" stroke-width="1" font-size="16" >S</text>
</svg>
</g>
<text font-size="18.000000" fill ="black" font-family="sans-serif"
x="10.000000" y="20.000000" ></text>
</svg>
