<?xml version="1.0"?>
<svg version="1.1" id="topsvg"
xmlns="http://www.w3.org/2000/svg" xmlns:xlink="http://www.w3.org/1999/xlink"
xmlns:cml="http://www.xml-cml.org/schema" x="0" y="0" width="200px" height="200px" viewBox="0 0 100 100">
<title> - Open Babel Depiction</title>
<rect x="0" y="0" width="100" height="100" fill="white"/>
<g transform="translate(0,0)">
<svg width="100" height="100" x="0" y="0" viewBox="0 0 234.641 223.923"
font-family="sans-serif" stroke="rgb(0,0,0)" stroke-width="2"  stroke-linecap="round">
<line x1="181.6" y1="109.3" x2="154.6" y2="109.3" stroke="rgb(0,0,0)"  stroke-width="2.0"/>
<line x1="154.6" y1="109.3" x2="134.6" y2="143.9" stroke="rgb(0,0,0)"  stroke-width="2.0"/>
<polygon points="134.641016 143.923048 138.641016 170.723048 130.641016 170.723048 " stroke-width="2.000000" fill="rgb(0,0,0)"  stroke="rgb(0,0,0)" />
<line x1="134.6" y1="143.9" x2="158.0" y2="157.4" stroke="rgb(0,0,0)"  stroke-width="2.0"/>
<line x1="134.6" y1="143.9" x2="94.6" y2="143.9" stroke="rgb(0,0,0)"  stroke-width="2.0"/>
<line x1="90.4" y1="147.3" x2="89.6" y2="145.9" stroke="rgb(0,0,0)"  stroke-width="1.0"/>
<line x1="87.0" y1="150.0" x2="85.6" y2="147.5" stroke="rgb(0,0,0)"  stroke-width="1.0"/>
<line x1="83.6" y1="152.7" x2="81.5" y2="149.1" stroke="rgb(0,0,0)"  stroke-width="1.0"/>
<line x1="80.2" y1="155.4" x2="77.5" y2="150.7" stroke="rgb(0,0,0)"  stroke-width="1.0"/>
<line x1="76.8" y1="158.1" x2="73.5" y2="152.3" stroke="rgb(0,0,0)"  stroke-width="1.0"/>
<line x1="73.4" y1="160.8" x2="69.4" y2="153.9" stroke="rgb(0,0,0)"  stroke-width="1.0"/>
<line x1="94.6" y1="143.9" x2="94.6" y2="170.9" stroke="rgb(0,0,0)"  stroke-width="2.0"/>
<line x1="94.6" y1="143.9" x2="74.6" y2="109.3" stroke="rgb(0,0,0)"  stroke-width="2.0"/>
<polygon points="74.641016 109.282032 49.431535 99.346134 53.431535 92.417931 " stroke-width="2.000000" fill="rgb(0,0,0)"  stroke="rgb(0,0,0)" />
<line x1="74.6" y1="109.3" x2="51.3" y2="122.8" stroke="rgb(0,0,0)"  stroke-width="2.0"/>
<line x1="74.6" y1="109.3" x2="94.6" y2="74.6" stroke="rgb(0,0,0)"  stroke-width="2.0"/>
<line x1="94.6" y1="74.6" x2="81.1" y2="51.3" stroke="rgb(0,0,0)"  stroke-width="2.0"/>
<text x="188.641016" y="117.282032" fill="rgb(255,12,12)"  stroke="rgb(255,12,12)" stroke-width="1" font-size="16" >OH</text>
<text x="128.641016" y="191.923048" fill="rgb(191,191,191)"  stroke="rgb(191,191,191)" stroke-width="1" font-size="16" >H</text>
<text x="163.282032" y="171.923048" fill="rgb(255,12,12)"  stroke="rgb(255,12,12)" stroke-width="1" font-size="16" >OH</text>
<text x="54.000000" y="171.923048" fill="rgb(191,191,191)"  stroke="rgb(191,191,191)" stroke-width="1" font-size="16" >H</text>
<text x="88.641016" y="191.923048" fill="rgb(255,12,12)"  stroke="rgb(255,12,12)" stroke-width="1" font-size="16" >OH</text>
<text x="34.000000" y="97.282032" fill="rgb(191,191,191)"  stroke="rgb(191,191,191)" stroke-width="1" font-size="16" >H</text>
<text x="22.000000" y="137.282032" fill="rgb(255,12,12)"  stroke="rgb(255,12,12)" stroke-width="1" font-size="16" >HO</text>
<text x="56.641016" y="48.000000" fill="rgb(255,12,12)"  stroke="rgb(255,12,12)" stroke-width="1" font-size="16" >HO</text>
</svg>
</g>
<text font-size="18.000000" fill ="black" font-family="sans-serif"
x="10.000000" y="20.000000" ></text>
</svg>
