<?xml version="1.0"?>
<svg version="1.1" id="topsvg"
xmlns="http://www.w3.org/2000/svg" xmlns:xlink="http://www.w3.org/1999/xlink"
xmlns:cml="http://www.xml-cml.org/schema" x="0" y="0" width="200px" height="200px" viewBox="0 0 100 100">
<title> - Open Babel Depiction</title>
<rect x="0" y="0" width="100" height="100" fill="white"/>
<g transform="translate(0,0)">
<svg width="100" height="100" x="0" y="0" viewBox="0 0 336.168 260.723"
font-family="sans-serif" stroke="rgb(0,0,0)" stroke-width="2"  stroke-linecap="round">
<line x1="52.8" y1="83.9" x2="76.1" y2="97.4" stroke="rgb(0,0,0)"  stroke-width="2.0"/>
<line x1="49.8" y1="89.1" x2="73.1" y2="102.6" stroke="rgb(0,0,0)"  stroke-width="2.0"/>
<line x1="109.3" y1="67.0" x2="109.3" y2="53.0" stroke="rgb(0,0,0)"  stroke-width="2.0"/>
<line x1="142.4" y1="97.4" x2="165.8" y2="83.9" stroke="rgb(0,0,0)"  stroke-width="2.0"/>
<line x1="145.4" y1="102.6" x2="168.8" y2="89.1" stroke="rgb(0,0,0)"  stroke-width="2.0"/>
<line x1="155.2" y1="146.5" x2="178.6" y2="160.0" stroke="rgb(0,0,0)"  stroke-width="2.0"/>
<line x1="174.3" y1="163.4" x2="173.5" y2="162.0" stroke="rgb(0,0,0)"  stroke-width="1.0"/>
<line x1="170.9" y1="166.1" x2="169.5" y2="163.6" stroke="rgb(0,0,0)"  stroke-width="1.0"/>
<line x1="167.5" y1="168.8" x2="165.5" y2="165.2" stroke="rgb(0,0,0)"  stroke-width="1.0"/>
<line x1="164.1" y1="171.5" x2="161.4" y2="166.8" stroke="rgb(0,0,0)"  stroke-width="1.0"/>
<line x1="160.7" y1="174.2" x2="157.4" y2="168.3" stroke="rgb(0,0,0)"  stroke-width="1.0"/>
<line x1="157.4" y1="176.9" x2="153.4" y2="169.9" stroke="rgb(0,0,0)"  stroke-width="1.0"/>
<line x1="240.1" y1="140.0" x2="267.0" y2="137.2" stroke="rgb(0,0,0)"  stroke-width="2.0"/>
<line x1="240.1" y1="140.0" x2="251.1" y2="115.3" stroke="rgb(0,0,0)"  stroke-width="2.0"/>
<line x1="240.9" y1="148.0" x2="239.3" y2="148.0" stroke="rgb(0,0,0)"  stroke-width="1.0"/>
<line x1="241.6" y1="154.4" x2="238.7" y2="154.4" stroke="rgb(0,0,0)"  stroke-width="1.0"/>
<line x1="242.2" y1="160.8" x2="238.0" y2="160.8" stroke="rgb(0,0,0)"  stroke-width="1.0"/>
<line x1="242.8" y1="167.2" x2="237.4" y2="167.2" stroke="rgb(0,0,0)"  stroke-width="1.0"/>
<line x1="243.5" y1="173.6" x2="236.8" y2="173.6" stroke="rgb(0,0,0)"  stroke-width="1.0"/>
<line x1="244.1" y1="180.0" x2="236.1" y2="180.0" stroke="rgb(0,0,0)"  stroke-width="1.0"/>
<line x1="243.0" y1="184.6" x2="241.6" y2="185.2" stroke="rgb(0,0,0)"  stroke-width="1.0"/>
<line x1="245.4" y1="188.2" x2="242.7" y2="189.4" stroke="rgb(0,0,0)"  stroke-width="1.0"/>
<line x1="247.7" y1="191.9" x2="243.9" y2="193.6" stroke="rgb(0,0,0)"  stroke-width="1.0"/>
<line x1="250.0" y1="195.5" x2="245.0" y2="197.8" stroke="rgb(0,0,0)"  stroke-width="1.0"/>
<line x1="252.3" y1="199.2" x2="246.2" y2="201.9" stroke="rgb(0,0,0)"  stroke-width="1.0"/>
<line x1="254.7" y1="202.9" x2="247.4" y2="206.1" stroke="rgb(0,0,0)"  stroke-width="1.0"/>
<line x1="240.1" y1="180.0" x2="279.9" y2="184.2" stroke="rgb(0,0,0)"  stroke-width="2.0"/>
<line x1="279.9" y1="184.2" x2="290.9" y2="208.8" stroke="rgb(0,0,0)"  stroke-width="2.0"/>
<line x1="74.6" y1="140.0" x2="51.3" y2="153.5" stroke="rgb(0,0,0)"  stroke-width="2.0"/>
<line x1="143.9" y1="100.0" x2="143.9" y2="127.0" stroke="rgb(0,0,0)"  stroke-width="2.0"/>
<line x1="132.7" y1="146.5" x2="109.3" y2="160.0" stroke="rgb(0,0,0)"  stroke-width="2.0"/>
<line x1="109.3" y1="160.0" x2="74.6" y2="140.0" stroke="rgb(0,0,0)"  stroke-width="2.0"/>
<line x1="107.7" y1="150.8" x2="83.4" y2="136.8" stroke="rgb(0,0,0)"  stroke-width="2.0"/>
<line x1="74.6" y1="140.0" x2="74.6" y2="100.0" stroke="rgb(0,0,0)"  stroke-width="2.0"/>
<line x1="74.6" y1="100.0" x2="98.0" y2="86.5" stroke="rgb(0,0,0)"  stroke-width="2.0"/>
<line x1="120.5" y1="86.5" x2="143.9" y2="100.0" stroke="rgb(0,0,0)"  stroke-width="2.0"/>
<line x1="240.1" y1="140.0" x2="240.1" y2="180.0" stroke="rgb(0,0,0)"  stroke-width="2.0"/>
<line x1="240.1" y1="180.0" x2="214.4" y2="188.3" stroke="rgb(0,0,0)"  stroke-width="2.0"/>
<line x1="194.4" y1="181.8" x2="178.6" y2="160.0" stroke="rgb(0,0,0)"  stroke-width="2.0"/>
<line x1="178.6" y1="160.0" x2="202.1" y2="127.6" stroke="rgb(0,0,0)"  stroke-width="2.0"/>
<line x1="202.1" y1="127.6" x2="240.1" y2="140.0" stroke="rgb(0,0,0)"  stroke-width="2.0"/>
<text x="34.000000" y="168.000000" fill="rgb(147,0,147)"  stroke="rgb(147,0,147)" stroke-width="1" font-size="16" >I</text>
<text x="196.075475" y="200.360680" fill="rgb(255,12,12)"  stroke="rgb(255,12,12)" stroke-width="1" font-size="16" >O</text>
<text x="290.168077" y="228.722957" fill="rgb(255,12,12)"  stroke="rgb(255,12,12)" stroke-width="1" font-size="16" >OH</text>
<text x="250.387201" y="224.541818" fill="rgb(191,191,191)"  stroke="rgb(191,191,191)" stroke-width="1" font-size="16" >H</text>
<text x="250.387201" y="111.458182" fill="rgb(255,12,12)"  stroke="rgb(255,12,12)" stroke-width="1" font-size="16" >OH</text>
<text x="273.898611" y="143.818861" fill="rgb(191,191,191)"  stroke="rgb(191,191,191)" stroke-width="1" font-size="16" >H</text>
<text x="34.000000" y="88.000000" fill="rgb(255,12,12)"  stroke="rgb(255,12,12)" stroke-width="1" font-size="16" >O</text>
<text x="137.923048" y="188.000000" fill="rgb(191,191,191)"  stroke="rgb(191,191,191)" stroke-width="1" font-size="16" >H</text>
<text x="137.923048" y="148.000000" fill="rgb(12,12,255)"  stroke="rgb(12,12,255)" stroke-width="1" font-size="16" >N</text>
<text x="172.564065" y="88.000000" fill="rgb(255,12,12)"  stroke="rgb(255,12,12)" stroke-width="1" font-size="16" >O</text>
<text x="103.282032" y="48.000000" fill="rgb(191,191,191)"  stroke="rgb(191,191,191)" stroke-width="1" font-size="16" >H</text>
<text x="103.282032" y="88.000000" fill="rgb(12,12,255)"  stroke="rgb(12,12,255)" stroke-width="1" font-size="16" >N</text>
</svg>
</g>
<text font-size="18.000000" fill ="black" font-family="sans-serif"
x="10.000000" y="20.000000" ></text>
</svg>
