<?xml version="1.0"?>
<svg version="1.1" id="topsvg"
xmlns="http://www.w3.org/2000/svg" xmlns:xlink="http://www.w3.org/1999/xlink"
xmlns:cml="http://www.xml-cml.org/schema" x="0" y="0" width="200px" height="200px" viewBox="0 0 100 100">
<title> - Open Babel Depiction</title>
<rect x="0" y="0" width="100" height="100" fill="white"/>
<g transform="translate(0,0)">
<svg width="100" height="100" x="0" y="0" viewBox="0 0 238.272 221.562"
font-family="sans-serif" stroke="rgb(0,0,0)" stroke-width="2"  stroke-linecap="round">
<line x1="97.7" y1="49.2" x2="78.6" y2="68.3" stroke="rgb(0,0,0)"  stroke-width="2.0"/>
<line x1="78.6" y1="68.3" x2="52.6" y2="61.3" stroke="rgb(0,0,0)"  stroke-width="2.0"/>
<line x1="78.6" y1="68.3" x2="89.0" y2="106.9" stroke="rgb(0,0,0)"  stroke-width="2.0"/>
<line x1="89.0" y1="106.9" x2="67.6" y2="123.4" stroke="rgb(0,0,0)"  stroke-width="2.0"/>
<line x1="163.6" y1="146.1" x2="163.6" y2="147.7" stroke="rgb(0,0,0)"  stroke-width="1.0"/>
<line x1="167.9" y1="145.5" x2="167.9" y2="148.4" stroke="rgb(0,0,0)"  stroke-width="1.0"/>
<line x1="172.2" y1="144.8" x2="172.2" y2="149.0" stroke="rgb(0,0,0)"  stroke-width="1.0"/>
<line x1="176.5" y1="144.2" x2="176.5" y2="149.6" stroke="rgb(0,0,0)"  stroke-width="1.0"/>
<line x1="180.8" y1="143.6" x2="180.8" y2="150.3" stroke="rgb(0,0,0)"  stroke-width="1.0"/>
<line x1="185.1" y1="142.9" x2="185.1" y2="150.9" stroke="rgb(0,0,0)"  stroke-width="1.0"/>
<line x1="158.3" y1="146.9" x2="171.8" y2="170.3" stroke="rgb(0,0,0)"  stroke-width="2.0"/>
<line x1="120.3" y1="82.7" x2="121.6" y2="81.9" stroke="rgb(0,0,0)"  stroke-width="1.0"/>
<line x1="117.6" y1="79.3" x2="120.1" y2="77.8" stroke="rgb(0,0,0)"  stroke-width="1.0"/>
<line x1="114.9" y1="75.9" x2="118.5" y2="73.8" stroke="rgb(0,0,0)"  stroke-width="1.0"/>
<line x1="112.2" y1="72.5" x2="116.9" y2="69.8" stroke="rgb(0,0,0)"  stroke-width="1.0"/>
<line x1="109.5" y1="69.1" x2="115.3" y2="65.7" stroke="rgb(0,0,0)"  stroke-width="1.0"/>
<line x1="106.8" y1="65.7" x2="113.7" y2="61.7" stroke="rgb(0,0,0)"  stroke-width="1.0"/>
<polygon points="88.989795 106.921304 121.630811 83.457203 125.630811 90.385406 " stroke-width="2.000000" fill="rgb(0,0,0)"  stroke="rgb(0,0,0)" />
<line x1="123.6" y1="86.9" x2="137.1" y2="63.5" stroke="rgb(0,0,0)"  stroke-width="2.0"/>
<line x1="123.6" y1="166.9" x2="158.3" y2="146.9" stroke="rgb(0,0,0)"  stroke-width="2.0"/>
<line x1="158.3" y1="146.9" x2="158.3" y2="106.9" stroke="rgb(0,0,0)"  stroke-width="2.0"/>
<line x1="158.3" y1="106.9" x2="123.6" y2="86.9" stroke="rgb(0,0,0)"  stroke-width="2.0"/>
<line x1="123.6" y1="86.9" x2="89.0" y2="106.9" stroke="rgb(0,0,0)"  stroke-width="2.0"/>
<line x1="89.0" y1="106.9" x2="89.0" y2="146.9" stroke="rgb(0,0,0)"  stroke-width="2.0"/>
<line x1="89.0" y1="146.9" x2="123.6" y2="166.9" stroke="rgb(0,0,0)"  stroke-width="2.0"/>
<text x="102.921304" y="48.000000" fill="rgb(102,102,102)"  stroke="rgb(102,102,102)" stroke-width="1" font-size="16" >CH</text>
<text x="126.921304" y="51.680000" fill="rgb(102,102,102)"  stroke="rgb(102,102,102)" stroke-width="1" font-size="13" >3</text>
<text x="14.000000" y="65.931509" fill="rgb(102,102,102)"  stroke="rgb(102,102,102)" stroke-width="1" font-size="16" >H</text>
<text x="26.000000" y="69.611509" fill="rgb(102,102,102)"  stroke="rgb(102,102,102)" stroke-width="1" font-size="13" >3</text>
<text x="32.500000" y="65.931509" fill="rgb(102,102,102)"  stroke="rgb(102,102,102)" stroke-width="1" font-size="16" >C</text>
<text x="51.255661" y="139.271761" fill="rgb(191,191,191)"  stroke="rgb(191,191,191)" stroke-width="1" font-size="16" >H</text>
<text x="192.271827" y="154.921304" fill="rgb(191,191,191)"  stroke="rgb(191,191,191)" stroke-width="1" font-size="16" >H</text>
<text x="174.271827" y="189.562320" fill="rgb(102,102,102)"  stroke="rgb(102,102,102)" stroke-width="1" font-size="16" >CH</text>
<text x="198.271827" y="193.242320" fill="rgb(102,102,102)"  stroke="rgb(102,102,102)" stroke-width="1" font-size="13" >3</text>
<text x="97.630811" y="60.280288" fill="rgb(191,191,191)"  stroke="rgb(191,191,191)" stroke-width="1" font-size="16" >H</text>
<text x="137.630811" y="60.280288" fill="rgb(255,12,12)"  stroke="rgb(255,12,12)" stroke-width="1" font-size="16" >OH</text>
</svg>
</g>
<text font-size="18.000000" fill ="black" font-family="sans-serif"
x="10.000000" y="20.000000" ></text>
</svg>
