<?xml version="1.0"?>
<svg version="1.1" id="topsvg"
xmlns="http://www.w3.org/2000/svg" xmlns:xlink="http://www.w3.org/1999/xlink"
xmlns:cml="http://www.xml-cml.org/schema" x="0" y="0" width="200px" height="200px" viewBox="0 0 100 100">
<title> - Open Babel Depiction</title>
<rect x="0" y="0" width="100" height="100" fill="white"/>
<g transform="translate(0,0)">
<svg width="100" height="100" x="0" y="0" viewBox="0 0 322.487 200"
font-family="sans-serif" stroke="rgb(0,0,0)" stroke-width="2"  stroke-linecap="round">
<line x1="247.8" y1="127.0" x2="247.8" y2="100.0" stroke="rgb(0,0,0)"  stroke-width="2.0"/>
<line x1="247.8" y1="100.0" x2="271.2" y2="86.5" stroke="rgb(0,0,0)"  stroke-width="2.0"/>
<line x1="247.8" y1="100.0" x2="213.2" y2="80.0" stroke="rgb(0,0,0)"  stroke-width="2.0"/>
<line x1="213.2" y1="80.0" x2="189.8" y2="93.5" stroke="rgb(0,0,0)"  stroke-width="2.0"/>
<line x1="167.3" y1="93.5" x2="143.9" y2="80.0" stroke="rgb(0,0,0)"  stroke-width="2.0"/>
<line x1="140.9" y1="80.0" x2="140.9" y2="53.0" stroke="rgb(0,0,0)"  stroke-width="2.0"/>
<line x1="146.9" y1="80.0" x2="146.9" y2="53.0" stroke="rgb(0,0,0)"  stroke-width="2.0"/>
<line x1="143.9" y1="80.0" x2="109.3" y2="100.0" stroke="rgb(0,0,0)"  stroke-width="2.0"/>
<line x1="74.6" y1="160.0" x2="40.0" y2="140.0" stroke="rgb(0,0,0)"  stroke-width="2.0"/>
<line x1="73.0" y1="150.8" x2="48.8" y2="136.8" stroke="rgb(0,0,0)"  stroke-width="2.0"/>
<line x1="40.0" y1="140.0" x2="40.0" y2="100.0" stroke="rgb(0,0,0)"  stroke-width="2.0"/>
<line x1="40.0" y1="100.0" x2="74.6" y2="80.0" stroke="rgb(0,0,0)"  stroke-width="2.0"/>
<line x1="48.8" y1="103.2" x2="73.0" y2="89.2" stroke="rgb(0,0,0)"  stroke-width="2.0"/>
<line x1="74.6" y1="80.0" x2="109.3" y2="100.0" stroke="rgb(0,0,0)"  stroke-width="2.0"/>
<line x1="109.3" y1="100.0" x2="109.3" y2="140.0" stroke="rgb(0,0,0)"  stroke-width="2.0"/>
<line x1="102.1" y1="106.0" x2="102.1" y2="134.0" stroke="rgb(0,0,0)"  stroke-width="2.0"/>
<line x1="109.3" y1="140.0" x2="74.6" y2="160.0" stroke="rgb(0,0,0)"  stroke-width="2.0"/>
<text x="243.846097" y="148.000000" fill="rgb(102,102,102)"  stroke="rgb(102,102,102)" stroke-width="1" font-size="16" >CH</text>
<text x="267.846097" y="151.680000" fill="rgb(102,102,102)"  stroke="rgb(102,102,102)" stroke-width="1" font-size="13" >3</text>
<text x="278.487113" y="88.000000" fill="rgb(102,102,102)"  stroke="rgb(102,102,102)" stroke-width="1" font-size="16" >CH</text>
<text x="302.487113" y="91.680000" fill="rgb(102,102,102)"  stroke="rgb(102,102,102)" stroke-width="1" font-size="13" >3</text>
<text x="172.564065" y="108.000000" fill="rgb(255,12,12)"  stroke="rgb(255,12,12)" stroke-width="1" font-size="16" >O</text>
<text x="137.923048" y="48.000000" fill="rgb(255,12,12)"  stroke="rgb(255,12,12)" stroke-width="1" font-size="16" >O</text>
</svg>
</g>
<text font-size="18.000000" fill ="black" font-family="sans-serif"
x="10.000000" y="20.000000" ></text>
</svg>
