<?xml version="1.0"?>
<svg version="1.1" id="topsvg"
xmlns="http://www.w3.org/2000/svg" xmlns:xlink="http://www.w3.org/1999/xlink"
xmlns:cml="http://www.xml-cml.org/schema" x="0" y="0" width="200px" height="200px" viewBox="0 0 100 100">
<title> - Open Babel Depiction</title>
<rect x="0" y="0" width="100" height="100" fill="white"/>
<g transform="translate(0,0)">
<svg width="100" height="100" x="0" y="0" viewBox="0 0 421.104 307.262"
font-family="sans-serif" stroke="rgb(0,0,0)" stroke-width="2"  stroke-linecap="round">
<line x1="215.2" y1="110.2" x2="196.2" y2="91.1" stroke="rgb(0,0,0)"  stroke-width="2.0"/>
<line x1="219.5" y1="106.0" x2="200.4" y2="86.9" stroke="rgb(0,0,0)"  stroke-width="2.0"/>
<line x1="198.3" y1="89.0" x2="208.6" y2="50.4" stroke="rgb(0,0,0)"  stroke-width="2.0"/>
<line x1="207.8" y1="47.5" x2="248.0" y2="42.9" stroke="rgb(0,0,0)"  stroke-width="2.0"/>
<line x1="209.4" y1="53.3" x2="246.5" y2="37.1" stroke="rgb(0,0,0)"  stroke-width="2.0"/>
<line x1="247.3" y1="40.0" x2="275.5" y2="68.3" stroke="rgb(0,0,0)"  stroke-width="2.0"/>
<line x1="332.1" y1="124.9" x2="351.2" y2="143.9" stroke="rgb(0,0,0)"  stroke-width="2.0"/>
<line x1="342.5" y1="86.2" x2="368.5" y2="79.2" stroke="rgb(0,0,0)"  stroke-width="2.0"/>
<line x1="198.3" y1="89.0" x2="172.2" y2="96.0" stroke="rgb(0,0,0)"  stroke-width="2.0"/>
<line x1="156.3" y1="111.9" x2="149.3" y2="138.0" stroke="rgb(0,0,0)"  stroke-width="2.0"/>
<line x1="149.3" y1="138.0" x2="170.7" y2="154.4" stroke="rgb(0,0,0)"  stroke-width="2.0"/>
<polygon points="114.641016 197.979590 104.705118 223.189071 97.776915 219.189071 " stroke-width="2.000000" fill="rgb(0,0,0)"  stroke="rgb(0,0,0)" />
<line x1="114.6" y1="198.0" x2="134.6" y2="232.6" stroke="rgb(0,0,0)"  stroke-width="2.0"/>
<line x1="137.2" y1="234.1" x2="123.7" y2="257.5" stroke="rgb(0,0,0)"  stroke-width="2.0"/>
<line x1="132.0" y1="231.1" x2="118.5" y2="254.5" stroke="rgb(0,0,0)"  stroke-width="2.0"/>
<line x1="134.6" y1="232.6" x2="161.6" y2="232.6" stroke="rgb(0,0,0)"  stroke-width="2.0"/>
<line x1="80.0" y1="138.0" x2="66.5" y2="114.6" stroke="rgb(0,0,0)"  stroke-width="2.0"/>
<line x1="80.0" y1="138.0" x2="53.0" y2="138.0" stroke="rgb(0,0,0)"  stroke-width="2.0"/>
<polygon points="80.000000 137.979590 112.641016 114.515488 116.641016 121.443691 " stroke-width="2.000000" fill="rgb(0,0,0)"  stroke="rgb(0,0,0)" />
<line x1="116.6" y1="112.9" x2="118.0" y2="113.7" stroke="rgb(0,0,0)"  stroke-width="1.0"/>
<line x1="118.2" y1="108.9" x2="120.7" y2="110.3" stroke="rgb(0,0,0)"  stroke-width="1.0"/>
<line x1="119.8" y1="104.9" x2="123.4" y2="107.0" stroke="rgb(0,0,0)"  stroke-width="1.0"/>
<line x1="121.4" y1="100.8" x2="126.1" y2="103.6" stroke="rgb(0,0,0)"  stroke-width="1.0"/>
<line x1="123.0" y1="96.8" x2="128.8" y2="100.2" stroke="rgb(0,0,0)"  stroke-width="1.0"/>
<line x1="124.6" y1="92.8" x2="131.5" y2="96.8" stroke="rgb(0,0,0)"  stroke-width="1.0"/>
<polygon points="149.282032 137.979590 112.641016 121.443691 116.641016 114.515488 " stroke-width="2.000000" fill="rgb(0,0,0)"  stroke="rgb(0,0,0)" />
<line x1="114.6" y1="118.0" x2="101.1" y2="94.6" stroke="rgb(0,0,0)"  stroke-width="2.0"/>
<line x1="293.5" y1="135.2" x2="332.1" y2="124.9" stroke="rgb(0,0,0)"  stroke-width="2.0"/>
<line x1="297.4" y1="126.7" x2="324.5" y2="119.5" stroke="rgb(0,0,0)"  stroke-width="2.0"/>
<line x1="332.1" y1="124.9" x2="342.5" y2="86.2" stroke="rgb(0,0,0)"  stroke-width="2.0"/>
<line x1="342.5" y1="86.2" x2="314.2" y2="57.9" stroke="rgb(0,0,0)"  stroke-width="2.0"/>
<line x1="333.1" y1="87.1" x2="313.3" y2="67.3" stroke="rgb(0,0,0)"  stroke-width="2.0"/>
<line x1="314.2" y1="57.9" x2="275.5" y2="68.3" stroke="rgb(0,0,0)"  stroke-width="2.0"/>
<line x1="275.5" y1="68.3" x2="265.2" y2="106.9" stroke="rgb(0,0,0)"  stroke-width="2.0"/>
<line x1="280.9" y1="75.9" x2="273.7" y2="103.0" stroke="rgb(0,0,0)"  stroke-width="2.0"/>
<line x1="265.2" y1="106.9" x2="293.5" y2="135.2" stroke="rgb(0,0,0)"  stroke-width="2.0"/>
<line x1="114.6" y1="198.0" x2="80.0" y2="178.0" stroke="rgb(0,0,0)"  stroke-width="2.0"/>
<line x1="80.0" y1="178.0" x2="80.0" y2="138.0" stroke="rgb(0,0,0)"  stroke-width="2.0"/>
<line x1="80.0" y1="138.0" x2="114.6" y2="118.0" stroke="rgb(0,0,0)"  stroke-width="2.0"/>
<line x1="114.6" y1="118.0" x2="149.3" y2="138.0" stroke="rgb(0,0,0)"  stroke-width="2.0"/>
<line x1="149.3" y1="138.0" x2="149.3" y2="178.0" stroke="rgb(0,0,0)"  stroke-width="2.0"/>
<line x1="149.3" y1="178.0" x2="114.6" y2="198.0" stroke="rgb(0,0,0)"  stroke-width="2.0"/>
<text x="175.016166" y="170.330047" fill="rgb(191,191,191)"  stroke="rgb(191,191,191)" stroke-width="1" font-size="16" >H</text>
<text x="76.641016" y="91.338574" fill="rgb(255,12,12)"  stroke="rgb(255,12,12)" stroke-width="1" font-size="16" >HO</text>
<text x="128.641016" y="91.338574" fill="rgb(191,191,191)"  stroke="rgb(191,191,191)" stroke-width="1" font-size="16" >H</text>
<text x="22.000000" y="145.979590" fill="rgb(255,12,12)"  stroke="rgb(255,12,12)" stroke-width="1" font-size="16" >HO</text>
<text x="54.000000" y="111.338574" fill="rgb(191,191,191)"  stroke="rgb(191,191,191)" stroke-width="1" font-size="16" >H</text>
<text x="168.641016" y="240.620606" fill="rgb(255,12,12)"  stroke="rgb(255,12,12)" stroke-width="1" font-size="16" >OH</text>
<text x="108.641016" y="275.261622" fill="rgb(255,12,12)"  stroke="rgb(255,12,12)" stroke-width="1" font-size="16" >O</text>
<text x="76.641016" y="240.620606" fill="rgb(255,12,12)"  stroke="rgb(255,12,12)" stroke-width="1" font-size="16" >HO</text>
<text x="220.556098" y="125.274066" fill="rgb(255,12,12)"  stroke="rgb(255,12,12)" stroke-width="1" font-size="16" >O</text>
<text x="153.634794" y="107.342557" fill="rgb(255,12,12)"  stroke="rgb(255,12,12)" stroke-width="1" font-size="16" >O</text>
<text x="375.104231" y="83.863019" fill="rgb(255,12,12)"  stroke="rgb(255,12,12)" stroke-width="1" font-size="16" >OH</text>
<text x="354.398707" y="161.137085" fill="rgb(255,12,12)"  stroke="rgb(255,12,12)" stroke-width="1" font-size="16" >OH</text>
</svg>
</g>
<text font-size="18.000000" fill ="black" font-family="sans-serif"
x="10.000000" y="20.000000" ></text>
</svg>
