<?xml version="1.0"?>
<svg version="1.1" id="topsvg"
xmlns="http://www.w3.org/2000/svg" xmlns:xlink="http://www.w3.org/1999/xlink"
xmlns:cml="http://www.xml-cml.org/schema" x="0" y="0" width="200px" height="200px" viewBox="0 0 100 100">
<title> - Open Babel Depiction</title>
<rect x="0" y="0" width="100" height="100" fill="white"/>
<g transform="translate(0,0)">
<svg width="100" height="100" x="0" y="0" viewBox="0 0 242.847 259.9"
font-family="sans-serif" stroke="rgb(0,0,0)" stroke-width="2"  stroke-linecap="round">
<line x1="109.0" y1="145.2" x2="125.1" y2="145.2" stroke="rgb(0,0,0)"  stroke-width="2.0"/>
<line x1="165.0" y1="184.5" x2="163.5" y2="184.9" stroke="rgb(0,0,0)"  stroke-width="1.0"/>
<line x1="166.8" y1="188.7" x2="164.0" y2="189.4" stroke="rgb(0,0,0)"  stroke-width="1.0"/>
<line x1="168.6" y1="192.9" x2="164.6" y2="193.9" stroke="rgb(0,0,0)"  stroke-width="1.0"/>
<line x1="170.4" y1="197.1" x2="165.1" y2="198.4" stroke="rgb(0,0,0)"  stroke-width="1.0"/>
<line x1="172.1" y1="201.2" x2="165.6" y2="203.0" stroke="rgb(0,0,0)"  stroke-width="1.0"/>
<line x1="173.9" y1="205.4" x2="166.2" y2="207.5" stroke="rgb(0,0,0)"  stroke-width="1.0"/>
<line x1="163.5" y1="105.4" x2="165.0" y2="105.9" stroke="rgb(0,0,0)"  stroke-width="1.0"/>
<line x1="164.0" y1="100.9" x2="166.8" y2="101.7" stroke="rgb(0,0,0)"  stroke-width="1.0"/>
<line x1="164.6" y1="96.4" x2="168.6" y2="97.5" stroke="rgb(0,0,0)"  stroke-width="1.0"/>
<line x1="165.1" y1="91.9" x2="170.4" y2="93.3" stroke="rgb(0,0,0)"  stroke-width="1.0"/>
<line x1="165.6" y1="87.3" x2="172.1" y2="89.1" stroke="rgb(0,0,0)"  stroke-width="1.0"/>
<line x1="166.2" y1="82.8" x2="173.9" y2="84.9" stroke="rgb(0,0,0)"  stroke-width="1.0"/>
<line x1="115.6" y1="148.7" x2="114.8" y2="147.3" stroke="rgb(0,0,0)"  stroke-width="1.0"/>
<line x1="112.0" y1="151.5" x2="110.6" y2="149.0" stroke="rgb(0,0,0)"  stroke-width="1.0"/>
<line x1="108.4" y1="154.3" x2="106.4" y2="150.7" stroke="rgb(0,0,0)"  stroke-width="1.0"/>
<line x1="104.9" y1="157.1" x2="102.1" y2="152.4" stroke="rgb(0,0,0)"  stroke-width="1.0"/>
<line x1="101.3" y1="159.9" x2="97.9" y2="154.1" stroke="rgb(0,0,0)"  stroke-width="1.0"/>
<line x1="97.7" y1="162.7" x2="93.7" y2="155.8" stroke="rgb(0,0,0)"  stroke-width="1.0"/>
<line x1="120.1" y1="145.2" x2="85.0" y2="172.7" stroke="rgb(0,0,0)"  stroke-width="2.0"/>
<line x1="86.1" y1="174.2" x2="109.6" y2="160.6" stroke="rgb(0,0,0)"  stroke-width="2.0"/>
<line x1="111.1" y1="158.0" x2="134.7" y2="171.6" stroke="rgb(0,0,0)"  stroke-width="2.0"/>
<line x1="108.1" y1="163.2" x2="131.7" y2="176.8" stroke="rgb(0,0,0)"  stroke-width="2.0"/>
<line x1="109.6" y1="160.6" x2="109.6" y2="120.4" stroke="rgb(0,0,0)"  stroke-width="2.0"/>
<line x1="74.8" y1="60.1" x2="51.3" y2="46.5" stroke="rgb(0,0,0)"  stroke-width="2.0"/>
<line x1="144.5" y1="60.1" x2="168.0" y2="46.5" stroke="rgb(0,0,0)"  stroke-width="2.0"/>
<line x1="74.8" y1="60.1" x2="109.6" y2="40.0" stroke="rgb(0,0,0)"  stroke-width="2.0"/>
<line x1="83.6" y1="63.3" x2="108.0" y2="49.2" stroke="rgb(0,0,0)"  stroke-width="2.0"/>
<line x1="109.6" y1="40.0" x2="144.5" y2="60.1" stroke="rgb(0,0,0)"  stroke-width="2.0"/>
<line x1="144.5" y1="60.1" x2="144.5" y2="100.3" stroke="rgb(0,0,0)"  stroke-width="2.0"/>
<line x1="137.3" y1="66.1" x2="137.3" y2="94.3" stroke="rgb(0,0,0)"  stroke-width="2.0"/>
<line x1="144.5" y1="100.3" x2="109.6" y2="120.4" stroke="rgb(0,0,0)"  stroke-width="2.0"/>
<line x1="109.6" y1="120.4" x2="74.8" y2="100.3" stroke="rgb(0,0,0)"  stroke-width="2.0"/>
<line x1="108.0" y1="111.2" x2="83.6" y2="97.1" stroke="rgb(0,0,0)"  stroke-width="2.0"/>
<line x1="74.8" y1="100.3" x2="74.8" y2="60.1" stroke="rgb(0,0,0)"  stroke-width="2.0"/>
<line x1="202.8" y1="166.2" x2="202.8" y2="124.1" stroke="rgb(0,0,0)"  stroke-width="2.0"/>
<line x1="202.8" y1="124.1" x2="162.8" y2="111.1" stroke="rgb(0,0,0)"  stroke-width="2.0"/>
<line x1="162.8" y1="111.1" x2="145.7" y2="134.6" stroke="rgb(0,0,0)"  stroke-width="2.0"/>
<line x1="145.7" y1="155.7" x2="162.8" y2="179.2" stroke="rgb(0,0,0)"  stroke-width="2.0"/>
<line x1="162.8" y1="179.2" x2="202.8" y2="166.2" stroke="rgb(0,0,0)"  stroke-width="2.0"/>
<line x1="133.3" y1="117.8" x2="162.8" y2="111.1" stroke="rgb(0,0,0)"  stroke-width="2.0"/>
<line x1="162.8" y1="179.2" x2="133.3" y2="172.5" stroke="rgb(0,0,0)"  stroke-width="2.0"/>
<line x1="133.3" y1="172.5" x2="120.1" y2="145.2" stroke="rgb(0,0,0)"  stroke-width="2.0"/>
<line x1="120.1" y1="145.2" x2="133.3" y2="117.8" stroke="rgb(0,0,0)"  stroke-width="2.0"/>
<text x="68.822602" y="188.733869" fill="rgb(255,12,12)"  stroke="rgb(255,12,12)" stroke-width="1" font-size="16" >O</text>
<text x="173.290407" y="48.000000" fill="rgb(30,239,30)"  stroke="rgb(30,239,30)" stroke-width="1" font-size="16" >Cl</text>
<text x="22.000000" y="48.000000" fill="rgb(30,239,30)"  stroke="rgb(30,239,30)" stroke-width="1" font-size="16" >Cl</text>
<text x="138.467805" y="188.733869" fill="rgb(255,12,12)"  stroke="rgb(255,12,12)" stroke-width="1" font-size="16" >O</text>
<text x="69.974791" y="153.154738" fill="rgb(102,102,102)"  stroke="rgb(102,102,102)" stroke-width="1" font-size="16" >H</text>
<text x="81.974791" y="156.834738" fill="rgb(102,102,102)"  stroke="rgb(102,102,102)" stroke-width="1" font-size="13" >3</text>
<text x="88.474791" y="153.154738" fill="rgb(102,102,102)"  stroke="rgb(102,102,102)" stroke-width="1" font-size="16" >C</text>
<text x="77.652966" y="174.202190" fill="rgb(191,191,191)"  stroke="rgb(191,191,191)" stroke-width="1" font-size="16" >H</text>
<text x="167.596184" y="78.409050" fill="rgb(191,191,191)"  stroke="rgb(191,191,191)" stroke-width="1" font-size="16" >H</text>
<text x="167.596184" y="227.900427" fill="rgb(191,191,191)"  stroke="rgb(191,191,191)" stroke-width="1" font-size="16" >H</text>
<text x="132.069694" y="153.154738" fill="rgb(12,12,255)"  stroke="rgb(12,12,255)" stroke-width="1" font-size="16" >N</text>
</svg>
</g>
<text font-size="18.000000" fill ="black" font-family="sans-serif"
x="10.000000" y="20.000000" ></text>
</svg>
