<?xml version="1.0"?>
<svg version="1.1" id="topsvg"
xmlns="http://www.w3.org/2000/svg" xmlns:xlink="http://www.w3.org/1999/xlink"
xmlns:cml="http://www.xml-cml.org/schema" x="0" y="0" width="200px" height="200px" viewBox="0 0 100 100">
<title> - Open Babel Depiction</title>
<rect x="0" y="0" width="100" height="100" fill="white"/>
<g transform="translate(0,0)">
<svg width="100" height="100" x="0" y="0" viewBox="0 0 461.051 354.641"
font-family="sans-serif" stroke="rgb(0,0,0)" stroke-width="2"  stroke-linecap="round">
<line x1="293.7" y1="308.1" x2="317.1" y2="294.6" stroke="rgb(0,0,0)"  stroke-width="2.0"/>
<line x1="317.1" y1="294.6" x2="340.5" y2="308.1" stroke="rgb(0,0,0)"  stroke-width="2.0"/>
<line x1="317.1" y1="294.6" x2="317.1" y2="254.6" stroke="rgb(0,0,0)"  stroke-width="2.0"/>
<line x1="317.1" y1="254.6" x2="340.5" y2="241.1" stroke="rgb(0,0,0)"  stroke-width="2.0"/>
<line x1="351.8" y1="221.6" x2="351.8" y2="194.6" stroke="rgb(0,0,0)"  stroke-width="2.0"/>
<line x1="351.8" y1="114.6" x2="351.8" y2="74.6" stroke="rgb(0,0,0)"  stroke-width="2.0"/>
<line x1="351.8" y1="74.6" x2="338.3" y2="51.3" stroke="rgb(0,0,0)"  stroke-width="2.0"/>
<line x1="351.8" y1="74.6" x2="324.8" y2="74.6" stroke="rgb(0,0,0)"  stroke-width="2.0"/>
<line x1="351.8" y1="74.6" x2="375.2" y2="61.1" stroke="rgb(0,0,0)"  stroke-width="2.0"/>
<line x1="386.4" y1="174.6" x2="409.8" y2="188.1" stroke="rgb(0,0,0)"  stroke-width="2.0"/>
<line x1="317.1" y1="254.6" x2="282.5" y2="234.6" stroke="rgb(0,0,0)"  stroke-width="2.0"/>
<line x1="279.5" y1="234.6" x2="279.5" y2="207.6" stroke="rgb(0,0,0)"  stroke-width="2.0"/>
<line x1="285.5" y1="234.6" x2="285.5" y2="207.6" stroke="rgb(0,0,0)"  stroke-width="2.0"/>
<line x1="282.5" y1="234.6" x2="259.1" y2="248.1" stroke="rgb(0,0,0)"  stroke-width="2.0"/>
<line x1="236.6" y1="248.1" x2="213.2" y2="234.6" stroke="rgb(0,0,0)"  stroke-width="2.0"/>
<line x1="213.2" y1="234.6" x2="213.2" y2="194.6" stroke="rgb(0,0,0)"  stroke-width="2.0"/>
<line x1="213.2" y1="194.6" x2="213.2" y2="167.6" stroke="rgb(0,0,0)"  stroke-width="2.0"/>
<line x1="209.0" y1="194.6" x2="209.0" y2="167.6" stroke="rgb(0,0,0)"  stroke-width="2.0"/>
<line x1="217.4" y1="194.6" x2="217.4" y2="167.6" stroke="rgb(0,0,0)"  stroke-width="2.0"/>
<line x1="213.2" y1="234.6" x2="178.6" y2="254.6" stroke="rgb(0,0,0)"  stroke-width="2.0"/>
<line x1="109.3" y1="254.6" x2="85.9" y2="241.1" stroke="rgb(0,0,0)"  stroke-width="2.0"/>
<line x1="74.6" y1="221.6" x2="74.6" y2="194.6" stroke="rgb(0,0,0)"  stroke-width="2.0"/>
<line x1="317.1" y1="134.6" x2="351.8" y2="114.6" stroke="rgb(0,0,0)"  stroke-width="2.0"/>
<line x1="325.9" y1="137.9" x2="350.2" y2="123.9" stroke="rgb(0,0,0)"  stroke-width="2.0"/>
<line x1="351.8" y1="114.6" x2="386.4" y2="134.6" stroke="rgb(0,0,0)"  stroke-width="2.0"/>
<line x1="386.4" y1="134.6" x2="386.4" y2="174.6" stroke="rgb(0,0,0)"  stroke-width="2.0"/>
<line x1="379.2" y1="140.6" x2="379.2" y2="168.6" stroke="rgb(0,0,0)"  stroke-width="2.0"/>
<line x1="386.4" y1="174.6" x2="351.8" y2="194.6" stroke="rgb(0,0,0)"  stroke-width="2.0"/>
<line x1="351.8" y1="194.6" x2="317.1" y2="174.6" stroke="rgb(0,0,0)"  stroke-width="2.0"/>
<line x1="350.2" y1="185.4" x2="325.9" y2="171.4" stroke="rgb(0,0,0)"  stroke-width="2.0"/>
<line x1="317.1" y1="174.6" x2="317.1" y2="134.6" stroke="rgb(0,0,0)"  stroke-width="2.0"/>
<line x1="143.9" y1="314.6" x2="109.3" y2="294.6" stroke="rgb(0,0,0)"  stroke-width="2.0"/>
<line x1="142.3" y1="305.4" x2="118.1" y2="291.4" stroke="rgb(0,0,0)"  stroke-width="2.0"/>
<line x1="109.3" y1="294.6" x2="109.3" y2="254.6" stroke="rgb(0,0,0)"  stroke-width="2.0"/>
<line x1="109.3" y1="254.6" x2="143.9" y2="234.6" stroke="rgb(0,0,0)"  stroke-width="2.0"/>
<line x1="118.1" y1="257.9" x2="142.3" y2="243.9" stroke="rgb(0,0,0)"  stroke-width="2.0"/>
<line x1="143.9" y1="234.6" x2="178.6" y2="254.6" stroke="rgb(0,0,0)"  stroke-width="2.0"/>
<line x1="178.6" y1="254.6" x2="178.6" y2="294.6" stroke="rgb(0,0,0)"  stroke-width="2.0"/>
<line x1="171.4" y1="260.6" x2="171.4" y2="288.6" stroke="rgb(0,0,0)"  stroke-width="2.0"/>
<line x1="178.6" y1="294.6" x2="143.9" y2="314.6" stroke="rgb(0,0,0)"  stroke-width="2.0"/>
<line x1="40.0" y1="134.6" x2="74.6" y2="114.6" stroke="rgb(0,0,0)"  stroke-width="2.0"/>
<line x1="48.8" y1="137.9" x2="73.0" y2="123.9" stroke="rgb(0,0,0)"  stroke-width="2.0"/>
<line x1="74.6" y1="114.6" x2="109.3" y2="134.6" stroke="rgb(0,0,0)"  stroke-width="2.0"/>
<line x1="109.3" y1="134.6" x2="109.3" y2="174.6" stroke="rgb(0,0,0)"  stroke-width="2.0"/>
<line x1="102.1" y1="140.6" x2="102.1" y2="168.6" stroke="rgb(0,0,0)"  stroke-width="2.0"/>
<line x1="109.3" y1="174.6" x2="74.6" y2="194.6" stroke="rgb(0,0,0)"  stroke-width="2.0"/>
<line x1="74.6" y1="194.6" x2="40.0" y2="174.6" stroke="rgb(0,0,0)"  stroke-width="2.0"/>
<line x1="73.0" y1="185.4" x2="48.8" y2="171.4" stroke="rgb(0,0,0)"  stroke-width="2.0"/>
<line x1="40.0" y1="174.6" x2="40.0" y2="134.6" stroke="rgb(0,0,0)"  stroke-width="2.0"/>
<text x="241.846097" y="262.641016" fill="rgb(255,12,12)"  stroke="rgb(255,12,12)" stroke-width="1" font-size="16" >O</text>
<text x="207.205081" y="162.641016" fill="rgb(12,12,255)"  stroke="rgb(12,12,255)" stroke-width="1" font-size="16" >N</text>
<text x="276.487113" y="202.641016" fill="rgb(255,12,12)"  stroke="rgb(255,12,12)" stroke-width="1" font-size="16" >O</text>
<text x="68.641016" y="242.641016" fill="rgb(255,12,12)"  stroke="rgb(255,12,12)" stroke-width="1" font-size="16" >O</text>
<text x="347.769145" y="322.641016" fill="rgb(102,102,102)"  stroke="rgb(102,102,102)" stroke-width="1" font-size="16" >CH</text>
<text x="371.769145" y="326.321016" fill="rgb(102,102,102)"  stroke="rgb(102,102,102)" stroke-width="1" font-size="13" >3</text>
<text x="345.769145" y="242.641016" fill="rgb(12,12,255)"  stroke="rgb(12,12,255)" stroke-width="1" font-size="16" >NH</text>
<text x="256.487113" y="322.641016" fill="rgb(102,102,102)"  stroke="rgb(102,102,102)" stroke-width="1" font-size="16" >H</text>
<text x="268.487113" y="326.321016" fill="rgb(102,102,102)"  stroke="rgb(102,102,102)" stroke-width="1" font-size="13" >3</text>
<text x="274.987113" y="322.641016" fill="rgb(102,102,102)"  stroke="rgb(102,102,102)" stroke-width="1" font-size="16" >C</text>
<text x="325.769145" y="48.000000" fill="rgb(127,178,255)"  stroke="rgb(127,178,255)" stroke-width="1" font-size="16" >F</text>
<text x="305.769145" y="82.641016" fill="rgb(127,178,255)"  stroke="rgb(127,178,255)" stroke-width="1" font-size="16" >F</text>
<text x="380.410162" y="62.641016" fill="rgb(127,178,255)"  stroke="rgb(127,178,255)" stroke-width="1" font-size="16" >F</text>
<text x="415.051178" y="202.641016" fill="rgb(30,239,30)"  stroke="rgb(30,239,30)" stroke-width="1" font-size="16" >Cl</text>
</svg>
</g>
<text font-size="18.000000" fill ="black" font-family="sans-serif"
x="10.000000" y="20.000000" ></text>
</svg>
