<?xml version="1.0"?>
<svg version="1.1" id="topsvg"
xmlns="http://www.w3.org/2000/svg" xmlns:xlink="http://www.w3.org/1999/xlink"
xmlns:cml="http://www.xml-cml.org/schema" x="0" y="0" width="200px" height="200px" viewBox="0 0 100 100">
<title> - Open Babel Depiction</title>
<rect x="0" y="0" width="100" height="100" fill="white"/>
<g transform="translate(0,0)">
<svg width="100" height="100" x="0" y="0" viewBox="0 0 263.199 173.807"
font-family="sans-serif" stroke="rgb(0,0,0)" stroke-width="2"  stroke-linecap="round">
<line x1="218.0" y1="105.5" x2="208.3" y2="127.5" stroke="rgb(0,0,0)"  stroke-width="2.0"/>
<line x1="208.7" y1="130.5" x2="171.9" y2="134.6" stroke="rgb(0,0,0)"  stroke-width="2.0"/>
<line x1="208.0" y1="124.5" x2="171.2" y2="128.6" stroke="rgb(0,0,0)"  stroke-width="2.0"/>
<line x1="171.5" y1="131.6" x2="149.6" y2="101.7" stroke="rgb(0,0,0)"  stroke-width="2.0"/>
<line x1="149.6" y1="101.7" x2="125.7" y2="104.4" stroke="rgb(0,0,0)"  stroke-width="2.0"/>
<line x1="65.1" y1="46.5" x2="40.0" y2="61.0" stroke="rgb(0,0,0)"  stroke-width="2.0"/>
<line x1="40.0" y1="61.0" x2="40.0" y2="90.0" stroke="rgb(0,0,0)"  stroke-width="2.0"/>
<line x1="50.7" y1="110.4" x2="64.5" y2="119.8" stroke="rgb(0,0,0)"  stroke-width="2.0"/>
<line x1="64.5" y1="119.8" x2="100.3" y2="109.4" stroke="rgb(0,0,0)"  stroke-width="2.0"/>
<line x1="112.8" y1="92.8" x2="112.8" y2="61.0" stroke="rgb(0,0,0)"  stroke-width="2.0"/>
<line x1="112.8" y1="61.0" x2="87.6" y2="46.5" stroke="rgb(0,0,0)"  stroke-width="2.0"/>
<line x1="109.9" y1="126.1" x2="137.0" y2="133.8" stroke="rgb(0,0,0)"  stroke-width="2.0"/>
<line x1="137.0" y1="133.8" x2="121.3" y2="115.6" stroke="rgb(0,0,0)"  stroke-width="2.0"/>
<line x1="82.9" y1="51.3" x2="97.4" y2="76.4" stroke="rgb(0,0,0)"  stroke-width="2.0"/>
<line x1="97.4" y1="76.4" x2="97.4" y2="109.6" stroke="rgb(0,0,0)"  stroke-width="2.0"/>
<line x1="47.8" y1="113.4" x2="63.2" y2="133.8" stroke="rgb(0,0,0)"  stroke-width="2.0"/>
<line x1="63.2" y1="133.8" x2="85.1" y2="126.6" stroke="rgb(0,0,0)"  stroke-width="2.0"/>
<text x="217.198976" y="101.580659" fill="rgb(30,239,30)"  stroke="rgb(30,239,30)" stroke-width="1" font-size="16" >Cl</text>
<text x="117.576233" y="101.796097" fill="rgb(12,12,255)"  stroke="rgb(12,12,255)" stroke-width="1" font-size="16" >+</text>
<text x="106.776233" y="113.828097" fill="rgb(12,12,255)"  stroke="rgb(12,12,255)" stroke-width="1" font-size="16" >N</text>
<text x="70.384082" y="48.000000" fill="rgb(12,12,255)"  stroke="rgb(12,12,255)" stroke-width="1" font-size="16" >N</text>
<text x="34.000000" y="110.993372" fill="rgb(12,12,255)"  stroke="rgb(12,12,255)" stroke-width="1" font-size="16" >N</text>
<text x="91.413327" y="130.597790" fill="rgb(12,12,255)"  stroke="rgb(12,12,255)" stroke-width="1" font-size="16" >N</text>
</svg>
</g>
<text font-size="18.000000" fill ="black" font-family="sans-serif"
x="10.000000" y="20.000000" ></text>
</svg>
