<?xml version="1.0"?>
<svg version="1.1" id="topsvg"
xmlns="http://www.w3.org/2000/svg" xmlns:xlink="http://www.w3.org/1999/xlink"
xmlns:cml="http://www.xml-cml.org/schema" x="0" y="0" width="200px" height="200px" viewBox="0 0 100 100">
<title> - Open Babel Depiction</title>
<rect x="0" y="0" width="100" height="100" fill="white"/>
<g transform="translate(0,0)">
<svg width="100" height="100" x="0" y="0" viewBox="0 0 318.3 316.683"
font-family="sans-serif" stroke="rgb(0,0,0)" stroke-width="2"  stroke-linecap="round">
<line x1="143.1" y1="119.2" x2="143.1" y2="146.2" stroke="rgb(0,0,0)"  stroke-width="2.0"/>
<line x1="137.1" y1="119.2" x2="137.1" y2="146.2" stroke="rgb(0,0,0)"  stroke-width="2.0"/>
<line x1="172.5" y1="169.7" x2="198.2" y2="161.4" stroke="rgb(0,0,0)"  stroke-width="2.0"/>
<line x1="220.2" y1="166.1" x2="240.3" y2="184.1" stroke="rgb(0,0,0)"  stroke-width="2.0"/>
<line x1="240.3" y1="184.1" x2="265.9" y2="175.8" stroke="rgb(0,0,0)"  stroke-width="2.0"/>
<line x1="213.2" y1="144.7" x2="218.8" y2="118.3" stroke="rgb(0,0,0)"  stroke-width="2.0"/>
<line x1="217.9" y1="115.4" x2="243.6" y2="107.1" stroke="rgb(0,0,0)"  stroke-width="2.0"/>
<line x1="219.8" y1="121.1" x2="245.5" y2="112.8" stroke="rgb(0,0,0)"  stroke-width="2.0"/>
<line x1="218.8" y1="118.3" x2="198.8" y2="100.2" stroke="rgb(0,0,0)"  stroke-width="2.0"/>
<line x1="191.8" y1="78.8" x2="197.4" y2="52.4" stroke="rgb(0,0,0)"  stroke-width="2.0"/>
<line x1="197.4" y1="52.4" x2="223.1" y2="44.0" stroke="rgb(0,0,0)"  stroke-width="2.0"/>
<line x1="167.8" y1="218.3" x2="183.6" y2="240.1" stroke="rgb(0,0,0)"  stroke-width="2.0"/>
<line x1="183.6" y1="240.1" x2="172.7" y2="264.8" stroke="rgb(0,0,0)"  stroke-width="2.0"/>
<line x1="122.6" y1="209.5" x2="106.7" y2="231.4" stroke="rgb(0,0,0)"  stroke-width="2.0"/>
<line x1="117.7" y1="206.0" x2="101.8" y2="227.9" stroke="rgb(0,0,0)"  stroke-width="2.0"/>
<line x1="95.4" y1="165.7" x2="69.7" y2="157.4" stroke="rgb(0,0,0)"  stroke-width="2.0"/>
<line x1="69.7" y1="157.4" x2="49.7" y2="175.4" stroke="rgb(0,0,0)"  stroke-width="2.0"/>
<line x1="147.1" y1="207.8" x2="120.1" y2="207.8" stroke="rgb(0,0,0)"  stroke-width="2.0"/>
<line x1="120.1" y1="207.8" x2="111.8" y2="182.1" stroke="rgb(0,0,0)"  stroke-width="2.0"/>
<line x1="118.3" y1="162.1" x2="140.1" y2="146.2" stroke="rgb(0,0,0)"  stroke-width="2.0"/>
<line x1="140.1" y1="146.2" x2="172.5" y2="169.7" stroke="rgb(0,0,0)"  stroke-width="2.0"/>
<line x1="172.5" y1="169.7" x2="164.1" y2="195.4" stroke="rgb(0,0,0)"  stroke-width="2.0"/>
<text x="22.000000" y="192.142936" fill="rgb(255,12,12)"  stroke="rgb(255,12,12)" stroke-width="1" font-size="16" >HO</text>
<text x="101.768054" y="177.738392" fill="rgb(12,12,255)"  stroke="rgb(12,12,255)" stroke-width="1" font-size="16" >N</text>
<text x="90.617323" y="248.141332" fill="rgb(255,12,12)"  stroke="rgb(255,12,12)" stroke-width="1" font-size="16" >O</text>
<text x="149.370678" y="284.683151" fill="rgb(255,12,12)"  stroke="rgb(255,12,12)" stroke-width="1" font-size="16" >HO</text>
<text x="154.128733" y="215.780653" fill="rgb(12,12,255)"  stroke="rgb(12,12,255)" stroke-width="1" font-size="16" >N</text>
<text x="229.481077" y="48.000000" fill="rgb(255,12,12)"  stroke="rgb(255,12,12)" stroke-width="1" font-size="16" >OH</text>
<text x="134.128733" y="114.226982" fill="rgb(255,12,12)"  stroke="rgb(255,12,12)" stroke-width="1" font-size="16" >O</text>
<text x="171.122348" y="99.486584" fill="rgb(12,12,255)"  stroke="rgb(12,12,255)" stroke-width="1" font-size="16" >HN</text>
<text x="250.890402" y="113.891128" fill="rgb(255,12,12)"  stroke="rgb(255,12,12)" stroke-width="1" font-size="16" >O</text>
<text x="272.299728" y="179.782257" fill="rgb(255,12,12)"  stroke="rgb(255,12,12)" stroke-width="1" font-size="16" >OH</text>
<text x="204.531674" y="165.377712" fill="rgb(12,12,255)"  stroke="rgb(12,12,255)" stroke-width="1" font-size="16" >N</text>
</svg>
</g>
<text font-size="18.000000" fill ="black" font-family="sans-serif"
x="10.000000" y="20.000000" ></text>
</svg>
