<?xml version="1.0"?>
<svg version="1.1" id="topsvg"
xmlns="http://www.w3.org/2000/svg" xmlns:xlink="http://www.w3.org/1999/xlink"
xmlns:cml="http://www.xml-cml.org/schema" x="0" y="0" width="200px" height="200px" viewBox="0 0 100 100">
<title> - Open Babel Depiction</title>
<rect x="0" y="0" width="100" height="100" fill="white"/>
<g transform="translate(0,0)">
<svg width="100" height="100" x="0" y="0" viewBox="0 0 230.26 433.422"
font-family="sans-serif" stroke="rgb(0,0,0)" stroke-width="2"  stroke-linecap="round">
<line x1="182.6" y1="283.9" x2="169.0" y2="265.2" stroke="rgb(0,0,0)"  stroke-width="2.0"/>
<line x1="169.0" y1="265.2" x2="133.1" y2="269.0" stroke="rgb(0,0,0)"  stroke-width="2.0"/>
<line x1="133.1" y1="269.0" x2="118.4" y2="302.0" stroke="rgb(0,0,0)"  stroke-width="2.0"/>
<line x1="118.4" y1="302.0" x2="139.6" y2="331.2" stroke="rgb(0,0,0)"  stroke-width="2.0"/>
<line x1="139.6" y1="331.2" x2="124.9" y2="364.2" stroke="rgb(0,0,0)"  stroke-width="2.0"/>
<line x1="124.9" y1="364.2" x2="138.5" y2="382.9" stroke="rgb(0,0,0)"  stroke-width="2.0"/>
<line x1="118.4" y1="302.0" x2="82.5" y2="305.7" stroke="rgb(0,0,0)"  stroke-width="2.0"/>
<line x1="85.2" y1="307.0" x2="75.8" y2="328.1" stroke="rgb(0,0,0)"  stroke-width="2.0"/>
<line x1="79.7" y1="304.5" x2="70.3" y2="325.6" stroke="rgb(0,0,0)"  stroke-width="2.0"/>
<line x1="82.5" y1="305.7" x2="68.9" y2="287.0" stroke="rgb(0,0,0)"  stroke-width="2.0"/>
<line x1="66.5" y1="264.6" x2="75.9" y2="243.5" stroke="rgb(0,0,0)"  stroke-width="2.0"/>
<polygon points="75.929763 243.506117 52.274936 250.014373 51.438708 242.058198 " stroke-width="2.000000" fill="rgb(0,0,0)"  stroke="rgb(0,0,0)" />
<line x1="87.9" y1="193.4" x2="89.5" y2="193.5" stroke="rgb(0,0,0)"  stroke-width="1.0"/>
<line x1="87.5" y1="189.5" x2="90.4" y2="189.7" stroke="rgb(0,0,0)"  stroke-width="1.0"/>
<line x1="87.2" y1="185.6" x2="91.3" y2="185.9" stroke="rgb(0,0,0)"  stroke-width="1.0"/>
<line x1="86.8" y1="181.7" x2="92.2" y2="182.1" stroke="rgb(0,0,0)"  stroke-width="1.0"/>
<line x1="86.4" y1="177.8" x2="93.1" y2="178.3" stroke="rgb(0,0,0)"  stroke-width="1.0"/>
<line x1="86.0" y1="173.9" x2="94.0" y2="174.4" stroke="rgb(0,0,0)"  stroke-width="1.0"/>
<line x1="127.6" y1="246.0" x2="127.3" y2="247.6" stroke="rgb(0,0,0)"  stroke-width="1.0"/>
<line x1="131.6" y1="246.3" x2="130.9" y2="249.1" stroke="rgb(0,0,0)"  stroke-width="1.0"/>
<line x1="135.5" y1="246.7" x2="134.5" y2="250.7" stroke="rgb(0,0,0)"  stroke-width="1.0"/>
<line x1="139.4" y1="247.0" x2="138.1" y2="252.3" stroke="rgb(0,0,0)"  stroke-width="1.0"/>
<line x1="143.3" y1="247.3" x2="141.6" y2="253.9" stroke="rgb(0,0,0)"  stroke-width="1.0"/>
<line x1="147.2" y1="247.7" x2="145.2" y2="255.4" stroke="rgb(0,0,0)"  stroke-width="1.0"/>
<line x1="128.0" y1="197.6" x2="132.2" y2="188.4" stroke="rgb(0,0,0)"  stroke-width="2.0"/>
<line x1="122.5" y1="196.5" x2="119.7" y2="53.0" stroke="rgb(0,0,0)"  stroke-width="2.0"/>
<line x1="88.4" y1="198.3" x2="67.2" y2="227.5" stroke="rgb(0,0,0)"  stroke-width="2.0"/>
<line x1="67.2" y1="227.5" x2="88.4" y2="256.8" stroke="rgb(0,0,0)"  stroke-width="2.0"/>
<line x1="88.4" y1="256.8" x2="122.8" y2="245.6" stroke="rgb(0,0,0)"  stroke-width="2.0"/>
<line x1="122.8" y1="245.6" x2="122.8" y2="222.5" stroke="rgb(0,0,0)"  stroke-width="2.0"/>
<line x1="110.4" y1="205.5" x2="88.4" y2="198.3" stroke="rgb(0,0,0)"  stroke-width="2.0"/>
<line x1="122.8" y1="245.6" x2="98.8" y2="255.8" stroke="rgb(0,0,0)"  stroke-width="2.0"/>
<line x1="98.8" y1="255.8" x2="75.9" y2="243.5" stroke="rgb(0,0,0)"  stroke-width="2.0"/>
<line x1="75.9" y1="243.5" x2="71.3" y2="217.9" stroke="rgb(0,0,0)"  stroke-width="2.0"/>
<line x1="71.3" y1="217.9" x2="88.4" y2="198.3" stroke="rgb(0,0,0)"  stroke-width="2.0"/>
<text x="34.000000" y="255.282487" fill="rgb(191,191,191)"  stroke="rgb(191,191,191)" stroke-width="1" font-size="16" >H</text>
<text x="93.494960" y="48.000000" fill="rgb(102,102,102)"  stroke="rgb(102,102,102)" stroke-width="1" font-size="16" >H</text>
<text x="105.494960" y="51.680000" fill="rgb(102,102,102)"  stroke="rgb(102,102,102)" stroke-width="1" font-size="13" >3</text>
<text x="111.994960" y="48.000000" fill="rgb(102,102,102)"  stroke="rgb(102,102,102)" stroke-width="1" font-size="16" >C</text>
<text x="133.454925" y="184.477340" fill="rgb(102,102,102)"  stroke="rgb(102,102,102)" stroke-width="1" font-size="16" >CH</text>
<text x="157.454925" y="188.157340" fill="rgb(102,102,102)"  stroke="rgb(102,102,102)" stroke-width="1" font-size="13" >3</text>
<text x="126.660476" y="206.205613" fill="rgb(12,12,255)"  stroke="rgb(12,12,255)" stroke-width="1" font-size="13" >+</text>
<text x="116.760476" y="217.481613" fill="rgb(12,12,255)"  stroke="rgb(12,12,255)" stroke-width="1" font-size="16" >N</text>
<text x="151.785491" y="262.466890" fill="rgb(191,191,191)"  stroke="rgb(191,191,191)" stroke-width="1" font-size="16" >H</text>
<text x="84.800260" y="170.269628" fill="rgb(191,191,191)"  stroke="rgb(191,191,191)" stroke-width="1" font-size="16" >H</text>
<text x="186.259917" y="302.409181" fill="rgb(102,102,102)"  stroke="rgb(102,102,102)" stroke-width="1" font-size="16" >CH</text>
<text x="210.259917" y="306.089181" fill="rgb(102,102,102)"  stroke="rgb(102,102,102)" stroke-width="1" font-size="13" >3</text>
<text x="55.235314" y="284.510390" fill="rgb(255,12,12)"  stroke="rgb(255,12,12)" stroke-width="1" font-size="16" >O</text>
<text x="61.776179" y="346.742565" fill="rgb(255,12,12)"  stroke="rgb(255,12,12)" stroke-width="1" font-size="16" >O</text>
<text x="142.176570" y="401.421999" fill="rgb(102,102,102)"  stroke="rgb(102,102,102)" stroke-width="1" font-size="16" >CH</text>
<text x="166.176570" y="405.101999" fill="rgb(102,102,102)"  stroke="rgb(102,102,102)" stroke-width="1" font-size="13" >3</text>
</svg>
</g>
<text font-size="18.000000" fill ="black" font-family="sans-serif"
x="10.000000" y="20.000000" ></text>
</svg>
