<?xml version="1.0"?>
<svg version="1.1" id="topsvg"
xmlns="http://www.w3.org/2000/svg" xmlns:xlink="http://www.w3.org/1999/xlink"
xmlns:cml="http://www.xml-cml.org/schema" x="0" y="0" width="200px" height="200px" viewBox="0 0 100 100">
<title> - Open Babel Depiction</title>
<rect x="0" y="0" width="100" height="100" fill="white"/>
<g transform="translate(0,0)">
<svg width="100" height="100" x="0" y="0" viewBox="0 0 379.763 304.914"
font-family="sans-serif" stroke="rgb(0,0,0)" stroke-width="2"  stroke-linecap="round">
<line x1="129.6" y1="53.0" x2="129.6" y2="67.0" stroke="rgb(0,0,0)"  stroke-width="2.0"/>
<line x1="140.8" y1="86.5" x2="164.2" y2="100.0" stroke="rgb(0,0,0)"  stroke-width="2.0"/>
<line x1="192.9" y1="199.6" x2="167.1" y2="207.5" stroke="rgb(0,0,0)"  stroke-width="2.0"/>
<line x1="65.8" y1="238.8" x2="52.4" y2="242.9" stroke="rgb(0,0,0)"  stroke-width="2.0"/>
<line x1="233.5" y1="100.0" x2="233.5" y2="140.0" stroke="rgb(0,0,0)"  stroke-width="2.0"/>
<line x1="226.3" y1="106.0" x2="226.3" y2="134.0" stroke="rgb(0,0,0)"  stroke-width="2.0"/>
<line x1="233.5" y1="140.0" x2="198.9" y2="160.0" stroke="rgb(0,0,0)"  stroke-width="2.0"/>
<line x1="198.9" y1="160.0" x2="164.2" y2="140.0" stroke="rgb(0,0,0)"  stroke-width="2.0"/>
<line x1="197.3" y1="150.8" x2="173.0" y2="136.8" stroke="rgb(0,0,0)"  stroke-width="2.0"/>
<line x1="164.2" y1="140.0" x2="164.2" y2="100.0" stroke="rgb(0,0,0)"  stroke-width="2.0"/>
<line x1="164.2" y1="100.0" x2="198.9" y2="80.0" stroke="rgb(0,0,0)"  stroke-width="2.0"/>
<line x1="173.0" y1="103.2" x2="197.3" y2="89.2" stroke="rgb(0,0,0)"  stroke-width="2.0"/>
<line x1="198.9" y1="80.0" x2="233.5" y2="100.0" stroke="rgb(0,0,0)"  stroke-width="2.0"/>
<line x1="339.8" y1="231.9" x2="322.4" y2="195.8" stroke="rgb(0,0,0)"  stroke-width="2.0"/>
<line x1="322.4" y1="195.8" x2="282.5" y2="192.8" stroke="rgb(0,0,0)"  stroke-width="2.0"/>
<line x1="315.9" y1="202.6" x2="288.0" y2="200.5" stroke="rgb(0,0,0)"  stroke-width="2.0"/>
<line x1="282.5" y1="192.8" x2="260.0" y2="225.9" stroke="rgb(0,0,0)"  stroke-width="2.0"/>
<line x1="260.0" y1="225.9" x2="277.3" y2="261.9" stroke="rgb(0,0,0)"  stroke-width="2.0"/>
<line x1="269.1" y1="228.2" x2="281.2" y2="253.4" stroke="rgb(0,0,0)"  stroke-width="2.0"/>
<line x1="277.3" y1="261.9" x2="317.2" y2="264.9" stroke="rgb(0,0,0)"  stroke-width="2.0"/>
<line x1="317.2" y1="264.9" x2="339.8" y2="231.9" stroke="rgb(0,0,0)"  stroke-width="2.0"/>
<line x1="314.7" y1="255.9" x2="330.4" y2="232.8" stroke="rgb(0,0,0)"  stroke-width="2.0"/>
<line x1="107.5" y1="262.1" x2="87.8" y2="243.8" stroke="rgb(0,0,0)"  stroke-width="2.0"/>
<line x1="81.1" y1="222.2" x2="87.1" y2="195.9" stroke="rgb(0,0,0)"  stroke-width="2.0"/>
<line x1="87.1" y1="195.9" x2="125.3" y2="184.1" stroke="rgb(0,0,0)"  stroke-width="2.0"/>
<line x1="125.3" y1="184.1" x2="145.1" y2="202.5" stroke="rgb(0,0,0)"  stroke-width="2.0"/>
<line x1="151.8" y1="224.0" x2="145.8" y2="250.3" stroke="rgb(0,0,0)"  stroke-width="2.0"/>
<line x1="145.8" y1="250.3" x2="107.5" y2="262.1" stroke="rgb(0,0,0)"  stroke-width="2.0"/>
<line x1="260.0" y1="225.9" x2="220.1" y2="228.9" stroke="rgb(0,0,0)"  stroke-width="2.0"/>
<line x1="220.1" y1="228.9" x2="192.9" y2="199.6" stroke="rgb(0,0,0)"  stroke-width="2.0"/>
<line x1="192.9" y1="199.6" x2="198.9" y2="160.0" stroke="rgb(0,0,0)"  stroke-width="2.0"/>
<line x1="233.5" y1="140.0" x2="258.6" y2="149.9" stroke="rgb(0,0,0)"  stroke-width="2.0"/>
<line x1="274.6" y1="167.0" x2="282.5" y2="192.8" stroke="rgb(0,0,0)"  stroke-width="2.0"/>
<text x="72.222912" y="242.923854" fill="rgb(12,12,255)"  stroke="rgb(12,12,255)" stroke-width="1" font-size="16" >N</text>
<text x="264.729306" y="162.613641" fill="rgb(178,178,0)"  stroke="rgb(178,178,0)" stroke-width="1" font-size="16" >S</text>
<text x="14.000000" y="254.714061" fill="rgb(102,102,102)"  stroke="rgb(102,102,102)" stroke-width="1" font-size="16" >H</text>
<text x="26.000000" y="258.394061" fill="rgb(102,102,102)"  stroke="rgb(102,102,102)" stroke-width="1" font-size="13" >3</text>
<text x="32.500000" y="254.714061" fill="rgb(102,102,102)"  stroke="rgb(102,102,102)" stroke-width="1" font-size="16" >C</text>
<text x="125.571307" y="48.000000" fill="rgb(102,102,102)"  stroke="rgb(102,102,102)" stroke-width="1" font-size="16" >CH</text>
<text x="149.571307" y="51.680000" fill="rgb(102,102,102)"  stroke="rgb(102,102,102)" stroke-width="1" font-size="13" >3</text>
<text x="148.668737" y="219.343440" fill="rgb(12,12,255)"  stroke="rgb(12,12,255)" stroke-width="1" font-size="16" >N</text>
<text x="123.571307" y="88.000000" fill="rgb(178,178,0)"  stroke="rgb(178,178,0)" stroke-width="1" font-size="16" >S</text>
</svg>
</g>
<text font-size="18.000000" fill ="black" font-family="sans-serif"
x="10.000000" y="20.000000" ></text>
</svg>
