<?xml version="1.0"?>
<svg version="1.1" id="topsvg"
xmlns="http://www.w3.org/2000/svg" xmlns:xlink="http://www.w3.org/1999/xlink"
xmlns:cml="http://www.xml-cml.org/schema" x="0" y="0" width="200px" height="200px" viewBox="0 0 100 100">
<title> - Open Babel Depiction</title>
<rect x="0" y="0" width="100" height="100" fill="white"/>
<g transform="translate(0,0)">
<svg width="100" height="100" x="0" y="0" viewBox="0 0 243.923 240"
font-family="sans-serif" stroke="rgb(0,0,0)" stroke-width="2"  stroke-linecap="round">
<line x1="53.5" y1="102.0" x2="40.0" y2="125.4" stroke="rgb(0,0,0)"  stroke-width="2.0"/>
<line x1="40.0" y1="125.4" x2="53.5" y2="148.7" stroke="rgb(0,0,0)"  stroke-width="2.0"/>
<line x1="73.0" y1="160.0" x2="87.0" y2="160.0" stroke="rgb(0,0,0)"  stroke-width="2.0"/>
<line x1="103.0" y1="173.0" x2="103.0" y2="187.0" stroke="rgb(0,0,0)"  stroke-width="2.0"/>
<line x1="97.0" y1="173.0" x2="97.0" y2="187.0" stroke="rgb(0,0,0)"  stroke-width="2.0"/>
<line x1="113.0" y1="160.0" x2="140.0" y2="160.0" stroke="rgb(0,0,0)"  stroke-width="2.0"/>
<line x1="140.0" y1="160.0" x2="153.5" y2="183.4" stroke="rgb(0,0,0)"  stroke-width="2.0"/>
<line x1="100.0" y1="147.0" x2="100.0" y2="133.0" stroke="rgb(0,0,0)"  stroke-width="2.0"/>
<line x1="111.3" y1="113.5" x2="134.6" y2="100.0" stroke="rgb(0,0,0)"  stroke-width="2.0"/>
<line x1="169.3" y1="40.0" x2="203.9" y2="60.0" stroke="rgb(0,0,0)"  stroke-width="2.0"/>
<line x1="170.9" y1="49.2" x2="195.1" y2="63.2" stroke="rgb(0,0,0)"  stroke-width="2.0"/>
<line x1="203.9" y1="60.0" x2="203.9" y2="100.0" stroke="rgb(0,0,0)"  stroke-width="2.0"/>
<line x1="203.9" y1="100.0" x2="169.3" y2="120.0" stroke="rgb(0,0,0)"  stroke-width="2.0"/>
<line x1="195.1" y1="96.8" x2="170.9" y2="110.8" stroke="rgb(0,0,0)"  stroke-width="2.0"/>
<line x1="169.3" y1="120.0" x2="134.6" y2="100.0" stroke="rgb(0,0,0)"  stroke-width="2.0"/>
<line x1="134.6" y1="100.0" x2="134.6" y2="60.0" stroke="rgb(0,0,0)"  stroke-width="2.0"/>
<line x1="141.8" y1="94.0" x2="141.8" y2="66.0" stroke="rgb(0,0,0)"  stroke-width="2.0"/>
<line x1="134.6" y1="60.0" x2="169.3" y2="40.0" stroke="rgb(0,0,0)"  stroke-width="2.0"/>
<text x="56.000000" y="98.717968" fill="rgb(102,102,102)"  stroke="rgb(102,102,102)" stroke-width="1" font-size="16" >CH</text>
<text x="80.000000" y="102.397968" fill="rgb(102,102,102)"  stroke="rgb(102,102,102)" stroke-width="1" font-size="13" >3</text>
<text x="54.000000" y="168.000000" fill="rgb(255,12,12)"  stroke="rgb(255,12,12)" stroke-width="1" font-size="16" >O</text>
<text x="94.000000" y="168.000000" fill="rgb(255,127,0)"  stroke="rgb(255,127,0)" stroke-width="1" font-size="16" >P</text>
<text x="94.000000" y="208.000000" fill="rgb(178,178,0)"  stroke="rgb(178,178,0)" stroke-width="1" font-size="16" >S</text>
<text x="156.000000" y="202.641016" fill="rgb(102,102,102)"  stroke="rgb(102,102,102)" stroke-width="1" font-size="16" >CH</text>
<text x="180.000000" y="206.321016" fill="rgb(102,102,102)"  stroke="rgb(102,102,102)" stroke-width="1" font-size="13" >3</text>
<text x="94.000000" y="128.000000" fill="rgb(178,178,0)"  stroke="rgb(178,178,0)" stroke-width="1" font-size="16" >S</text>
</svg>
</g>
<text font-size="18.000000" fill ="black" font-family="sans-serif"
x="10.000000" y="20.000000" ></text>
</svg>
