<?xml version="1.0"?>
<svg version="1.1" id="topsvg"
xmlns="http://www.w3.org/2000/svg" xmlns:xlink="http://www.w3.org/1999/xlink"
xmlns:cml="http://www.xml-cml.org/schema" x="0" y="0" width="200px" height="200px" viewBox="0 0 100 100">
<title> - Open Babel Depiction</title>
<rect x="0" y="0" width="100" height="100" fill="white"/>
<g transform="translate(0,0)">
<svg width="100" height="100" x="0" y="0" viewBox="0 0 644.28 538.755"
font-family="sans-serif" stroke="rgb(0,0,0)" stroke-width="2"  stroke-linecap="round">
<line x1="79.4" y1="485.8" x2="76.5" y2="459.0" stroke="rgb(0,0,0)"  stroke-width="2.0"/>
<line x1="75.3" y1="461.7" x2="50.7" y2="450.7" stroke="rgb(0,0,0)"  stroke-width="2.0"/>
<line x1="77.8" y1="456.2" x2="53.1" y2="445.3" stroke="rgb(0,0,0)"  stroke-width="2.0"/>
<line x1="76.5" y1="459.0" x2="108.9" y2="435.5" stroke="rgb(0,0,0)"  stroke-width="2.0"/>
<line x1="135.7" y1="359.2" x2="132.9" y2="332.4" stroke="rgb(0,0,0)"  stroke-width="2.0"/>
<line x1="132.9" y1="332.4" x2="111.1" y2="348.3" stroke="rgb(0,0,0)"  stroke-width="2.0"/>
<line x1="176.2" y1="284.3" x2="189.7" y2="260.9" stroke="rgb(0,0,0)"  stroke-width="2.0"/>
<line x1="176.2" y1="284.3" x2="216.2" y2="284.3" stroke="rgb(0,0,0)"  stroke-width="2.0"/>
<line x1="216.2" y1="284.3" x2="229.7" y2="260.9" stroke="rgb(0,0,0)"  stroke-width="2.0"/>
<line x1="249.2" y1="249.7" x2="263.2" y2="249.7" stroke="rgb(0,0,0)"  stroke-width="2.0"/>
<line x1="279.2" y1="262.7" x2="279.2" y2="276.7" stroke="rgb(0,0,0)"  stroke-width="2.0"/>
<line x1="273.2" y1="262.7" x2="273.2" y2="276.7" stroke="rgb(0,0,0)"  stroke-width="2.0"/>
<line x1="289.2" y1="249.7" x2="303.2" y2="249.7" stroke="rgb(0,0,0)"  stroke-width="2.0"/>
<line x1="276.2" y1="236.7" x2="276.2" y2="222.7" stroke="rgb(0,0,0)"  stroke-width="2.0"/>
<line x1="276.2" y1="196.7" x2="276.2" y2="182.7" stroke="rgb(0,0,0)"  stroke-width="2.0"/>
<line x1="263.2" y1="172.7" x2="249.2" y2="172.7" stroke="rgb(0,0,0)"  stroke-width="2.0"/>
<line x1="263.2" y1="166.7" x2="249.2" y2="166.7" stroke="rgb(0,0,0)"  stroke-width="2.0"/>
<line x1="276.2" y1="156.7" x2="276.2" y2="142.7" stroke="rgb(0,0,0)"  stroke-width="2.0"/>
<line x1="289.2" y1="169.7" x2="303.2" y2="169.7" stroke="rgb(0,0,0)"  stroke-width="2.0"/>
<line x1="322.7" y1="158.4" x2="336.2" y2="135.0" stroke="rgb(0,0,0)"  stroke-width="2.0"/>
<line x1="336.2" y1="135.0" x2="376.2" y2="135.0" stroke="rgb(0,0,0)"  stroke-width="2.0"/>
<line x1="376.2" y1="135.0" x2="381.6" y2="161.5" stroke="rgb(0,0,0)"  stroke-width="2.0"/>
<line x1="433.9" y1="105.6" x2="454.9" y2="88.6" stroke="rgb(0,0,0)"  stroke-width="2.0"/>
<line x1="433.9" y1="105.6" x2="459.1" y2="115.3" stroke="rgb(0,0,0)"  stroke-width="2.0"/>
<line x1="573.2" y1="109.0" x2="594.2" y2="126.0" stroke="rgb(0,0,0)"  stroke-width="2.0"/>
<line x1="427.7" y1="100.5" x2="428.8" y2="99.4" stroke="rgb(0,0,0)"  stroke-width="1.0"/>
<line x1="422.7" y1="96.5" x2="424.7" y2="94.4" stroke="rgb(0,0,0)"  stroke-width="1.0"/>
<line x1="417.7" y1="92.4" x2="420.6" y2="89.4" stroke="rgb(0,0,0)"  stroke-width="1.0"/>
<line x1="412.7" y1="88.3" x2="416.6" y2="84.5" stroke="rgb(0,0,0)"  stroke-width="1.0"/>
<line x1="407.7" y1="84.2" x2="412.5" y2="79.5" stroke="rgb(0,0,0)"  stroke-width="1.0"/>
<line x1="402.8" y1="80.2" x2="408.4" y2="74.5" stroke="rgb(0,0,0)"  stroke-width="1.0"/>
<line x1="405.6" y1="77.3" x2="395.9" y2="52.1" stroke="rgb(0,0,0)"  stroke-width="2.0"/>
<line x1="405.6" y1="77.3" x2="422.6" y2="56.4" stroke="rgb(0,0,0)"  stroke-width="2.0"/>
<polygon points="405.590826 77.343217 371.766527 99.066863 368.134603 91.938811 " stroke-width="2.000000" fill="rgb(0,0,0)"  stroke="rgb(0,0,0)" />
<line x1="364.6" y1="96.6" x2="364.6" y2="95.0" stroke="rgb(0,0,0)"  stroke-width="1.0"/>
<line x1="360.4" y1="97.4" x2="360.2" y2="94.6" stroke="rgb(0,0,0)"  stroke-width="1.0"/>
<line x1="356.1" y1="98.3" x2="355.9" y2="94.2" stroke="rgb(0,0,0)"  stroke-width="1.0"/>
<line x1="351.9" y1="99.2" x2="351.6" y2="93.7" stroke="rgb(0,0,0)"  stroke-width="1.0"/>
<line x1="347.6" y1="100.0" x2="347.3" y2="93.3" stroke="rgb(0,0,0)"  stroke-width="1.0"/>
<line x1="343.4" y1="100.9" x2="343.0" y2="92.9" stroke="rgb(0,0,0)"  stroke-width="1.0"/>
<polygon points="376.207943 135.010371 365.999811 96.128575 373.901318 94.877099 " stroke-width="2.000000" fill="rgb(0,0,0)"  stroke="rgb(0,0,0)" />
<line x1="370.0" y1="95.5" x2="355.2" y2="72.9" stroke="rgb(0,0,0)"  stroke-width="2.0"/>
<polygon points="176.207943 284.292403 138.039178 271.677119 141.293072 264.368755 " stroke-width="2.000000" fill="rgb(0,0,0)"  stroke="rgb(0,0,0)" />
<line x1="139.7" y1="268.0" x2="121.6" y2="248.0" stroke="rgb(0,0,0)"  stroke-width="2.0"/>
<line x1="139.7" y1="268.0" x2="148.0" y2="242.3" stroke="rgb(0,0,0)"  stroke-width="2.0"/>
<line x1="134.9" y1="274.5" x2="133.7" y2="273.4" stroke="rgb(0,0,0)"  stroke-width="1.0"/>
<line x1="131.1" y1="279.7" x2="129.0" y2="277.8" stroke="rgb(0,0,0)"  stroke-width="1.0"/>
<line x1="127.3" y1="284.9" x2="124.2" y2="282.1" stroke="rgb(0,0,0)"  stroke-width="1.0"/>
<line x1="123.5" y1="290.1" x2="119.4" y2="286.4" stroke="rgb(0,0,0)"  stroke-width="1.0"/>
<line x1="119.7" y1="295.2" x2="114.7" y2="290.7" stroke="rgb(0,0,0)"  stroke-width="1.0"/>
<line x1="115.9" y1="300.4" x2="109.9" y2="295.1" stroke="rgb(0,0,0)"  stroke-width="1.0"/>
<polygon points="112.900901 297.748730 90.044829 312.303454 86.790936 304.995090 " stroke-width="2.000000" fill="rgb(0,0,0)"  stroke="rgb(0,0,0)" />
<polygon points="132.900901 332.389746 109.436799 299.748730 116.365002 295.748730 " stroke-width="2.000000" fill="rgb(0,0,0)"  stroke="rgb(0,0,0)" />
<line x1="112.9" y1="297.7" x2="91.1" y2="281.9" stroke="rgb(0,0,0)"  stroke-width="2.0"/>
<line x1="526.2" y1="148.6" x2="535.9" y2="123.3" stroke="rgb(0,0,0)"  stroke-width="2.0"/>
<line x1="535.9" y1="123.3" x2="504.8" y2="98.2" stroke="rgb(0,0,0)"  stroke-width="2.0"/>
<line x1="504.8" y1="98.2" x2="482.1" y2="112.9" stroke="rgb(0,0,0)"  stroke-width="2.0"/>
<line x1="474.6" y1="132.5" x2="481.6" y2="158.6" stroke="rgb(0,0,0)"  stroke-width="2.0"/>
<line x1="481.6" y1="158.6" x2="508.3" y2="160.0" stroke="rgb(0,0,0)"  stroke-width="2.0"/>
<line x1="487.9" y1="151.7" x2="506.7" y2="152.7" stroke="rgb(0,0,0)"  stroke-width="2.0"/>
<line x1="177.8" y1="428.2" x2="173.6" y2="388.4" stroke="rgb(0,0,0)"  stroke-width="2.0"/>
<line x1="170.0" y1="423.0" x2="167.1" y2="395.2" stroke="rgb(0,0,0)"  stroke-width="2.0"/>
<line x1="173.6" y1="388.4" x2="149.0" y2="377.5" stroke="rgb(0,0,0)"  stroke-width="2.0"/>
<line x1="126.4" y1="379.9" x2="104.7" y2="395.7" stroke="rgb(0,0,0)"  stroke-width="2.0"/>
<line x1="129.0" y1="386.9" x2="113.8" y2="398.0" stroke="rgb(0,0,0)"  stroke-width="2.0"/>
<line x1="104.7" y1="395.7" x2="108.9" y2="435.5" stroke="rgb(0,0,0)"  stroke-width="2.0"/>
<line x1="108.9" y1="435.5" x2="145.4" y2="451.7" stroke="rgb(0,0,0)"  stroke-width="2.0"/>
<line x1="117.3" y1="431.3" x2="142.9" y2="442.7" stroke="rgb(0,0,0)"  stroke-width="2.0"/>
<line x1="145.4" y1="451.7" x2="177.8" y2="428.2" stroke="rgb(0,0,0)"  stroke-width="2.0"/>
<line x1="548.4" y1="44.3" x2="523.2" y2="54.0" stroke="rgb(0,0,0)"  stroke-width="2.0"/>
<line x1="509.0" y1="71.7" x2="504.8" y2="98.2" stroke="rgb(0,0,0)"  stroke-width="2.0"/>
<line x1="515.8" y1="74.8" x2="512.8" y2="93.4" stroke="rgb(0,0,0)"  stroke-width="2.0"/>
<line x1="535.9" y1="123.3" x2="573.2" y2="109.0" stroke="rgb(0,0,0)"  stroke-width="2.0"/>
<line x1="538.9" y1="114.5" x2="565.0" y2="104.4" stroke="rgb(0,0,0)"  stroke-width="2.0"/>
<line x1="573.2" y1="109.0" x2="577.4" y2="82.3" stroke="rgb(0,0,0)"  stroke-width="2.0"/>
<line x1="569.2" y1="61.2" x2="548.4" y2="44.3" stroke="rgb(0,0,0)"  stroke-width="2.0"/>
<line x1="563.1" y1="65.5" x2="548.5" y2="53.7" stroke="rgb(0,0,0)"  stroke-width="2.0"/>
<line x1="176.2" y1="284.3" x2="139.7" y2="268.0" stroke="rgb(0,0,0)"  stroke-width="2.0"/>
<line x1="139.7" y1="268.0" x2="112.9" y2="297.7" stroke="rgb(0,0,0)"  stroke-width="2.0"/>
<line x1="112.9" y1="297.7" x2="132.9" y2="332.4" stroke="rgb(0,0,0)"  stroke-width="2.0"/>
<line x1="132.9" y1="332.4" x2="159.3" y2="326.8" stroke="rgb(0,0,0)"  stroke-width="2.0"/>
<line x1="173.4" y1="311.1" x2="176.2" y2="284.3" stroke="rgb(0,0,0)"  stroke-width="2.0"/>
<line x1="433.9" y1="105.6" x2="405.6" y2="77.3" stroke="rgb(0,0,0)"  stroke-width="2.0"/>
<line x1="405.6" y1="77.3" x2="370.0" y2="95.5" stroke="rgb(0,0,0)"  stroke-width="2.0"/>
<line x1="370.0" y1="95.5" x2="376.2" y2="135.0" stroke="rgb(0,0,0)"  stroke-width="2.0"/>
<line x1="376.2" y1="135.0" x2="402.9" y2="139.2" stroke="rgb(0,0,0)"  stroke-width="2.0"/>
<line x1="421.6" y1="129.7" x2="433.9" y2="105.6" stroke="rgb(0,0,0)"  stroke-width="2.0"/>
<text x="458.960935" y="88.454673" fill="rgb(191,191,191)"  stroke="rgb(191,191,191)" stroke-width="1" font-size="16" >H</text>
<text x="465.218314" y="127.962206" fill="rgb(12,12,255)"  stroke="rgb(12,12,255)" stroke-width="1" font-size="16" >N</text>
<text x="515.516257" y="168.692678" fill="rgb(12,12,255)"  stroke="rgb(12,12,255)" stroke-width="1" font-size="16" >N</text>
<text x="600.280031" y="142.187558" fill="rgb(12,12,255)"  stroke="rgb(12,12,255)" stroke-width="1" font-size="16" >NH</text>
<text x="624.280031" y="145.867558" fill="rgb(12,12,255)"  stroke="rgb(12,12,255)" stroke-width="1" font-size="13" >2</text>
<text x="573.451571" y="77.507209" fill="rgb(12,12,255)"  stroke="rgb(12,12,255)" stroke-width="1" font-size="16" >N</text>
<text x="505.022515" y="66.669111" fill="rgb(12,12,255)"  stroke="rgb(12,12,255)" stroke-width="1" font-size="16" >N</text>
<text x="409.715477" y="149.267749" fill="rgb(255,12,12)"  stroke="rgb(255,12,12)" stroke-width="1" font-size="16" >O</text>
<text x="385.256108" y="48.000000" fill="rgb(191,191,191)"  stroke="rgb(191,191,191)" stroke-width="1" font-size="16" >H</text>
<text x="424.763641" y="54.257379" fill="rgb(255,12,12)"  stroke="rgb(255,12,12)" stroke-width="1" font-size="16" >OH</text>
<text x="324.005383" y="105.596275" fill="rgb(191,191,191)"  stroke="rgb(191,191,191)" stroke-width="1" font-size="16" >H</text>
<text x="330.165003" y="69.956014" fill="rgb(255,12,12)"  stroke="rgb(255,12,12)" stroke-width="1" font-size="16" >HO</text>
<text x="106.900901" y="246.297144" fill="rgb(191,191,191)"  stroke="rgb(191,191,191)" stroke-width="1" font-size="16" >H</text>
<text x="146.026805" y="237.980677" fill="rgb(255,12,12)"  stroke="rgb(255,12,12)" stroke-width="1" font-size="16" >OH</text>
<text x="70.359082" y="322.018196" fill="rgb(191,191,191)"  stroke="rgb(191,191,191)" stroke-width="1" font-size="16" >H</text>
<text x="62.540221" y="282.237320" fill="rgb(255,12,12)"  stroke="rgb(255,12,12)" stroke-width="1" font-size="16" >HO</text>
<text x="34.000000" y="450.704853" fill="rgb(255,12,12)"  stroke="rgb(255,12,12)" stroke-width="1" font-size="16" >O</text>
<text x="141.882039" y="368.138622" fill="rgb(12,12,255)"  stroke="rgb(12,12,255)" stroke-width="1" font-size="16" >+</text>
<text x="131.082039" y="380.170622" fill="rgb(12,12,255)"  stroke="rgb(12,12,255)" stroke-width="1" font-size="16" >N</text>
<text x="94.540221" y="363.901157" fill="rgb(191,191,191)"  stroke="rgb(191,191,191)" stroke-width="1" font-size="16" >H</text>
<text x="166.026805" y="332.073279" fill="rgb(255,12,12)"  stroke="rgb(255,12,12)" stroke-width="1" font-size="16" >O</text>
<text x="190.207943" y="257.651387" fill="rgb(191,191,191)"  stroke="rgb(191,191,191)" stroke-width="1" font-size="16" >H</text>
<text x="76.722957" y="506.755194" fill="rgb(12,12,255)"  stroke="rgb(12,12,255)" stroke-width="1" font-size="16" >NH</text>
<text x="100.722957" y="510.435194" fill="rgb(12,12,255)"  stroke="rgb(12,12,255)" stroke-width="1" font-size="13" >2</text>
<text x="230.207943" y="257.651387" fill="rgb(255,12,12)"  stroke="rgb(255,12,12)" stroke-width="1" font-size="16" >O</text>
<text x="270.207943" y="257.651387" fill="rgb(255,127,0)"  stroke="rgb(255,127,0)" stroke-width="1" font-size="16" >P</text>
<text x="270.207943" y="297.651387" fill="rgb(255,12,12)"  stroke="rgb(255,12,12)" stroke-width="1" font-size="16" >O</text>
<text x="321.007943" y="235.539387" fill="rgb(255,12,12)"  stroke="rgb(255,12,12)" stroke-width="1" font-size="16" >_</text>
<text x="310.207943" y="257.651387" fill="rgb(255,12,12)"  stroke="rgb(255,12,12)" stroke-width="1" font-size="16" >O</text>
<text x="270.207943" y="217.651387" fill="rgb(255,12,12)"  stroke="rgb(255,12,12)" stroke-width="1" font-size="16" >O</text>
<text x="270.207943" y="177.651387" fill="rgb(255,127,0)"  stroke="rgb(255,127,0)" stroke-width="1" font-size="16" >P</text>
<text x="230.207943" y="177.651387" fill="rgb(255,12,12)"  stroke="rgb(255,12,12)" stroke-width="1" font-size="16" >O</text>
<text x="270.207943" y="137.651387" fill="rgb(255,12,12)"  stroke="rgb(255,12,12)" stroke-width="1" font-size="16" >OH</text>
<text x="310.207943" y="177.651387" fill="rgb(255,12,12)"  stroke="rgb(255,12,12)" stroke-width="1" font-size="16" >O</text>
<text x="378.165706" y="182.210804" fill="rgb(191,191,191)"  stroke="rgb(191,191,191)" stroke-width="1" font-size="16" >H</text>
</svg>
</g>
<text font-size="18.000000" fill ="black" font-family="sans-serif"
x="10.000000" y="20.000000" ></text>
</svg>
