<?xml version="1.0"?>
<svg version="1.1" id="topsvg"
xmlns="http://www.w3.org/2000/svg" xmlns:xlink="http://www.w3.org/1999/xlink"
xmlns:cml="http://www.xml-cml.org/schema" x="0" y="0" width="200px" height="200px" viewBox="0 0 100 100">
<title> - Open Babel Depiction</title>
<rect x="0" y="0" width="100" height="100" fill="white"/>
<g transform="translate(0,0)">
<svg width="100" height="100" x="0" y="0" viewBox="0 0 189.282 260"
font-family="sans-serif" stroke="rgb(0,0,0)" stroke-width="2"  stroke-linecap="round">
<line x1="111.6" y1="207.0" x2="111.6" y2="180.0" stroke="rgb(0,0,0)"  stroke-width="2.0"/>
<line x1="117.6" y1="207.0" x2="117.6" y2="180.0" stroke="rgb(0,0,0)"  stroke-width="2.0"/>
<line x1="114.6" y1="180.0" x2="138.0" y2="166.5" stroke="rgb(0,0,0)"  stroke-width="2.0"/>
<line x1="114.6" y1="180.0" x2="80.0" y2="160.0" stroke="rgb(0,0,0)"  stroke-width="2.0"/>
<polygon points="80.000000 160.000000 53.200000 164.000000 53.200000 156.000000 " stroke-width="2.000000" fill="rgb(0,0,0)"  stroke="rgb(0,0,0)" />
<line x1="80.0" y1="160.0" x2="66.5" y2="183.4" stroke="rgb(0,0,0)"  stroke-width="2.0"/>
<line x1="80.0" y1="160.0" x2="80.0" y2="120.0" stroke="rgb(0,0,0)"  stroke-width="2.0"/>
<line x1="45.4" y1="60.0" x2="80.0" y2="40.0" stroke="rgb(0,0,0)"  stroke-width="2.0"/>
<line x1="54.2" y1="63.2" x2="78.4" y2="49.2" stroke="rgb(0,0,0)"  stroke-width="2.0"/>
<line x1="80.0" y1="40.0" x2="114.6" y2="60.0" stroke="rgb(0,0,0)"  stroke-width="2.0"/>
<line x1="114.6" y1="60.0" x2="114.6" y2="100.0" stroke="rgb(0,0,0)"  stroke-width="2.0"/>
<line x1="107.4" y1="66.0" x2="107.4" y2="94.0" stroke="rgb(0,0,0)"  stroke-width="2.0"/>
<line x1="114.6" y1="100.0" x2="80.0" y2="120.0" stroke="rgb(0,0,0)"  stroke-width="2.0"/>
<line x1="80.0" y1="120.0" x2="45.4" y2="100.0" stroke="rgb(0,0,0)"  stroke-width="2.0"/>
<line x1="78.4" y1="110.8" x2="54.2" y2="96.8" stroke="rgb(0,0,0)"  stroke-width="2.0"/>
<line x1="45.4" y1="100.0" x2="45.4" y2="60.0" stroke="rgb(0,0,0)"  stroke-width="2.0"/>
<text x="108.641016" y="228.000000" fill="rgb(255,12,12)"  stroke="rgb(255,12,12)" stroke-width="1" font-size="16" >O</text>
<text x="143.282032" y="168.000000" fill="rgb(255,12,12)"  stroke="rgb(255,12,12)" stroke-width="1" font-size="16" >OH</text>
<text x="34.000000" y="168.000000" fill="rgb(191,191,191)"  stroke="rgb(191,191,191)" stroke-width="1" font-size="16" >H</text>
<text x="42.000000" y="202.641016" fill="rgb(255,12,12)"  stroke="rgb(255,12,12)" stroke-width="1" font-size="16" >HO</text>
</svg>
</g>
<text font-size="18.000000" fill ="black" font-family="sans-serif"
x="10.000000" y="20.000000" ></text>
</svg>
