<?xml version="1.0"?>
<svg version="1.1" id="topsvg"
xmlns="http://www.w3.org/2000/svg" xmlns:xlink="http://www.w3.org/1999/xlink"
xmlns:cml="http://www.xml-cml.org/schema" x="0" y="0" width="200px" height="200px" viewBox="0 0 100 100">
<title> - Open Babel Depiction</title>
<rect x="0" y="0" width="100" height="100" fill="white"/>
<g transform="translate(0,0)">
<svg width="100" height="100" x="0" y="0" viewBox="0 0 494.641 293.205"
font-family="sans-serif" stroke="rgb(0,0,0)" stroke-width="2"  stroke-linecap="round">
<line x1="414.6" y1="205.6" x2="414.6" y2="191.6" stroke="rgb(0,0,0)"  stroke-width="2.0"/>
<line x1="427.6" y1="175.6" x2="441.6" y2="175.6" stroke="rgb(0,0,0)"  stroke-width="2.0"/>
<line x1="427.6" y1="181.6" x2="441.6" y2="181.6" stroke="rgb(0,0,0)"  stroke-width="2.0"/>
<line x1="411.6" y1="165.6" x2="411.6" y2="151.6" stroke="rgb(0,0,0)"  stroke-width="2.0"/>
<line x1="417.6" y1="165.6" x2="417.6" y2="151.6" stroke="rgb(0,0,0)"  stroke-width="2.0"/>
<line x1="401.6" y1="178.6" x2="387.6" y2="178.6" stroke="rgb(0,0,0)"  stroke-width="2.0"/>
<line x1="368.1" y1="167.3" x2="354.6" y2="143.9" stroke="rgb(0,0,0)"  stroke-width="2.0"/>
<line x1="352.0" y1="142.4" x2="365.5" y2="119.0" stroke="rgb(0,0,0)"  stroke-width="2.0"/>
<line x1="357.2" y1="145.4" x2="370.7" y2="122.0" stroke="rgb(0,0,0)"  stroke-width="2.0"/>
<line x1="354.6" y1="143.9" x2="314.6" y2="143.9" stroke="rgb(0,0,0)"  stroke-width="2.0"/>
<line x1="254.6" y1="178.6" x2="241.1" y2="201.9" stroke="rgb(0,0,0)"  stroke-width="2.0"/>
<line x1="221.6" y1="213.2" x2="194.6" y2="213.2" stroke="rgb(0,0,0)"  stroke-width="2.0"/>
<line x1="114.6" y1="213.2" x2="74.6" y2="213.2" stroke="rgb(0,0,0)"  stroke-width="2.0"/>
<line x1="74.6" y1="213.2" x2="51.3" y2="226.7" stroke="rgb(0,0,0)"  stroke-width="2.0"/>
<line x1="74.6" y1="213.2" x2="74.6" y2="240.2" stroke="rgb(0,0,0)"  stroke-width="2.0"/>
<line x1="74.6" y1="213.2" x2="61.1" y2="189.8" stroke="rgb(0,0,0)"  stroke-width="2.0"/>
<line x1="174.6" y1="178.6" x2="188.1" y2="155.2" stroke="rgb(0,0,0)"  stroke-width="2.0"/>
<line x1="294.6" y1="109.3" x2="308.1" y2="85.9" stroke="rgb(0,0,0)"  stroke-width="2.0"/>
<line x1="327.6" y1="71.6" x2="341.6" y2="71.6" stroke="rgb(0,0,0)"  stroke-width="2.0"/>
<line x1="327.6" y1="77.6" x2="341.6" y2="77.6" stroke="rgb(0,0,0)"  stroke-width="2.0"/>
<line x1="308.1" y1="63.4" x2="301.1" y2="51.3" stroke="rgb(0,0,0)"  stroke-width="2.0"/>
<line x1="254.6" y1="178.6" x2="234.6" y2="143.9" stroke="rgb(0,0,0)"  stroke-width="2.0"/>
<line x1="257.9" y1="169.8" x2="243.9" y2="145.5" stroke="rgb(0,0,0)"  stroke-width="2.0"/>
<line x1="234.6" y1="143.9" x2="254.6" y2="109.3" stroke="rgb(0,0,0)"  stroke-width="2.0"/>
<line x1="254.6" y1="109.3" x2="294.6" y2="109.3" stroke="rgb(0,0,0)"  stroke-width="2.0"/>
<line x1="260.6" y1="116.5" x2="288.6" y2="116.5" stroke="rgb(0,0,0)"  stroke-width="2.0"/>
<line x1="294.6" y1="109.3" x2="314.6" y2="143.9" stroke="rgb(0,0,0)"  stroke-width="2.0"/>
<line x1="314.6" y1="143.9" x2="294.6" y2="178.6" stroke="rgb(0,0,0)"  stroke-width="2.0"/>
<line x1="305.4" y1="145.5" x2="291.4" y2="169.8" stroke="rgb(0,0,0)"  stroke-width="2.0"/>
<line x1="294.6" y1="178.6" x2="254.6" y2="178.6" stroke="rgb(0,0,0)"  stroke-width="2.0"/>
<line x1="134.6" y1="247.8" x2="114.6" y2="213.2" stroke="rgb(0,0,0)"  stroke-width="2.0"/>
<line x1="137.9" y1="239.0" x2="123.9" y2="214.8" stroke="rgb(0,0,0)"  stroke-width="2.0"/>
<line x1="114.6" y1="213.2" x2="134.6" y2="178.6" stroke="rgb(0,0,0)"  stroke-width="2.0"/>
<line x1="134.6" y1="178.6" x2="174.6" y2="178.6" stroke="rgb(0,0,0)"  stroke-width="2.0"/>
<line x1="140.6" y1="185.8" x2="168.6" y2="185.8" stroke="rgb(0,0,0)"  stroke-width="2.0"/>
<line x1="174.6" y1="178.6" x2="194.6" y2="213.2" stroke="rgb(0,0,0)"  stroke-width="2.0"/>
<line x1="194.6" y1="213.2" x2="174.6" y2="247.8" stroke="rgb(0,0,0)"  stroke-width="2.0"/>
<line x1="185.4" y1="214.8" x2="171.4" y2="239.0" stroke="rgb(0,0,0)"  stroke-width="2.0"/>
<line x1="174.6" y1="247.8" x2="134.6" y2="247.8" stroke="rgb(0,0,0)"  stroke-width="2.0"/>
<text x="299.441016" y="25.888000" fill="rgb(255,12,12)"  stroke="rgb(255,12,12)" stroke-width="1" font-size="16" >_</text>
<text x="288.641016" y="48.000000" fill="rgb(255,12,12)"  stroke="rgb(255,12,12)" stroke-width="1" font-size="16" >O</text>
<text x="348.641016" y="82.641016" fill="rgb(255,12,12)"  stroke="rgb(255,12,12)" stroke-width="1" font-size="16" >O</text>
<text x="319.441016" y="70.609016" fill="rgb(12,12,255)"  stroke="rgb(12,12,255)" stroke-width="1" font-size="16" >+</text>
<text x="308.641016" y="82.641016" fill="rgb(12,12,255)"  stroke="rgb(12,12,255)" stroke-width="1" font-size="16" >N</text>
<text x="188.641016" y="151.923048" fill="rgb(30,239,30)"  stroke="rgb(30,239,30)" stroke-width="1" font-size="16" >Cl</text>
<text x="48.641016" y="186.564065" fill="rgb(127,178,255)"  stroke="rgb(127,178,255)" stroke-width="1" font-size="16" >F</text>
<text x="68.641016" y="261.205081" fill="rgb(127,178,255)"  stroke="rgb(127,178,255)" stroke-width="1" font-size="16" >F</text>
<text x="34.000000" y="241.205081" fill="rgb(127,178,255)"  stroke="rgb(127,178,255)" stroke-width="1" font-size="16" >F</text>
<text x="410.641016" y="226.564065" fill="rgb(102,102,102)"  stroke="rgb(102,102,102)" stroke-width="1" font-size="16" >CH</text>
<text x="434.641016" y="230.244065" fill="rgb(102,102,102)"  stroke="rgb(102,102,102)" stroke-width="1" font-size="13" >3</text>
<text x="228.641016" y="221.205081" fill="rgb(255,12,12)"  stroke="rgb(255,12,12)" stroke-width="1" font-size="16" >O</text>
<text x="368.641016" y="117.282032" fill="rgb(255,12,12)"  stroke="rgb(255,12,12)" stroke-width="1" font-size="16" >O</text>
<text x="368.641016" y="186.564065" fill="rgb(12,12,255)"  stroke="rgb(12,12,255)" stroke-width="1" font-size="16" >N</text>
<text x="368.641016" y="202.564065" fill="rgb(12,12,255)"  stroke="rgb(12,12,255)" stroke-width="1" font-size="16" >H</text>
<text x="408.641016" y="146.564065" fill="rgb(255,12,12)"  stroke="rgb(255,12,12)" stroke-width="1" font-size="16" >O</text>
<text x="448.641016" y="186.564065" fill="rgb(255,12,12)"  stroke="rgb(255,12,12)" stroke-width="1" font-size="16" >O</text>
<text x="408.641016" y="186.564065" fill="rgb(178,178,0)"  stroke="rgb(178,178,0)" stroke-width="1" font-size="16" >S</text>
</svg>
</g>
<text font-size="18.000000" fill ="black" font-family="sans-serif"
x="10.000000" y="20.000000" ></text>
</svg>
