<?xml version="1.0"?>
<svg version="1.1" id="topsvg"
xmlns="http://www.w3.org/2000/svg" xmlns:xlink="http://www.w3.org/1999/xlink"
xmlns:cml="http://www.xml-cml.org/schema" x="0" y="0" width="200px" height="200px" viewBox="0 0 100 100">
<title> - Open Babel Depiction</title>
<rect x="0" y="0" width="100" height="100" fill="white"/>
<g transform="translate(0,0)">
<svg width="100" height="100" x="0" y="0" viewBox="0 0 316.383 288.223"
font-family="sans-serif" stroke="rgb(0,0,0)" stroke-width="2"  stroke-linecap="round">
<line x1="254.6" y1="237.0" x2="241.7" y2="214.6" stroke="rgb(0,0,0)"  stroke-width="2.0"/>
<line x1="241.7" y1="214.6" x2="241.7" y2="175.9" stroke="rgb(0,0,0)"  stroke-width="2.0"/>
<line x1="241.7" y1="175.9" x2="265.1" y2="189.3" stroke="rgb(0,0,0)"  stroke-width="2.0"/>
<line x1="208.1" y1="117.6" x2="208.1" y2="90.6" stroke="rgb(0,0,0)"  stroke-width="2.0"/>
<line x1="201.0" y1="114.5" x2="201.8" y2="113.1" stroke="rgb(0,0,0)"  stroke-width="1.0"/>
<line x1="195.3" y1="111.9" x2="196.7" y2="109.4" stroke="rgb(0,0,0)"  stroke-width="1.0"/>
<line x1="189.6" y1="109.4" x2="191.7" y2="105.8" stroke="rgb(0,0,0)"  stroke-width="1.0"/>
<line x1="183.9" y1="106.8" x2="186.6" y2="102.1" stroke="rgb(0,0,0)"  stroke-width="1.0"/>
<line x1="178.2" y1="104.3" x2="181.5" y2="98.4" stroke="rgb(0,0,0)"  stroke-width="1.0"/>
<line x1="172.5" y1="101.7" x2="176.5" y2="94.8" stroke="rgb(0,0,0)"  stroke-width="1.0"/>
<line x1="174.5" y1="98.2" x2="174.5" y2="124.1" stroke="rgb(0,0,0)"  stroke-width="2.0"/>
<line x1="107.2" y1="98.2" x2="107.2" y2="125.2" stroke="rgb(0,0,0)"  stroke-width="2.0"/>
<polygon points="107.212196 98.245863 142.839948 114.172431 138.843708 121.102804 " stroke-width="2.000000" fill="rgb(0,0,0)"  stroke="rgb(0,0,0)" />
<polygon points="140.841828 117.637618 136.841828 91.621132 144.841828 91.621132 " stroke-width="2.000000" fill="rgb(0,0,0)"  stroke="rgb(0,0,0)" />
<polygon points="174.471460 98.245863 142.839948 121.102804 138.843708 114.172431 " stroke-width="2.000000" fill="rgb(0,0,0)"  stroke="rgb(0,0,0)" />
<line x1="207.3" y1="148.7" x2="208.9" y2="148.7" stroke="rgb(0,0,0)"  stroke-width="1.0"/>
<line x1="206.7" y1="142.5" x2="209.5" y2="142.5" stroke="rgb(0,0,0)"  stroke-width="1.0"/>
<line x1="206.0" y1="136.3" x2="210.2" y2="136.3" stroke="rgb(0,0,0)"  stroke-width="1.0"/>
<line x1="205.4" y1="130.1" x2="210.8" y2="130.1" stroke="rgb(0,0,0)"  stroke-width="1.0"/>
<line x1="204.7" y1="123.9" x2="211.5" y2="123.9" stroke="rgb(0,0,0)"  stroke-width="1.0"/>
<line x1="204.1" y1="117.6" x2="212.1" y2="117.6" stroke="rgb(0,0,0)"  stroke-width="1.0"/>
<line x1="234.6" y1="172.7" x2="235.4" y2="171.3" stroke="rgb(0,0,0)"  stroke-width="1.0"/>
<line x1="228.9" y1="170.1" x2="230.3" y2="167.6" stroke="rgb(0,0,0)"  stroke-width="1.0"/>
<line x1="223.2" y1="167.6" x2="225.3" y2="164.0" stroke="rgb(0,0,0)"  stroke-width="1.0"/>
<line x1="217.5" y1="165.0" x2="220.2" y2="160.3" stroke="rgb(0,0,0)"  stroke-width="1.0"/>
<line x1="211.8" y1="162.5" x2="215.2" y2="156.7" stroke="rgb(0,0,0)"  stroke-width="1.0"/>
<line x1="206.1" y1="159.9" x2="210.1" y2="153.0" stroke="rgb(0,0,0)"  stroke-width="1.0"/>
<line x1="208.1" y1="156.5" x2="208.1" y2="183.5" stroke="rgb(0,0,0)"  stroke-width="2.0"/>
<line x1="275.3" y1="117.6" x2="208.1" y2="117.6" stroke="rgb(0,0,0)"  stroke-width="2.0"/>
<line x1="208.1" y1="117.6" x2="208.1" y2="156.5" stroke="rgb(0,0,0)"  stroke-width="2.0"/>
<line x1="208.1" y1="156.5" x2="241.7" y2="175.9" stroke="rgb(0,0,0)"  stroke-width="2.0"/>
<line x1="241.7" y1="175.9" x2="275.3" y2="156.5" stroke="rgb(0,0,0)"  stroke-width="2.0"/>
<line x1="275.3" y1="156.5" x2="275.3" y2="117.6" stroke="rgb(0,0,0)"  stroke-width="2.0"/>
<line x1="140.8" y1="156.5" x2="174.5" y2="175.9" stroke="rgb(0,0,0)"  stroke-width="2.0"/>
<line x1="174.5" y1="175.9" x2="208.1" y2="156.5" stroke="rgb(0,0,0)"  stroke-width="2.0"/>
<line x1="208.1" y1="117.6" x2="174.5" y2="98.2" stroke="rgb(0,0,0)"  stroke-width="2.0"/>
<line x1="174.5" y1="98.2" x2="140.8" y2="117.6" stroke="rgb(0,0,0)"  stroke-width="2.0"/>
<line x1="140.8" y1="117.6" x2="140.8" y2="156.5" stroke="rgb(0,0,0)"  stroke-width="2.0"/>
<line x1="174.5" y1="98.2" x2="174.5" y2="59.4" stroke="rgb(0,0,0)"  stroke-width="2.0"/>
<line x1="174.5" y1="59.4" x2="140.8" y2="40.0" stroke="rgb(0,0,0)"  stroke-width="2.0"/>
<line x1="140.8" y1="40.0" x2="107.2" y2="59.4" stroke="rgb(0,0,0)"  stroke-width="2.0"/>
<line x1="107.2" y1="59.4" x2="107.2" y2="98.2" stroke="rgb(0,0,0)"  stroke-width="2.0"/>
<line x1="107.2" y1="98.2" x2="140.8" y2="117.6" stroke="rgb(0,0,0)"  stroke-width="2.0"/>
<line x1="73.6" y1="40.0" x2="107.2" y2="59.4" stroke="rgb(0,0,0)"  stroke-width="2.0"/>
<line x1="75.2" y1="49.2" x2="98.4" y2="62.6" stroke="rgb(0,0,0)"  stroke-width="2.0"/>
<line x1="107.2" y1="98.2" x2="73.6" y2="117.6" stroke="rgb(0,0,0)"  stroke-width="2.0"/>
<line x1="73.6" y1="117.6" x2="40.0" y2="98.2" stroke="rgb(0,0,0)"  stroke-width="2.0"/>
<line x1="40.0" y1="98.2" x2="40.0" y2="59.4" stroke="rgb(0,0,0)"  stroke-width="2.0"/>
<line x1="40.0" y1="59.4" x2="73.6" y2="40.0" stroke="rgb(0,0,0)"  stroke-width="2.0"/>
<text x="204.101092" y="204.468193" fill="rgb(102,102,102)"  stroke="rgb(102,102,102)" stroke-width="1" font-size="16" >CH</text>
<text x="228.101092" y="208.148193" fill="rgb(102,102,102)"  stroke="rgb(102,102,102)" stroke-width="1" font-size="13" >3</text>
<text x="134.841828" y="86.807042" fill="rgb(191,191,191)"  stroke="rgb(191,191,191)" stroke-width="1" font-size="16" >H</text>
<text x="101.212196" y="146.245863" fill="rgb(191,191,191)"  stroke="rgb(191,191,191)" stroke-width="1" font-size="16" >H</text>
<text x="257.120339" y="256.222978" fill="rgb(102,102,102)"  stroke="rgb(102,102,102)" stroke-width="1" font-size="16" >CH</text>
<text x="281.120339" y="259.902978" fill="rgb(102,102,102)"  stroke="rgb(102,102,102)" stroke-width="1" font-size="13" >3</text>
<text x="168.471460" y="145.052905" fill="rgb(191,191,191)"  stroke="rgb(191,191,191)" stroke-width="1" font-size="16" >H</text>
<text x="202.101092" y="85.637618" fill="rgb(191,191,191)"  stroke="rgb(191,191,191)" stroke-width="1" font-size="16" >H</text>
<text x="270.382587" y="203.841148" fill="rgb(255,12,12)"  stroke="rgb(255,12,12)" stroke-width="1" font-size="16" >OH</text>
</svg>
</g>
<text font-size="18.000000" fill ="black" font-family="sans-serif"
x="10.000000" y="20.000000" ></text>
</svg>
