<?xml version="1.0"?>
<svg version="1.1" id="topsvg"
xmlns="http://www.w3.org/2000/svg" xmlns:xlink="http://www.w3.org/1999/xlink"
xmlns:cml="http://www.xml-cml.org/schema" x="0" y="0" width="200px" height="200px" viewBox="0 0 100 100">
<title> - Open Babel Depiction</title>
<rect x="0" y="0" width="100" height="100" fill="white"/>
<g transform="translate(0,0)">
<svg width="100" height="100" x="0" y="0" viewBox="0 0 240 189.282"
font-family="sans-serif" stroke="rgb(0,0,0)" stroke-width="2"  stroke-linecap="round">
<line x1="113.5" y1="138.0" x2="100.0" y2="114.6" stroke="rgb(0,0,0)"  stroke-width="2.0"/>
<line x1="120.0" y1="80.0" x2="147.0" y2="80.0" stroke="rgb(0,0,0)"  stroke-width="2.0"/>
<line x1="163.0" y1="93.0" x2="163.0" y2="107.0" stroke="rgb(0,0,0)"  stroke-width="2.0"/>
<line x1="157.0" y1="93.0" x2="157.0" y2="107.0" stroke="rgb(0,0,0)"  stroke-width="2.0"/>
<line x1="173.0" y1="77.0" x2="187.0" y2="77.0" stroke="rgb(0,0,0)"  stroke-width="2.0"/>
<line x1="173.0" y1="83.0" x2="187.0" y2="83.0" stroke="rgb(0,0,0)"  stroke-width="2.0"/>
<line x1="160.0" y1="67.0" x2="160.0" y2="53.0" stroke="rgb(0,0,0)"  stroke-width="2.0"/>
<line x1="40.0" y1="80.0" x2="60.0" y2="45.4" stroke="rgb(0,0,0)"  stroke-width="2.0"/>
<line x1="49.2" y1="78.4" x2="63.2" y2="54.2" stroke="rgb(0,0,0)"  stroke-width="2.0"/>
<line x1="60.0" y1="45.4" x2="100.0" y2="45.4" stroke="rgb(0,0,0)"  stroke-width="2.0"/>
<line x1="100.0" y1="45.4" x2="120.0" y2="80.0" stroke="rgb(0,0,0)"  stroke-width="2.0"/>
<line x1="96.8" y1="54.2" x2="110.8" y2="78.4" stroke="rgb(0,0,0)"  stroke-width="2.0"/>
<line x1="120.0" y1="80.0" x2="100.0" y2="114.6" stroke="rgb(0,0,0)"  stroke-width="2.0"/>
<line x1="100.0" y1="114.6" x2="60.0" y2="114.6" stroke="rgb(0,0,0)"  stroke-width="2.0"/>
<line x1="94.0" y1="107.4" x2="66.0" y2="107.4" stroke="rgb(0,0,0)"  stroke-width="2.0"/>
<line x1="60.0" y1="114.6" x2="40.0" y2="80.0" stroke="rgb(0,0,0)"  stroke-width="2.0"/>
<text x="116.000000" y="157.282032" fill="rgb(12,12,255)"  stroke="rgb(12,12,255)" stroke-width="1" font-size="16" >NH</text>
<text x="140.000000" y="160.962032" fill="rgb(12,12,255)"  stroke="rgb(12,12,255)" stroke-width="1" font-size="13" >2</text>
<text x="154.000000" y="88.000000" fill="rgb(178,178,0)"  stroke="rgb(178,178,0)" stroke-width="1" font-size="16" >S</text>
<text x="154.000000" y="128.000000" fill="rgb(255,12,12)"  stroke="rgb(255,12,12)" stroke-width="1" font-size="16" >O</text>
<text x="194.000000" y="88.000000" fill="rgb(255,12,12)"  stroke="rgb(255,12,12)" stroke-width="1" font-size="16" >O</text>
<text x="154.000000" y="48.000000" fill="rgb(255,12,12)"  stroke="rgb(255,12,12)" stroke-width="1" font-size="16" >OH</text>
</svg>
</g>
<text font-size="18.000000" fill ="black" font-family="sans-serif"
x="10.000000" y="20.000000" ></text>
</svg>
