<?xml version="1.0"?>
<svg version="1.1" id="topsvg"
xmlns="http://www.w3.org/2000/svg" xmlns:xlink="http://www.w3.org/1999/xlink"
xmlns:cml="http://www.xml-cml.org/schema" x="0" y="0" width="200px" height="200px" viewBox="0 0 100 100">
<title> - Open Babel Depiction</title>
<rect x="0" y="0" width="100" height="100" fill="white"/>
<g transform="translate(0,0)">
<svg width="100" height="100" x="0" y="0" viewBox="0 0 296.716 533.914"
font-family="sans-serif" stroke="rgb(0,0,0)" stroke-width="2"  stroke-linecap="round">
<line x1="63.4" y1="46.5" x2="40.0" y2="60.0" stroke="rgb(0,0,0)"  stroke-width="2.0"/>
<line x1="40.0" y1="60.0" x2="40.0" y2="100.0" stroke="rgb(0,0,0)"  stroke-width="2.0"/>
<line x1="40.0" y1="100.0" x2="74.6" y2="120.0" stroke="rgb(0,0,0)"  stroke-width="2.0"/>
<line x1="74.6" y1="120.0" x2="74.6" y2="160.0" stroke="rgb(0,0,0)"  stroke-width="2.0"/>
<line x1="74.6" y1="160.0" x2="109.3" y2="180.0" stroke="rgb(0,0,0)"  stroke-width="2.0"/>
<line x1="109.3" y1="180.0" x2="109.3" y2="220.0" stroke="rgb(0,0,0)"  stroke-width="2.0"/>
<line x1="109.3" y1="220.0" x2="143.9" y2="240.0" stroke="rgb(0,0,0)"  stroke-width="2.0"/>
<line x1="143.9" y1="240.0" x2="143.9" y2="280.0" stroke="rgb(0,0,0)"  stroke-width="2.0"/>
<line x1="143.9" y1="280.0" x2="178.6" y2="300.0" stroke="rgb(0,0,0)"  stroke-width="2.0"/>
<line x1="178.6" y1="300.0" x2="178.6" y2="340.0" stroke="rgb(0,0,0)"  stroke-width="2.0"/>
<line x1="180.1" y1="337.4" x2="211.7" y2="362.6" stroke="rgb(0,0,0)"  stroke-width="2.0"/>
<line x1="177.1" y1="342.6" x2="214.7" y2="357.4" stroke="rgb(0,0,0)"  stroke-width="2.0"/>
<line x1="213.2" y1="360.0" x2="213.2" y2="400.0" stroke="rgb(0,0,0)"  stroke-width="2.0"/>
<line x1="235.6" y1="459.8" x2="251.5" y2="481.6" stroke="rgb(0,0,0)"  stroke-width="2.0"/>
<line x1="230.8" y1="463.3" x2="246.6" y2="485.2" stroke="rgb(0,0,0)"  stroke-width="2.0"/>
<line x1="179.9" y1="426.4" x2="154.2" y2="418.0" stroke="rgb(0,0,0)"  stroke-width="2.0"/>
<line x1="181.8" y1="420.7" x2="156.1" y2="412.3" stroke="rgb(0,0,0)"  stroke-width="2.0"/>
<line x1="233.2" y1="461.6" x2="206.2" y2="461.6" stroke="rgb(0,0,0)"  stroke-width="2.0"/>
<line x1="189.2" y1="449.2" x2="180.8" y2="423.5" stroke="rgb(0,0,0)"  stroke-width="2.0"/>
<line x1="180.8" y1="423.5" x2="213.2" y2="400.0" stroke="rgb(0,0,0)"  stroke-width="2.0"/>
<line x1="213.2" y1="400.0" x2="245.6" y2="423.5" stroke="rgb(0,0,0)"  stroke-width="2.0"/>
<line x1="245.6" y1="423.5" x2="233.2" y2="461.6" stroke="rgb(0,0,0)"  stroke-width="2.0"/>
<text x="136.802140" y="419.150730" fill="rgb(255,12,12)"  stroke="rgb(255,12,12)" stroke-width="1" font-size="16" >O</text>
<text x="187.205081" y="469.553671" fill="rgb(255,12,12)"  stroke="rgb(255,12,12)" stroke-width="1" font-size="16" >O</text>
<text x="250.716491" y="501.914351" fill="rgb(255,12,12)"  stroke="rgb(255,12,12)" stroke-width="1" font-size="16" >O</text>
<text x="70.641016" y="48.000000" fill="rgb(102,102,102)"  stroke="rgb(102,102,102)" stroke-width="1" font-size="16" >CH</text>
<text x="94.641016" y="51.680000" fill="rgb(102,102,102)"  stroke="rgb(102,102,102)" stroke-width="1" font-size="13" >3</text>
</svg>
</g>
<text font-size="18.000000" fill ="black" font-family="sans-serif"
x="10.000000" y="20.000000" ></text>
</svg>
